G04 #@! TF.FileFunction,Soldermask,Top*
%FSLAX46Y46*%
G04 Gerber Fmt 4.6, Leading zero omitted, Abs format (unit mm)*
G04 Created by KiCad (PCBNEW 4.0.7) date 11/18/19 12:54:55*
%MOMM*%
%LPD*%
G01*
G04 APERTURE LIST*
%ADD10C,0.100000*%
%ADD11R,2.200000X2.200000*%
%ADD12C,2.200000*%
%ADD13C,1.900000*%
%ADD14R,1.650000X1.900000*%
%ADD15R,1.900000X1.650000*%
%ADD16R,2.100000X2.100000*%
%ADD17O,2.100000X2.100000*%
%ADD18R,2.000000X2.000000*%
%ADD19C,2.000000*%
%ADD20C,4.400000*%
%ADD21R,2.380000X4.360000*%
%ADD22O,2.380000X4.360000*%
%ADD23R,1.900000X1.700000*%
%ADD24R,1.700000X1.900000*%
%ADD25C,2.400000*%
%ADD26O,2.000000X2.000000*%
%ADD27O,2.200000X2.200000*%
%ADD28R,1.600000X0.800000*%
%ADD29R,3.900000X3.900000*%
%ADD30R,1.000000X0.820000*%
%ADD31C,2.100000*%
%ADD32C,3.900000*%
G04 APERTURE END LIST*
D10*
D11*
X118135400Y-85775800D03*
D12*
X115595400Y-85775800D03*
D13*
X118541800Y-97980500D03*
X118541800Y-92980500D03*
D14*
X144780000Y-55138000D03*
X144780000Y-57638000D03*
X128651000Y-113304000D03*
X128651000Y-115804000D03*
X128651000Y-122535000D03*
X128651000Y-120035000D03*
X144830800Y-64750000D03*
X144830800Y-62250000D03*
D15*
X156317000Y-70802500D03*
X153817000Y-70802500D03*
X106349480Y-113131600D03*
X108849480Y-113131600D03*
D14*
X185166000Y-67391600D03*
X185166000Y-64891600D03*
D15*
X180129500Y-70231000D03*
X177629500Y-70231000D03*
D14*
X190398400Y-68255200D03*
X190398400Y-65755200D03*
D15*
X164358000Y-56134000D03*
X166858000Y-56134000D03*
D14*
X113969800Y-91180600D03*
X113969800Y-93680600D03*
X113995200Y-99636900D03*
X113995200Y-97136900D03*
D15*
X167162800Y-106718100D03*
X164662800Y-106718100D03*
D14*
X134112000Y-74148000D03*
X134112000Y-71648000D03*
X113030000Y-60218000D03*
X113030000Y-62718000D03*
D15*
X99167000Y-60579000D03*
X96667000Y-60579000D03*
X109240000Y-70104000D03*
X111740000Y-70104000D03*
D14*
X108140500Y-60535500D03*
X108140500Y-63035500D03*
X97840800Y-67569400D03*
X97840800Y-65069400D03*
D11*
X139192000Y-68834000D03*
D12*
X139192000Y-66294000D03*
D11*
X118071900Y-78562200D03*
D12*
X115531900Y-78562200D03*
D16*
X151333200Y-127304800D03*
D17*
X151333200Y-129844800D03*
X148793200Y-127304800D03*
X148793200Y-129844800D03*
X146253200Y-127304800D03*
X146253200Y-129844800D03*
X143713200Y-127304800D03*
X143713200Y-129844800D03*
X141173200Y-127304800D03*
X141173200Y-129844800D03*
D18*
X101790500Y-102146100D03*
D19*
X101790500Y-99376100D03*
X101790500Y-96606100D03*
X101790500Y-93836100D03*
X101790500Y-91066100D03*
X98950500Y-100761100D03*
X98950500Y-97991100D03*
X98950500Y-95221100D03*
X98950500Y-92451100D03*
D20*
X101490500Y-84106100D03*
X101490500Y-109106100D03*
D21*
X123606560Y-50739040D03*
D22*
X118606560Y-50739040D03*
D16*
X118668800Y-63322200D03*
D17*
X118668800Y-60782200D03*
D16*
X114300000Y-129794000D03*
D17*
X111760000Y-129794000D03*
X109220000Y-129794000D03*
X106680000Y-129794000D03*
D23*
X144954000Y-67564000D03*
X147654000Y-67564000D03*
X153750000Y-67564000D03*
X151050000Y-67564000D03*
X136318000Y-62484000D03*
X139018000Y-62484000D03*
D24*
X131064000Y-63326000D03*
X131064000Y-60626000D03*
D23*
X120882400Y-68834000D03*
X118182400Y-68834000D03*
D25*
X147574000Y-64393200D03*
X147574000Y-59893200D03*
X154074000Y-64393200D03*
X154074000Y-59893200D03*
D18*
X171297600Y-73609200D03*
D26*
X178917600Y-96469200D03*
X171297600Y-76149200D03*
X178917600Y-93929200D03*
X171297600Y-78689200D03*
X178917600Y-91389200D03*
X171297600Y-81229200D03*
X178917600Y-88849200D03*
X171297600Y-83769200D03*
X178917600Y-86309200D03*
X171297600Y-86309200D03*
X178917600Y-83769200D03*
X171297600Y-88849200D03*
X178917600Y-81229200D03*
X171297600Y-91389200D03*
X178917600Y-78689200D03*
X171297600Y-93929200D03*
X178917600Y-76149200D03*
X171297600Y-96469200D03*
X178917600Y-73609200D03*
D18*
X121412000Y-115570000D03*
D26*
X98552000Y-123190000D03*
X118872000Y-115570000D03*
X101092000Y-123190000D03*
X116332000Y-115570000D03*
X103632000Y-123190000D03*
X113792000Y-115570000D03*
X106172000Y-123190000D03*
X111252000Y-115570000D03*
X108712000Y-123190000D03*
X108712000Y-115570000D03*
X111252000Y-123190000D03*
X106172000Y-115570000D03*
X113792000Y-123190000D03*
X103632000Y-115570000D03*
X116332000Y-123190000D03*
X101092000Y-115570000D03*
X118872000Y-123190000D03*
X98552000Y-115570000D03*
X121412000Y-123190000D03*
D11*
X139700000Y-51054000D03*
D27*
X139700000Y-53594000D03*
X139700000Y-56134000D03*
D18*
X138684000Y-73660000D03*
D26*
X153924000Y-121920000D03*
X138684000Y-76200000D03*
X153924000Y-119380000D03*
X138684000Y-78740000D03*
X153924000Y-116840000D03*
X138684000Y-81280000D03*
X153924000Y-114300000D03*
X138684000Y-83820000D03*
X153924000Y-111760000D03*
X138684000Y-86360000D03*
X153924000Y-109220000D03*
X138684000Y-88900000D03*
X153924000Y-106680000D03*
X138684000Y-91440000D03*
X153924000Y-104140000D03*
X138684000Y-93980000D03*
X153924000Y-101600000D03*
X138684000Y-96520000D03*
X153924000Y-99060000D03*
X138684000Y-99060000D03*
X153924000Y-96520000D03*
X138684000Y-101600000D03*
X153924000Y-93980000D03*
X138684000Y-104140000D03*
X153924000Y-91440000D03*
X138684000Y-106680000D03*
X153924000Y-88900000D03*
X138684000Y-109220000D03*
X153924000Y-86360000D03*
X138684000Y-111760000D03*
X153924000Y-83820000D03*
X138684000Y-114300000D03*
X153924000Y-81280000D03*
X138684000Y-116840000D03*
X153924000Y-78740000D03*
X138684000Y-119380000D03*
X153924000Y-76200000D03*
X138684000Y-121920000D03*
X153924000Y-73660000D03*
D18*
X182118000Y-59690000D03*
D26*
X159258000Y-67310000D03*
X179578000Y-59690000D03*
X161798000Y-67310000D03*
X177038000Y-59690000D03*
X164338000Y-67310000D03*
X174498000Y-59690000D03*
X166878000Y-67310000D03*
X171958000Y-59690000D03*
X169418000Y-67310000D03*
X169418000Y-59690000D03*
X171958000Y-67310000D03*
X166878000Y-59690000D03*
X174498000Y-67310000D03*
X164338000Y-59690000D03*
X177038000Y-67310000D03*
X161798000Y-59690000D03*
X179578000Y-67310000D03*
X159258000Y-59690000D03*
X182118000Y-67310000D03*
D18*
X182880000Y-71120000D03*
D26*
X190500000Y-104140000D03*
X182880000Y-73660000D03*
X190500000Y-101600000D03*
X182880000Y-76200000D03*
X190500000Y-99060000D03*
X182880000Y-78740000D03*
X190500000Y-96520000D03*
X182880000Y-81280000D03*
X190500000Y-93980000D03*
X182880000Y-83820000D03*
X190500000Y-91440000D03*
X182880000Y-86360000D03*
X190500000Y-88900000D03*
X182880000Y-88900000D03*
X190500000Y-86360000D03*
X182880000Y-91440000D03*
X190500000Y-83820000D03*
X182880000Y-93980000D03*
X190500000Y-81280000D03*
X182880000Y-96520000D03*
X190500000Y-78740000D03*
X182880000Y-99060000D03*
X190500000Y-76200000D03*
X182880000Y-101600000D03*
X190500000Y-73660000D03*
X182880000Y-104140000D03*
X190500000Y-71120000D03*
D18*
X167132000Y-116840000D03*
D26*
X189992000Y-109220000D03*
X169672000Y-116840000D03*
X187452000Y-109220000D03*
X172212000Y-116840000D03*
X184912000Y-109220000D03*
X174752000Y-116840000D03*
X182372000Y-109220000D03*
X177292000Y-116840000D03*
X179832000Y-109220000D03*
X179832000Y-116840000D03*
X177292000Y-109220000D03*
X182372000Y-116840000D03*
X174752000Y-109220000D03*
X184912000Y-116840000D03*
X172212000Y-109220000D03*
X187452000Y-116840000D03*
X169672000Y-109220000D03*
X189992000Y-116840000D03*
X167132000Y-109220000D03*
D18*
X123342400Y-66446400D03*
D26*
X130962400Y-74066400D03*
X123342400Y-68986400D03*
X130962400Y-71526400D03*
X123342400Y-71526400D03*
X130962400Y-68986400D03*
X123342400Y-74066400D03*
X130962400Y-66446400D03*
D28*
X101286000Y-66611500D03*
X101286000Y-67246500D03*
X101286000Y-67881500D03*
X101286000Y-68516500D03*
X101286000Y-69151500D03*
X101286000Y-69786500D03*
X101286000Y-70421500D03*
X101286000Y-71056500D03*
X106486000Y-71056500D03*
X106486000Y-70421500D03*
X106486000Y-69786500D03*
X106486000Y-69151500D03*
X106486000Y-68516500D03*
X106486000Y-67881500D03*
X106486000Y-67246500D03*
X106486000Y-66611500D03*
D13*
X133096000Y-120396000D03*
X133096000Y-115396000D03*
D16*
X123952000Y-129794000D03*
X187325000Y-129692400D03*
D17*
X184785000Y-129692400D03*
X182245000Y-129692400D03*
D16*
X134874000Y-129794000D03*
D17*
X132334000Y-129794000D03*
X129794000Y-129794000D03*
D16*
X176997360Y-47655480D03*
D17*
X174457360Y-47655480D03*
X171917360Y-47655480D03*
X169377360Y-47655480D03*
D24*
X102489000Y-63229480D03*
X102489000Y-60529480D03*
X104978200Y-63178680D03*
X104978200Y-60478680D03*
X112522000Y-78566000D03*
X112522000Y-75866000D03*
X112522000Y-85678000D03*
X112522000Y-82978000D03*
D29*
X153289000Y-53848000D03*
X153289000Y-47848000D03*
X148589000Y-50848000D03*
D30*
X103667600Y-75956400D03*
X103667600Y-76606400D03*
X103667600Y-77256400D03*
X101767600Y-75956400D03*
X101767600Y-76606400D03*
X101767600Y-77256400D03*
X98613000Y-76045300D03*
X98613000Y-76695300D03*
X98613000Y-77345300D03*
X96713000Y-76045300D03*
X96713000Y-76695300D03*
X96713000Y-77345300D03*
D16*
X130149600Y-47650400D03*
D17*
X132689600Y-47650400D03*
X130149600Y-50190400D03*
X132689600Y-50190400D03*
X130149600Y-52730400D03*
X132689600Y-52730400D03*
X130149600Y-55270400D03*
X132689600Y-55270400D03*
D23*
X135335000Y-103505000D03*
X132635000Y-103505000D03*
X132533400Y-106375200D03*
X135233400Y-106375200D03*
D18*
X123444000Y-78867000D03*
D26*
X131064000Y-99187000D03*
X123444000Y-81407000D03*
X131064000Y-96647000D03*
X123444000Y-83947000D03*
X131064000Y-94107000D03*
X123444000Y-86487000D03*
X131064000Y-91567000D03*
X123444000Y-89027000D03*
X131064000Y-89027000D03*
X123444000Y-91567000D03*
X131064000Y-86487000D03*
X123444000Y-94107000D03*
X131064000Y-83947000D03*
X123444000Y-96647000D03*
X131064000Y-81407000D03*
X123444000Y-99187000D03*
X131064000Y-78867000D03*
D16*
X177368200Y-129641600D03*
D17*
X174828200Y-129641600D03*
X172288200Y-129641600D03*
X169748200Y-129641600D03*
X167208200Y-129641600D03*
X164668200Y-129641600D03*
X162128200Y-129641600D03*
X159588200Y-129641600D03*
X157048200Y-129641600D03*
D16*
X103987600Y-56540400D03*
D31*
X106487600Y-56540400D03*
X106487600Y-54540400D03*
X103987600Y-54540400D03*
D32*
X99217600Y-51830400D03*
X111257600Y-51830400D03*
M02*
