M48
;DRILL file {KiCad 4.0.7} date 11/18/19 12:54:58
;FORMAT={-:-/ absolute / metric / decimal}
FMAT,2
METRIC,TZ
T1C0.400
T2C0.800
T3C0.900
T4C0.920
T5C1.000
T6C1.100
T7C1.320
T8C2.330
T9C3.200
%
G90
G05
M71
T1
X95.415Y-77.381
X97.638Y-77.445
X99.225Y-66.611
X99.733Y-77.356
X99.885Y-68.529
X100.495Y-79.057
X101.778Y-75.07
X102.654Y-70.409
X102.718Y-69.164
X102.756Y-77.318
X102.87Y-68.072
X104.927Y-77.102
X105.156Y-69.85
X105.255Y-75.956
X105.283Y-68.453
X106.347Y-75.044
X107.874Y-67.907
X110.998Y-75.946
X116.51Y-112.573
X118.974Y-113.69
X133.185Y-99.974
X134.163Y-100.838
X138.176Y-124.206
X138.176Y-125.222
X138.176Y-126.238
X140.97Y-81.28
X141.224Y-70.612
X141.986Y-81.28
X143.002Y-81.28
X143.904Y-94.056
X149.606Y-121.412
X151.13Y-109.22
X151.892Y-101.6
X164.02Y-70.548
X164.084Y-93.98
X164.668Y-105.08
X164.846Y-91.44
X165.608Y-88.9
X166.37Y-86.36
X167.132Y-83.82
X167.386Y-99.06
X167.894Y-81.28
X168.656Y-78.74
X169.418Y-76.2
X170.434Y-99.06
X172.974Y-96.266
X173.482Y-107.188
X174.498Y-67.31
X174.498Y-113.03
X175.006Y-119.38
X175.133Y-73.596
X175.26Y-95.504
X181.356Y-102.87
X183.388Y-119.38
X184.404Y-96.012
X184.404Y-101.6
X186.36Y-78.778
X186.436Y-99.06
X187.198Y-98.044
X187.757Y-57.785
X187.96Y-98.298
X188.214Y-91.44
X188.214Y-96.012
X188.976Y-97.282
T2
X98.552Y-115.57
X98.552Y-123.19
X101.092Y-115.57
X101.092Y-123.19
X103.632Y-115.57
X103.632Y-123.19
X106.172Y-115.57
X106.172Y-123.19
X108.712Y-115.57
X108.712Y-123.19
X111.252Y-115.57
X111.252Y-123.19
X113.792Y-115.57
X113.792Y-123.19
X116.332Y-115.57
X116.332Y-123.19
X118.542Y-92.98
X118.542Y-97.98
X118.872Y-115.57
X118.872Y-123.19
X121.412Y-115.57
X121.412Y-123.19
X123.342Y-66.446
X123.342Y-68.986
X123.342Y-71.526
X123.342Y-74.066
X123.444Y-78.867
X123.444Y-81.407
X123.444Y-83.947
X123.444Y-86.487
X123.444Y-89.027
X123.444Y-91.567
X123.444Y-94.107
X123.444Y-96.647
X123.444Y-99.187
X130.962Y-66.446
X130.962Y-68.986
X130.962Y-71.526
X130.962Y-74.066
X131.064Y-78.867
X131.064Y-81.407
X131.064Y-83.947
X131.064Y-86.487
X131.064Y-89.027
X131.064Y-91.567
X131.064Y-94.107
X131.064Y-96.647
X131.064Y-99.187
X133.096Y-115.396
X133.096Y-120.396
X138.684Y-73.66
X138.684Y-76.2
X138.684Y-78.74
X138.684Y-81.28
X138.684Y-83.82
X138.684Y-86.36
X138.684Y-88.9
X138.684Y-91.44
X138.684Y-93.98
X138.684Y-96.52
X138.684Y-99.06
X138.684Y-101.6
X138.684Y-104.14
X138.684Y-106.68
X138.684Y-109.22
X138.684Y-111.76
X138.684Y-114.3
X138.684Y-116.84
X138.684Y-119.38
X138.684Y-121.92
X153.924Y-73.66
X153.924Y-76.2
X153.924Y-78.74
X153.924Y-81.28
X153.924Y-83.82
X153.924Y-86.36
X153.924Y-88.9
X153.924Y-91.44
X153.924Y-93.98
X153.924Y-96.52
X153.924Y-99.06
X153.924Y-101.6
X153.924Y-104.14
X153.924Y-106.68
X153.924Y-109.22
X153.924Y-111.76
X153.924Y-114.3
X153.924Y-116.84
X153.924Y-119.38
X153.924Y-121.92
X159.258Y-59.69
X159.258Y-67.31
X161.798Y-59.69
X161.798Y-67.31
X164.338Y-59.69
X164.338Y-67.31
X166.878Y-59.69
X166.878Y-67.31
X167.132Y-109.22
X167.132Y-116.84
X169.418Y-59.69
X169.418Y-67.31
X169.672Y-109.22
X169.672Y-116.84
X171.298Y-73.609
X171.298Y-76.149
X171.298Y-78.689
X171.298Y-81.229
X171.298Y-83.769
X171.298Y-86.309
X171.298Y-88.849
X171.298Y-91.389
X171.298Y-93.929
X171.298Y-96.469
X171.958Y-59.69
X171.958Y-67.31
X172.212Y-109.22
X172.212Y-116.84
X174.498Y-59.69
X174.498Y-67.31
X174.752Y-109.22
X174.752Y-116.84
X177.038Y-59.69
X177.038Y-67.31
X177.292Y-109.22
X177.292Y-116.84
X178.918Y-73.609
X178.918Y-76.149
X178.918Y-78.689
X178.918Y-81.229
X178.918Y-83.769
X178.918Y-86.309
X178.918Y-88.849
X178.918Y-91.389
X178.918Y-93.929
X178.918Y-96.469
X179.578Y-59.69
X179.578Y-67.31
X179.832Y-109.22
X179.832Y-116.84
X182.118Y-59.69
X182.118Y-67.31
X182.372Y-109.22
X182.372Y-116.84
X182.88Y-71.12
X182.88Y-73.66
X182.88Y-76.2
X182.88Y-78.74
X182.88Y-81.28
X182.88Y-83.82
X182.88Y-86.36
X182.88Y-88.9
X182.88Y-91.44
X182.88Y-93.98
X182.88Y-96.52
X182.88Y-99.06
X182.88Y-101.6
X182.88Y-104.14
X184.912Y-109.22
X184.912Y-116.84
X187.452Y-109.22
X187.452Y-116.84
X189.992Y-109.22
X189.992Y-116.84
X190.5Y-71.12
X190.5Y-73.66
X190.5Y-76.2
X190.5Y-78.74
X190.5Y-81.28
X190.5Y-83.82
X190.5Y-86.36
X190.5Y-88.9
X190.5Y-91.44
X190.5Y-93.98
X190.5Y-96.52
X190.5Y-99.06
X190.5Y-101.6
X190.5Y-104.14
T3
X115.532Y-78.562
X115.595Y-85.776
X118.072Y-78.562
X118.135Y-85.776
X139.192Y-66.294
X139.192Y-68.834
T4
X103.988Y-54.54
X103.988Y-56.54
X106.488Y-54.54
X106.488Y-56.54
T5
X98.95Y-92.451
X98.95Y-95.221
X98.95Y-97.991
X98.95Y-100.761
X101.79Y-91.066
X101.79Y-93.836
X101.79Y-96.606
X101.79Y-99.376
X101.79Y-102.146
X106.68Y-129.794
X109.22Y-129.794
X111.76Y-129.794
X114.3Y-129.794
X118.669Y-60.782
X118.669Y-63.322
X123.952Y-129.794
X129.794Y-129.794
X130.15Y-47.65
X130.15Y-50.19
X130.15Y-52.73
X130.15Y-55.27
X132.334Y-129.794
X132.69Y-47.65
X132.69Y-50.19
X132.69Y-52.73
X132.69Y-55.27
X134.874Y-129.794
X139.7Y-51.054
X139.7Y-53.594
X139.7Y-56.134
X141.173Y-127.305
X141.173Y-129.845
X143.713Y-127.305
X143.713Y-129.845
X146.253Y-127.305
X146.253Y-129.845
X148.793Y-127.305
X148.793Y-129.845
X151.333Y-127.305
X151.333Y-129.845
X157.048Y-129.642
X159.588Y-129.642
X162.128Y-129.642
X164.668Y-129.642
X167.208Y-129.642
X169.377Y-47.655
X169.748Y-129.642
X171.917Y-47.655
X172.288Y-129.642
X174.457Y-47.655
X174.828Y-129.642
X176.997Y-47.655
X177.368Y-129.642
X182.245Y-129.692
X184.785Y-129.692
X187.325Y-129.692
T6
X147.574Y-59.893
X147.574Y-64.393
X154.074Y-59.893
X154.074Y-64.393
T7
X118.607Y-50.739
X123.607Y-50.739
T8
X99.218Y-51.83
X111.258Y-51.83
T9
X101.49Y-84.106
X101.49Y-109.106
T5
X148.589Y-49.848G85X148.589Y-51.848
G05
X154.289Y-47.848G85X152.289Y-47.848
G05
X154.289Y-53.848G85X152.289Y-53.848
G05
T0
M30
