G04 #@! TF.FileFunction,Legend,Top*
%FSLAX46Y46*%
G04 Gerber Fmt 4.6, Leading zero omitted, Abs format (unit mm)*
G04 Created by KiCad (PCBNEW 4.0.7) date 11/18/19 12:54:55*
%MOMM*%
%LPD*%
G01*
G04 APERTURE LIST*
%ADD10C,0.100000*%
%ADD11C,0.300000*%
%ADD12C,0.400000*%
%ADD13C,0.200000*%
%ADD14C,0.150000*%
%ADD15C,0.250000*%
%ADD16C,0.260000*%
%ADD17C,0.120000*%
%ADD18C,0.010000*%
G04 APERTURE END LIST*
D10*
X162656781Y-127585695D02*
X161656781Y-127585695D01*
X161656781Y-127347600D01*
X161704400Y-127204742D01*
X161799638Y-127109504D01*
X161894876Y-127061885D01*
X162085352Y-127014266D01*
X162228210Y-127014266D01*
X162418686Y-127061885D01*
X162513924Y-127109504D01*
X162609162Y-127204742D01*
X162656781Y-127347600D01*
X162656781Y-127585695D01*
X161656781Y-126157123D02*
X161656781Y-126347600D01*
X161704400Y-126442838D01*
X161752019Y-126490457D01*
X161894876Y-126585695D01*
X162085352Y-126633314D01*
X162466305Y-126633314D01*
X162561543Y-126585695D01*
X162609162Y-126538076D01*
X162656781Y-126442838D01*
X162656781Y-126252361D01*
X162609162Y-126157123D01*
X162561543Y-126109504D01*
X162466305Y-126061885D01*
X162228210Y-126061885D01*
X162132971Y-126109504D01*
X162085352Y-126157123D01*
X162037733Y-126252361D01*
X162037733Y-126442838D01*
X162085352Y-126538076D01*
X162132971Y-126585695D01*
X162228210Y-126633314D01*
X165095181Y-127585695D02*
X164095181Y-127585695D01*
X164095181Y-127347600D01*
X164142800Y-127204742D01*
X164238038Y-127109504D01*
X164333276Y-127061885D01*
X164523752Y-127014266D01*
X164666610Y-127014266D01*
X164857086Y-127061885D01*
X164952324Y-127109504D01*
X165047562Y-127204742D01*
X165095181Y-127347600D01*
X165095181Y-127585695D01*
X164095181Y-126109504D02*
X164095181Y-126585695D01*
X164571371Y-126633314D01*
X164523752Y-126585695D01*
X164476133Y-126490457D01*
X164476133Y-126252361D01*
X164523752Y-126157123D01*
X164571371Y-126109504D01*
X164666610Y-126061885D01*
X164904705Y-126061885D01*
X164999943Y-126109504D01*
X165047562Y-126157123D01*
X165095181Y-126252361D01*
X165095181Y-126490457D01*
X165047562Y-126585695D01*
X164999943Y-126633314D01*
X167685981Y-127585695D02*
X166685981Y-127585695D01*
X166685981Y-127347600D01*
X166733600Y-127204742D01*
X166828838Y-127109504D01*
X166924076Y-127061885D01*
X167114552Y-127014266D01*
X167257410Y-127014266D01*
X167447886Y-127061885D01*
X167543124Y-127109504D01*
X167638362Y-127204742D01*
X167685981Y-127347600D01*
X167685981Y-127585695D01*
X167019314Y-126157123D02*
X167685981Y-126157123D01*
X166638362Y-126395219D02*
X167352648Y-126633314D01*
X167352648Y-126014266D01*
X170327581Y-127738095D02*
X169327581Y-127738095D01*
X169327581Y-127500000D01*
X169375200Y-127357142D01*
X169470438Y-127261904D01*
X169565676Y-127214285D01*
X169756152Y-127166666D01*
X169899010Y-127166666D01*
X170089486Y-127214285D01*
X170184724Y-127261904D01*
X170279962Y-127357142D01*
X170327581Y-127500000D01*
X170327581Y-127738095D01*
X169327581Y-126833333D02*
X169327581Y-126214285D01*
X169708533Y-126547619D01*
X169708533Y-126404761D01*
X169756152Y-126309523D01*
X169803771Y-126261904D01*
X169899010Y-126214285D01*
X170137105Y-126214285D01*
X170232343Y-126261904D01*
X170279962Y-126309523D01*
X170327581Y-126404761D01*
X170327581Y-126690476D01*
X170279962Y-126785714D01*
X170232343Y-126833333D01*
X172740581Y-127738095D02*
X171740581Y-127738095D01*
X171740581Y-127500000D01*
X171788200Y-127357142D01*
X171883438Y-127261904D01*
X171978676Y-127214285D01*
X172169152Y-127166666D01*
X172312010Y-127166666D01*
X172502486Y-127214285D01*
X172597724Y-127261904D01*
X172692962Y-127357142D01*
X172740581Y-127500000D01*
X172740581Y-127738095D01*
X171835819Y-126785714D02*
X171788200Y-126738095D01*
X171740581Y-126642857D01*
X171740581Y-126404761D01*
X171788200Y-126309523D01*
X171835819Y-126261904D01*
X171931057Y-126214285D01*
X172026295Y-126214285D01*
X172169152Y-126261904D01*
X172740581Y-126833333D01*
X172740581Y-126214285D01*
X175331381Y-127687295D02*
X174331381Y-127687295D01*
X174331381Y-127449200D01*
X174379000Y-127306342D01*
X174474238Y-127211104D01*
X174569476Y-127163485D01*
X174759952Y-127115866D01*
X174902810Y-127115866D01*
X175093286Y-127163485D01*
X175188524Y-127211104D01*
X175283762Y-127306342D01*
X175331381Y-127449200D01*
X175331381Y-127687295D01*
X175331381Y-126163485D02*
X175331381Y-126734914D01*
X175331381Y-126449200D02*
X174331381Y-126449200D01*
X174474238Y-126544438D01*
X174569476Y-126639676D01*
X174617095Y-126734914D01*
X156624400Y-127152304D02*
X156576781Y-127247542D01*
X156576781Y-127390399D01*
X156624400Y-127533257D01*
X156719638Y-127628495D01*
X156814876Y-127676114D01*
X157005352Y-127723733D01*
X157148210Y-127723733D01*
X157338686Y-127676114D01*
X157433924Y-127628495D01*
X157529162Y-127533257D01*
X157576781Y-127390399D01*
X157576781Y-127295161D01*
X157529162Y-127152304D01*
X157481543Y-127104685D01*
X157148210Y-127104685D01*
X157148210Y-127295161D01*
X157576781Y-126676114D02*
X156576781Y-126676114D01*
X157576781Y-126104685D01*
X156576781Y-126104685D01*
X157576781Y-125628495D02*
X156576781Y-125628495D01*
X156576781Y-125390400D01*
X156624400Y-125247542D01*
X156719638Y-125152304D01*
X156814876Y-125104685D01*
X157005352Y-125057066D01*
X157148210Y-125057066D01*
X157338686Y-125104685D01*
X157433924Y-125152304D01*
X157529162Y-125247542D01*
X157576781Y-125390400D01*
X157576781Y-125628495D01*
D11*
X162111571Y-79384256D02*
X163111571Y-79027113D01*
X162111571Y-78669971D01*
X163111571Y-77312828D02*
X163111571Y-78169971D01*
X163111571Y-77741399D02*
X161611571Y-77741399D01*
X161825857Y-77884256D01*
X161968714Y-78027114D01*
X162040143Y-78169971D01*
X162968714Y-76669971D02*
X163040143Y-76598543D01*
X163111571Y-76669971D01*
X163040143Y-76741400D01*
X162968714Y-76669971D01*
X163111571Y-76669971D01*
X163111571Y-75169971D02*
X163111571Y-76027114D01*
X163111571Y-75598542D02*
X161611571Y-75598542D01*
X161825857Y-75741399D01*
X161968714Y-75884257D01*
X162040143Y-76027114D01*
D12*
X163360752Y-93706176D02*
X160860752Y-93706176D01*
X163360752Y-92277604D01*
X160860752Y-92277604D01*
X163360752Y-90729985D02*
X163241705Y-90968080D01*
X163122657Y-91087128D01*
X162884562Y-91206176D01*
X162170276Y-91206176D01*
X161932181Y-91087128D01*
X161813133Y-90968080D01*
X161694086Y-90729985D01*
X161694086Y-90372842D01*
X161813133Y-90134747D01*
X161932181Y-90015699D01*
X162170276Y-89896652D01*
X162884562Y-89896652D01*
X163122657Y-90015699D01*
X163241705Y-90134747D01*
X163360752Y-90372842D01*
X163360752Y-90729985D01*
X163360752Y-87753794D02*
X160860752Y-87753794D01*
X163241705Y-87753794D02*
X163360752Y-87991890D01*
X163360752Y-88468080D01*
X163241705Y-88706175D01*
X163122657Y-88825223D01*
X162884562Y-88944271D01*
X162170276Y-88944271D01*
X161932181Y-88825223D01*
X161813133Y-88706175D01*
X161694086Y-88468080D01*
X161694086Y-87991890D01*
X161813133Y-87753794D01*
X163241705Y-85610937D02*
X163360752Y-85849032D01*
X163360752Y-86325223D01*
X163241705Y-86563318D01*
X163003610Y-86682366D01*
X162051229Y-86682366D01*
X161813133Y-86563318D01*
X161694086Y-86325223D01*
X161694086Y-85849032D01*
X161813133Y-85610937D01*
X162051229Y-85491889D01*
X162289324Y-85491889D01*
X162527419Y-86682366D01*
X163360752Y-81206175D02*
X163360752Y-82634747D01*
X163360752Y-81920461D02*
X160860752Y-81920461D01*
X161217895Y-82158556D01*
X161455990Y-82396651D01*
X161575038Y-82634747D01*
D13*
X117951381Y-58332643D02*
X117903762Y-58380262D01*
X117760905Y-58427881D01*
X117665667Y-58427881D01*
X117522809Y-58380262D01*
X117427571Y-58285024D01*
X117379952Y-58189786D01*
X117332333Y-57999310D01*
X117332333Y-57856452D01*
X117379952Y-57665976D01*
X117427571Y-57570738D01*
X117522809Y-57475500D01*
X117665667Y-57427881D01*
X117760905Y-57427881D01*
X117903762Y-57475500D01*
X117951381Y-57523119D01*
X118332333Y-58142167D02*
X118808524Y-58142167D01*
X118237095Y-58427881D02*
X118570428Y-57427881D01*
X118903762Y-58427881D01*
X119237095Y-58427881D02*
X119237095Y-57427881D01*
X119808524Y-58427881D01*
X119808524Y-57427881D01*
X120760905Y-58427881D02*
X120284714Y-58427881D01*
X120284714Y-57427881D01*
X122912334Y-58459643D02*
X122864715Y-58507262D01*
X122721858Y-58554881D01*
X122626620Y-58554881D01*
X122483762Y-58507262D01*
X122388524Y-58412024D01*
X122340905Y-58316786D01*
X122293286Y-58126310D01*
X122293286Y-57983452D01*
X122340905Y-57792976D01*
X122388524Y-57697738D01*
X122483762Y-57602500D01*
X122626620Y-57554881D01*
X122721858Y-57554881D01*
X122864715Y-57602500D01*
X122912334Y-57650119D01*
X123293286Y-58269167D02*
X123769477Y-58269167D01*
X123198048Y-58554881D02*
X123531381Y-57554881D01*
X123864715Y-58554881D01*
X124198048Y-58554881D02*
X124198048Y-57554881D01*
X124769477Y-58554881D01*
X124769477Y-57554881D01*
X125245667Y-58554881D02*
X125245667Y-57554881D01*
X125245667Y-58031071D02*
X125817096Y-58031071D01*
X125817096Y-58554881D02*
X125817096Y-57554881D01*
X143644881Y-53538166D02*
X143644881Y-54014357D01*
X142644881Y-54014357D01*
X143644881Y-53204833D02*
X142644881Y-53204833D01*
X143359167Y-52871499D01*
X142644881Y-52538166D01*
X143644881Y-52538166D01*
X142644881Y-52157214D02*
X142644881Y-51490547D01*
X143644881Y-51919119D01*
X143073452Y-50966738D02*
X143025833Y-51061976D01*
X142978214Y-51109595D01*
X142882976Y-51157214D01*
X142835357Y-51157214D01*
X142740119Y-51109595D01*
X142692500Y-51061976D01*
X142644881Y-50966738D01*
X142644881Y-50776261D01*
X142692500Y-50681023D01*
X142740119Y-50633404D01*
X142835357Y-50585785D01*
X142882976Y-50585785D01*
X142978214Y-50633404D01*
X143025833Y-50681023D01*
X143073452Y-50776261D01*
X143073452Y-50966738D01*
X143121071Y-51061976D01*
X143168690Y-51109595D01*
X143263929Y-51157214D01*
X143454405Y-51157214D01*
X143549643Y-51109595D01*
X143597262Y-51061976D01*
X143644881Y-50966738D01*
X143644881Y-50776261D01*
X143597262Y-50681023D01*
X143549643Y-50633404D01*
X143454405Y-50585785D01*
X143263929Y-50585785D01*
X143168690Y-50633404D01*
X143121071Y-50681023D01*
X143073452Y-50776261D01*
X142644881Y-49966738D02*
X142644881Y-49871499D01*
X142692500Y-49776261D01*
X142740119Y-49728642D01*
X142835357Y-49681023D01*
X143025833Y-49633404D01*
X143263929Y-49633404D01*
X143454405Y-49681023D01*
X143549643Y-49728642D01*
X143597262Y-49776261D01*
X143644881Y-49871499D01*
X143644881Y-49966738D01*
X143597262Y-50061976D01*
X143549643Y-50109595D01*
X143454405Y-50157214D01*
X143263929Y-50204833D01*
X143025833Y-50204833D01*
X142835357Y-50157214D01*
X142740119Y-50109595D01*
X142692500Y-50061976D01*
X142644881Y-49966738D01*
X142644881Y-48728642D02*
X142644881Y-49204833D01*
X143121071Y-49252452D01*
X143073452Y-49204833D01*
X143025833Y-49109595D01*
X143025833Y-48871499D01*
X143073452Y-48776261D01*
X143121071Y-48728642D01*
X143216310Y-48681023D01*
X143454405Y-48681023D01*
X143549643Y-48728642D01*
X143597262Y-48776261D01*
X143644881Y-48871499D01*
X143644881Y-49109595D01*
X143597262Y-49204833D01*
X143549643Y-49252452D01*
D14*
X104019357Y-70421286D02*
X104019357Y-70687953D01*
X104438405Y-70687953D02*
X103638405Y-70687953D01*
X103638405Y-70307000D01*
X103638405Y-70116525D02*
X103638405Y-69659382D01*
X104438405Y-69887953D02*
X103638405Y-69887953D01*
X103714595Y-69430810D02*
X103676500Y-69392715D01*
X103638405Y-69316524D01*
X103638405Y-69126048D01*
X103676500Y-69049858D01*
X103714595Y-69011762D01*
X103790786Y-68973667D01*
X103866976Y-68973667D01*
X103981262Y-69011762D01*
X104438405Y-69468905D01*
X104438405Y-68973667D01*
X103638405Y-68707000D02*
X103638405Y-68211762D01*
X103943167Y-68478429D01*
X103943167Y-68364143D01*
X103981262Y-68287953D01*
X104019357Y-68249857D01*
X104095548Y-68211762D01*
X104286024Y-68211762D01*
X104362214Y-68249857D01*
X104400310Y-68287953D01*
X104438405Y-68364143D01*
X104438405Y-68592715D01*
X104400310Y-68668905D01*
X104362214Y-68707000D01*
X103638405Y-67716524D02*
X103638405Y-67640333D01*
X103676500Y-67564143D01*
X103714595Y-67526048D01*
X103790786Y-67487952D01*
X103943167Y-67449857D01*
X104133643Y-67449857D01*
X104286024Y-67487952D01*
X104362214Y-67526048D01*
X104400310Y-67564143D01*
X104438405Y-67640333D01*
X104438405Y-67716524D01*
X104400310Y-67792714D01*
X104362214Y-67830810D01*
X104286024Y-67868905D01*
X104133643Y-67907000D01*
X103943167Y-67907000D01*
X103790786Y-67868905D01*
X103714595Y-67830810D01*
X103676500Y-67792714D01*
X103638405Y-67716524D01*
X103638405Y-67183190D02*
X104438405Y-66649857D01*
X103638405Y-66649857D02*
X104438405Y-67183190D01*
D15*
X112775886Y-104529000D02*
X112661600Y-104471857D01*
X112490171Y-104471857D01*
X112318743Y-104529000D01*
X112204457Y-104643286D01*
X112147314Y-104757571D01*
X112090171Y-104986143D01*
X112090171Y-105157571D01*
X112147314Y-105386143D01*
X112204457Y-105500429D01*
X112318743Y-105614714D01*
X112490171Y-105671857D01*
X112604457Y-105671857D01*
X112775886Y-105614714D01*
X112833029Y-105557571D01*
X112833029Y-105157571D01*
X112604457Y-105157571D01*
X113347314Y-105671857D02*
X113347314Y-104871857D01*
X113347314Y-105100429D02*
X113404457Y-104986143D01*
X113461600Y-104929000D01*
X113575886Y-104871857D01*
X113690171Y-104871857D01*
X114090171Y-105557571D02*
X114147314Y-105614714D01*
X114090171Y-105671857D01*
X114033028Y-105614714D01*
X114090171Y-105557571D01*
X114090171Y-105671857D01*
X116204458Y-105671857D02*
X115518743Y-105671857D01*
X115861601Y-105671857D02*
X115861601Y-104471857D01*
X115747315Y-104643286D01*
X115633029Y-104757571D01*
X115518743Y-104814714D01*
X116947315Y-104471857D02*
X117061600Y-104471857D01*
X117175886Y-104529000D01*
X117233029Y-104586143D01*
X117290172Y-104700429D01*
X117347315Y-104929000D01*
X117347315Y-105214714D01*
X117290172Y-105443286D01*
X117233029Y-105557571D01*
X117175886Y-105614714D01*
X117061600Y-105671857D01*
X116947315Y-105671857D01*
X116833029Y-105614714D01*
X116775886Y-105557571D01*
X116718743Y-105443286D01*
X116661600Y-105214714D01*
X116661600Y-104929000D01*
X116718743Y-104700429D01*
X116775886Y-104586143D01*
X116833029Y-104529000D01*
X116947315Y-104471857D01*
X112147314Y-107721857D02*
X112147314Y-106521857D01*
X112833029Y-107721857D02*
X112318743Y-107036143D01*
X112833029Y-106521857D02*
X112147314Y-107207571D01*
X113347314Y-107721857D02*
X113347314Y-106921857D01*
X113347314Y-107150429D02*
X113404457Y-107036143D01*
X113461600Y-106979000D01*
X113575886Y-106921857D01*
X113690171Y-106921857D01*
X114090171Y-107721857D02*
X114090171Y-106921857D01*
X114090171Y-106521857D02*
X114033028Y-106579000D01*
X114090171Y-106636143D01*
X114147314Y-106579000D01*
X114090171Y-106521857D01*
X114090171Y-106636143D01*
X114604457Y-107664714D02*
X114718743Y-107721857D01*
X114947315Y-107721857D01*
X115061600Y-107664714D01*
X115118743Y-107550429D01*
X115118743Y-107493286D01*
X115061600Y-107379000D01*
X114947315Y-107321857D01*
X114775886Y-107321857D01*
X114661600Y-107264714D01*
X114604457Y-107150429D01*
X114604457Y-107093286D01*
X114661600Y-106979000D01*
X114775886Y-106921857D01*
X114947315Y-106921857D01*
X115061600Y-106979000D01*
X115461601Y-106921857D02*
X115918744Y-106921857D01*
X115633029Y-106521857D02*
X115633029Y-107550429D01*
X115690172Y-107664714D01*
X115804458Y-107721857D01*
X115918744Y-107721857D01*
X116318743Y-107721857D02*
X116318743Y-106921857D01*
X116318743Y-106521857D02*
X116261600Y-106579000D01*
X116318743Y-106636143D01*
X116375886Y-106579000D01*
X116318743Y-106521857D01*
X116318743Y-106636143D01*
X117404458Y-107721857D02*
X117404458Y-107093286D01*
X117347315Y-106979000D01*
X117233029Y-106921857D01*
X117004458Y-106921857D01*
X116890172Y-106979000D01*
X117404458Y-107664714D02*
X117290172Y-107721857D01*
X117004458Y-107721857D01*
X116890172Y-107664714D01*
X116833029Y-107550429D01*
X116833029Y-107436143D01*
X116890172Y-107321857D01*
X117004458Y-107264714D01*
X117290172Y-107264714D01*
X117404458Y-107207571D01*
X117975886Y-106921857D02*
X117975886Y-107721857D01*
X117975886Y-107036143D02*
X118033029Y-106979000D01*
X118147315Y-106921857D01*
X118318743Y-106921857D01*
X118433029Y-106979000D01*
X118490172Y-107093286D01*
X118490172Y-107721857D01*
X120375886Y-107093286D02*
X120547315Y-107150429D01*
X120604458Y-107207571D01*
X120661601Y-107321857D01*
X120661601Y-107493286D01*
X120604458Y-107607571D01*
X120547315Y-107664714D01*
X120433029Y-107721857D01*
X119975886Y-107721857D01*
X119975886Y-106521857D01*
X120375886Y-106521857D01*
X120490172Y-106579000D01*
X120547315Y-106636143D01*
X120604458Y-106750429D01*
X120604458Y-106864714D01*
X120547315Y-106979000D01*
X120490172Y-107036143D01*
X120375886Y-107093286D01*
X119975886Y-107093286D01*
X121175886Y-107721857D02*
X121175886Y-106921857D01*
X121175886Y-107150429D02*
X121233029Y-107036143D01*
X121290172Y-106979000D01*
X121404458Y-106921857D01*
X121518743Y-106921857D01*
X122433029Y-106921857D02*
X122433029Y-107721857D01*
X121918743Y-106921857D02*
X121918743Y-107550429D01*
X121975886Y-107664714D01*
X122090172Y-107721857D01*
X122261600Y-107721857D01*
X122375886Y-107664714D01*
X122433029Y-107607571D01*
X123518743Y-107721857D02*
X123518743Y-106521857D01*
X123518743Y-107664714D02*
X123404457Y-107721857D01*
X123175886Y-107721857D01*
X123061600Y-107664714D01*
X123004457Y-107607571D01*
X122947314Y-107493286D01*
X122947314Y-107150429D01*
X123004457Y-107036143D01*
X123061600Y-106979000D01*
X123175886Y-106921857D01*
X123404457Y-106921857D01*
X123518743Y-106979000D01*
X124547314Y-107664714D02*
X124433028Y-107721857D01*
X124204457Y-107721857D01*
X124090171Y-107664714D01*
X124033028Y-107550429D01*
X124033028Y-107093286D01*
X124090171Y-106979000D01*
X124204457Y-106921857D01*
X124433028Y-106921857D01*
X124547314Y-106979000D01*
X124604457Y-107093286D01*
X124604457Y-107207571D01*
X124033028Y-107321857D01*
X125290171Y-107721857D02*
X125175885Y-107664714D01*
X125118742Y-107550429D01*
X125118742Y-106521857D01*
X125747313Y-107721857D02*
X125747313Y-106921857D01*
X125747313Y-106521857D02*
X125690170Y-106579000D01*
X125747313Y-106636143D01*
X125804456Y-106579000D01*
X125747313Y-106521857D01*
X125747313Y-106636143D01*
X112147314Y-109771857D02*
X112147314Y-108571857D01*
X112547314Y-109429000D01*
X112947314Y-108571857D01*
X112947314Y-109771857D01*
X114033029Y-109771857D02*
X114033029Y-109143286D01*
X113975886Y-109029000D01*
X113861600Y-108971857D01*
X113633029Y-108971857D01*
X113518743Y-109029000D01*
X114033029Y-109714714D02*
X113918743Y-109771857D01*
X113633029Y-109771857D01*
X113518743Y-109714714D01*
X113461600Y-109600429D01*
X113461600Y-109486143D01*
X113518743Y-109371857D01*
X113633029Y-109314714D01*
X113918743Y-109314714D01*
X114033029Y-109257571D01*
X114604457Y-109771857D02*
X114604457Y-108971857D01*
X114604457Y-109200429D02*
X114661600Y-109086143D01*
X114718743Y-109029000D01*
X114833029Y-108971857D01*
X114947314Y-108971857D01*
X115175886Y-108971857D02*
X115633029Y-108971857D01*
X115347314Y-108571857D02*
X115347314Y-109600429D01*
X115404457Y-109714714D01*
X115518743Y-109771857D01*
X115633029Y-109771857D01*
X116033028Y-109771857D02*
X116033028Y-108971857D01*
X116033028Y-108571857D02*
X115975885Y-108629000D01*
X116033028Y-108686143D01*
X116090171Y-108629000D01*
X116033028Y-108571857D01*
X116033028Y-108686143D01*
X116604457Y-108971857D02*
X116604457Y-109771857D01*
X116604457Y-109086143D02*
X116661600Y-109029000D01*
X116775886Y-108971857D01*
X116947314Y-108971857D01*
X117061600Y-109029000D01*
X117118743Y-109143286D01*
X117118743Y-109771857D01*
X119004457Y-109143286D02*
X118604457Y-109143286D01*
X118604457Y-109771857D02*
X118604457Y-108571857D01*
X119175886Y-108571857D01*
X120147314Y-109771857D02*
X120147314Y-109143286D01*
X120090171Y-109029000D01*
X119975885Y-108971857D01*
X119747314Y-108971857D01*
X119633028Y-109029000D01*
X120147314Y-109714714D02*
X120033028Y-109771857D01*
X119747314Y-109771857D01*
X119633028Y-109714714D01*
X119575885Y-109600429D01*
X119575885Y-109486143D01*
X119633028Y-109371857D01*
X119747314Y-109314714D01*
X120033028Y-109314714D01*
X120147314Y-109257571D01*
X120890171Y-109771857D02*
X120775885Y-109714714D01*
X120718742Y-109600429D01*
X120718742Y-108571857D01*
X121861599Y-109771857D02*
X121861599Y-109143286D01*
X121804456Y-109029000D01*
X121690170Y-108971857D01*
X121461599Y-108971857D01*
X121347313Y-109029000D01*
X121861599Y-109714714D02*
X121747313Y-109771857D01*
X121461599Y-109771857D01*
X121347313Y-109714714D01*
X121290170Y-109600429D01*
X121290170Y-109486143D01*
X121347313Y-109371857D01*
X121461599Y-109314714D01*
X121747313Y-109314714D01*
X121861599Y-109257571D01*
X122433027Y-108971857D02*
X122433027Y-109771857D01*
X122433027Y-109086143D02*
X122490170Y-109029000D01*
X122604456Y-108971857D01*
X122775884Y-108971857D01*
X122890170Y-109029000D01*
X122947313Y-109143286D01*
X122947313Y-109771857D01*
X124033027Y-108971857D02*
X124033027Y-109943286D01*
X123975884Y-110057571D01*
X123918741Y-110114714D01*
X123804456Y-110171857D01*
X123633027Y-110171857D01*
X123518741Y-110114714D01*
X124033027Y-109714714D02*
X123918741Y-109771857D01*
X123690170Y-109771857D01*
X123575884Y-109714714D01*
X123518741Y-109657571D01*
X123461598Y-109543286D01*
X123461598Y-109200429D01*
X123518741Y-109086143D01*
X123575884Y-109029000D01*
X123690170Y-108971857D01*
X123918741Y-108971857D01*
X124033027Y-109029000D01*
X112147314Y-111193286D02*
X112547314Y-111193286D01*
X112718743Y-111821857D02*
X112147314Y-111821857D01*
X112147314Y-110621857D01*
X112718743Y-110621857D01*
X113233028Y-111821857D02*
X113233028Y-111021857D01*
X113233028Y-110621857D02*
X113175885Y-110679000D01*
X113233028Y-110736143D01*
X113290171Y-110679000D01*
X113233028Y-110621857D01*
X113233028Y-110736143D01*
X113804457Y-111821857D02*
X113804457Y-111021857D01*
X113804457Y-111250429D02*
X113861600Y-111136143D01*
X113918743Y-111079000D01*
X114033029Y-111021857D01*
X114147314Y-111021857D01*
X114547314Y-111821857D02*
X114547314Y-111021857D01*
X114547314Y-110621857D02*
X114490171Y-110679000D01*
X114547314Y-110736143D01*
X114604457Y-110679000D01*
X114547314Y-110621857D01*
X114547314Y-110736143D01*
X115118743Y-111821857D02*
X115118743Y-110621857D01*
X115233029Y-111364714D02*
X115575886Y-111821857D01*
X115575886Y-111021857D02*
X115118743Y-111479000D01*
X117404458Y-111193286D02*
X117004458Y-111193286D01*
X117004458Y-111821857D02*
X117004458Y-110621857D01*
X117575887Y-110621857D01*
X118547315Y-111821857D02*
X118547315Y-111193286D01*
X118490172Y-111079000D01*
X118375886Y-111021857D01*
X118147315Y-111021857D01*
X118033029Y-111079000D01*
X118547315Y-111764714D02*
X118433029Y-111821857D01*
X118147315Y-111821857D01*
X118033029Y-111764714D01*
X117975886Y-111650429D01*
X117975886Y-111536143D01*
X118033029Y-111421857D01*
X118147315Y-111364714D01*
X118433029Y-111364714D01*
X118547315Y-111307571D01*
X119290172Y-111821857D02*
X119175886Y-111764714D01*
X119118743Y-111650429D01*
X119118743Y-110621857D01*
X120261600Y-111764714D02*
X120147314Y-111821857D01*
X119918743Y-111821857D01*
X119804457Y-111764714D01*
X119747314Y-111707571D01*
X119690171Y-111593286D01*
X119690171Y-111250429D01*
X119747314Y-111136143D01*
X119804457Y-111079000D01*
X119918743Y-111021857D01*
X120147314Y-111021857D01*
X120261600Y-111079000D01*
X120775885Y-111821857D02*
X120775885Y-110621857D01*
X120890171Y-111364714D02*
X121233028Y-111821857D01*
X121233028Y-111021857D02*
X120775885Y-111479000D01*
X162003519Y-118149370D02*
X160903519Y-118149370D01*
X160903519Y-117887465D01*
X160955900Y-117730323D01*
X161060662Y-117625561D01*
X161165424Y-117573180D01*
X161374948Y-117520799D01*
X161532090Y-117520799D01*
X161741614Y-117573180D01*
X161846376Y-117625561D01*
X161951138Y-117730323D01*
X162003519Y-117887465D01*
X162003519Y-118149370D01*
X161951138Y-116630323D02*
X162003519Y-116735085D01*
X162003519Y-116944608D01*
X161951138Y-117049370D01*
X161846376Y-117101751D01*
X161427329Y-117101751D01*
X161322567Y-117049370D01*
X161270186Y-116944608D01*
X161270186Y-116735085D01*
X161322567Y-116630323D01*
X161427329Y-116577942D01*
X161532090Y-116577942D01*
X161636852Y-117101751D01*
X161951138Y-116158894D02*
X162003519Y-116054132D01*
X162003519Y-115844608D01*
X161951138Y-115739847D01*
X161846376Y-115687466D01*
X161793995Y-115687466D01*
X161689233Y-115739847D01*
X161636852Y-115844608D01*
X161636852Y-116001751D01*
X161584471Y-116106513D01*
X161479710Y-116158894D01*
X161427329Y-116158894D01*
X161322567Y-116106513D01*
X161270186Y-116001751D01*
X161270186Y-115844608D01*
X161322567Y-115739847D01*
X162003519Y-115216037D02*
X161270186Y-115216037D01*
X160903519Y-115216037D02*
X160955900Y-115268418D01*
X161008281Y-115216037D01*
X160955900Y-115163656D01*
X160903519Y-115216037D01*
X161008281Y-115216037D01*
X161270186Y-114220799D02*
X162160662Y-114220799D01*
X162265424Y-114273180D01*
X162317805Y-114325561D01*
X162370186Y-114430322D01*
X162370186Y-114587465D01*
X162317805Y-114692227D01*
X161951138Y-114220799D02*
X162003519Y-114325561D01*
X162003519Y-114535084D01*
X161951138Y-114639846D01*
X161898757Y-114692227D01*
X161793995Y-114744608D01*
X161479710Y-114744608D01*
X161374948Y-114692227D01*
X161322567Y-114639846D01*
X161270186Y-114535084D01*
X161270186Y-114325561D01*
X161322567Y-114220799D01*
X161270186Y-113696989D02*
X162003519Y-113696989D01*
X161374948Y-113696989D02*
X161322567Y-113644608D01*
X161270186Y-113539846D01*
X161270186Y-113382704D01*
X161322567Y-113277942D01*
X161427329Y-113225561D01*
X162003519Y-113225561D01*
X162003519Y-111863656D02*
X160903519Y-111863656D01*
X161322567Y-111863656D02*
X161270186Y-111758894D01*
X161270186Y-111549371D01*
X161322567Y-111444609D01*
X161374948Y-111392228D01*
X161479710Y-111339847D01*
X161793995Y-111339847D01*
X161898757Y-111392228D01*
X161951138Y-111444609D01*
X162003519Y-111549371D01*
X162003519Y-111758894D01*
X161951138Y-111863656D01*
X161270186Y-110973180D02*
X162003519Y-110711275D01*
X161270186Y-110449371D02*
X162003519Y-110711275D01*
X162265424Y-110816037D01*
X162317805Y-110868418D01*
X162370186Y-110973180D01*
X161898757Y-110030323D02*
X161951138Y-109977942D01*
X162003519Y-110030323D01*
X161951138Y-110082704D01*
X161898757Y-110030323D01*
X162003519Y-110030323D01*
X161322567Y-110030323D02*
X161374948Y-109977942D01*
X161427329Y-110030323D01*
X161374948Y-110082704D01*
X161322567Y-110030323D01*
X161427329Y-110030323D01*
X161427329Y-108668418D02*
X161427329Y-108301752D01*
X162003519Y-108144609D02*
X162003519Y-108668418D01*
X160903519Y-108668418D01*
X160903519Y-108144609D01*
X162003519Y-107673180D02*
X161270186Y-107673180D01*
X160903519Y-107673180D02*
X160955900Y-107725561D01*
X161008281Y-107673180D01*
X160955900Y-107620799D01*
X160903519Y-107673180D01*
X161008281Y-107673180D01*
X162003519Y-107149370D02*
X161270186Y-107149370D01*
X161479710Y-107149370D02*
X161374948Y-107096989D01*
X161322567Y-107044608D01*
X161270186Y-106939846D01*
X161270186Y-106835085D01*
X162003519Y-106468418D02*
X161270186Y-106468418D01*
X160903519Y-106468418D02*
X160955900Y-106520799D01*
X161008281Y-106468418D01*
X160955900Y-106416037D01*
X160903519Y-106468418D01*
X161008281Y-106468418D01*
X162003519Y-105944608D02*
X160903519Y-105944608D01*
X161584471Y-105839846D02*
X162003519Y-105525561D01*
X161270186Y-105525561D02*
X161689233Y-105944608D01*
X161427329Y-103849371D02*
X161427329Y-104216037D01*
X162003519Y-104216037D02*
X160903519Y-104216037D01*
X160903519Y-103692228D01*
X162003519Y-102801752D02*
X161427329Y-102801752D01*
X161322567Y-102854133D01*
X161270186Y-102958895D01*
X161270186Y-103168418D01*
X161322567Y-103273180D01*
X161951138Y-102801752D02*
X162003519Y-102906514D01*
X162003519Y-103168418D01*
X161951138Y-103273180D01*
X161846376Y-103325561D01*
X161741614Y-103325561D01*
X161636852Y-103273180D01*
X161584471Y-103168418D01*
X161584471Y-102906514D01*
X161532090Y-102801752D01*
X162003519Y-102120799D02*
X161951138Y-102225561D01*
X161846376Y-102277942D01*
X160903519Y-102277942D01*
X161951138Y-101230324D02*
X162003519Y-101335086D01*
X162003519Y-101544609D01*
X161951138Y-101649371D01*
X161898757Y-101701752D01*
X161793995Y-101754133D01*
X161479710Y-101754133D01*
X161374948Y-101701752D01*
X161322567Y-101649371D01*
X161270186Y-101544609D01*
X161270186Y-101335086D01*
X161322567Y-101230324D01*
X162003519Y-100758895D02*
X160903519Y-100758895D01*
X161584471Y-100654133D02*
X162003519Y-100339848D01*
X161270186Y-100339848D02*
X161689233Y-100758895D01*
D12*
X156809452Y-118623213D02*
X156809452Y-117194641D01*
X159309452Y-117908927D02*
X156809452Y-117908927D01*
X156809452Y-116718451D02*
X156809452Y-115289879D01*
X159309452Y-116004165D02*
X156809452Y-116004165D01*
X159309452Y-114456546D02*
X156809452Y-114456546D01*
X159309452Y-113027974D02*
X157880881Y-114099403D01*
X156809452Y-113027974D02*
X158238024Y-114456546D01*
X157642786Y-110885117D02*
X159309452Y-110885117D01*
X156690405Y-111480355D02*
X158476119Y-112075594D01*
X158476119Y-110527974D01*
X159309452Y-108266070D02*
X159309452Y-109694642D01*
X159309452Y-108980356D02*
X156809452Y-108980356D01*
X157166595Y-109218451D01*
X157404690Y-109456546D01*
X157523738Y-109694642D01*
X156809452Y-106004166D02*
X156809452Y-107194642D01*
X157999929Y-107313690D01*
X157880881Y-107194642D01*
X157761833Y-106956547D01*
X157761833Y-106361309D01*
X157880881Y-106123213D01*
X157999929Y-106004166D01*
X158238024Y-105885118D01*
X158833262Y-105885118D01*
X159071357Y-106004166D01*
X159190405Y-106123213D01*
X159309452Y-106361309D01*
X159309452Y-106956547D01*
X159190405Y-107194642D01*
X159071357Y-107313690D01*
X156809452Y-103623214D02*
X156809452Y-104813690D01*
X157999929Y-104932738D01*
X157880881Y-104813690D01*
X157761833Y-104575595D01*
X157761833Y-103980357D01*
X157880881Y-103742261D01*
X157999929Y-103623214D01*
X158238024Y-103504166D01*
X158833262Y-103504166D01*
X159071357Y-103623214D01*
X159190405Y-103742261D01*
X159309452Y-103980357D01*
X159309452Y-104575595D01*
X159190405Y-104813690D01*
X159071357Y-104932738D01*
X157999929Y-99694643D02*
X158118976Y-99337500D01*
X158238024Y-99218452D01*
X158476119Y-99099404D01*
X158833262Y-99099404D01*
X159071357Y-99218452D01*
X159190405Y-99337500D01*
X159309452Y-99575595D01*
X159309452Y-100527976D01*
X156809452Y-100527976D01*
X156809452Y-99694643D01*
X156928500Y-99456547D01*
X157047548Y-99337500D01*
X157285643Y-99218452D01*
X157523738Y-99218452D01*
X157761833Y-99337500D01*
X157880881Y-99456547D01*
X157999929Y-99694643D01*
X157999929Y-100527976D01*
X157642786Y-98266071D02*
X159309452Y-97670833D01*
X157642786Y-97075595D02*
X159309452Y-97670833D01*
X159904690Y-97908928D01*
X160023738Y-98027976D01*
X160142786Y-98266071D01*
X157642786Y-95051785D02*
X159666595Y-95051785D01*
X159904690Y-95170833D01*
X160023738Y-95289881D01*
X160142786Y-95527976D01*
X160142786Y-95885119D01*
X160023738Y-96123214D01*
X159190405Y-95051785D02*
X159309452Y-95289881D01*
X159309452Y-95766071D01*
X159190405Y-96004166D01*
X159071357Y-96123214D01*
X158833262Y-96242262D01*
X158118976Y-96242262D01*
X157880881Y-96123214D01*
X157761833Y-96004166D01*
X157642786Y-95766071D01*
X157642786Y-95289881D01*
X157761833Y-95051785D01*
X157642786Y-92789880D02*
X159666595Y-92789880D01*
X159904690Y-92908928D01*
X160023738Y-93027976D01*
X160142786Y-93266071D01*
X160142786Y-93623214D01*
X160023738Y-93861309D01*
X159190405Y-92789880D02*
X159309452Y-93027976D01*
X159309452Y-93504166D01*
X159190405Y-93742261D01*
X159071357Y-93861309D01*
X158833262Y-93980357D01*
X158118976Y-93980357D01*
X157880881Y-93861309D01*
X157761833Y-93742261D01*
X157642786Y-93504166D01*
X157642786Y-93027976D01*
X157761833Y-92789880D01*
X159190405Y-90647023D02*
X159309452Y-90885118D01*
X159309452Y-91361309D01*
X159190405Y-91599404D01*
X158952310Y-91718452D01*
X157999929Y-91718452D01*
X157761833Y-91599404D01*
X157642786Y-91361309D01*
X157642786Y-90885118D01*
X157761833Y-90647023D01*
X157999929Y-90527975D01*
X158238024Y-90527975D01*
X158476119Y-91718452D01*
X159309452Y-89456547D02*
X157642786Y-89456547D01*
X158118976Y-89456547D02*
X157880881Y-89337499D01*
X157761833Y-89218452D01*
X157642786Y-88980356D01*
X157642786Y-88742261D01*
X157642786Y-87908928D02*
X159309452Y-87908928D01*
X157880881Y-87908928D02*
X157761833Y-87789880D01*
X157642786Y-87551785D01*
X157642786Y-87194642D01*
X157761833Y-86956547D01*
X157999929Y-86837499D01*
X159309452Y-86837499D01*
X157047548Y-83861309D02*
X156928500Y-83742261D01*
X156809452Y-83504166D01*
X156809452Y-82908928D01*
X156928500Y-82670832D01*
X157047548Y-82551785D01*
X157285643Y-82432737D01*
X157523738Y-82432737D01*
X157880881Y-82551785D01*
X159309452Y-83980356D01*
X159309452Y-82432737D01*
X156809452Y-80885118D02*
X156809452Y-80647023D01*
X156928500Y-80408928D01*
X157047548Y-80289880D01*
X157285643Y-80170833D01*
X157761833Y-80051785D01*
X158357071Y-80051785D01*
X158833262Y-80170833D01*
X159071357Y-80289880D01*
X159190405Y-80408928D01*
X159309452Y-80647023D01*
X159309452Y-80885118D01*
X159190405Y-81123214D01*
X159071357Y-81242261D01*
X158833262Y-81361309D01*
X158357071Y-81480357D01*
X157761833Y-81480357D01*
X157285643Y-81361309D01*
X157047548Y-81242261D01*
X156928500Y-81123214D01*
X156809452Y-80885118D01*
X159309452Y-77670833D02*
X159309452Y-79099405D01*
X159309452Y-78385119D02*
X156809452Y-78385119D01*
X157166595Y-78623214D01*
X157404690Y-78861309D01*
X157523738Y-79099405D01*
X159309452Y-76480357D02*
X159309452Y-76004167D01*
X159190405Y-75766072D01*
X159071357Y-75647024D01*
X158714214Y-75408929D01*
X158238024Y-75289881D01*
X157285643Y-75289881D01*
X157047548Y-75408929D01*
X156928500Y-75527976D01*
X156809452Y-75766072D01*
X156809452Y-76242262D01*
X156928500Y-76480357D01*
X157047548Y-76599405D01*
X157285643Y-76718453D01*
X157880881Y-76718453D01*
X158118976Y-76599405D01*
X158238024Y-76480357D01*
X158357071Y-76242262D01*
X158357071Y-75766072D01*
X158238024Y-75527976D01*
X158118976Y-75408929D01*
X157880881Y-75289881D01*
D13*
X149383905Y-58364381D02*
X149050571Y-57888190D01*
X148812476Y-58364381D02*
X148812476Y-57364381D01*
X149193429Y-57364381D01*
X149288667Y-57412000D01*
X149336286Y-57459619D01*
X149383905Y-57554857D01*
X149383905Y-57697714D01*
X149336286Y-57792952D01*
X149288667Y-57840571D01*
X149193429Y-57888190D01*
X148812476Y-57888190D01*
X150193429Y-58316762D02*
X150098191Y-58364381D01*
X149907714Y-58364381D01*
X149812476Y-58316762D01*
X149764857Y-58221524D01*
X149764857Y-57840571D01*
X149812476Y-57745333D01*
X149907714Y-57697714D01*
X150098191Y-57697714D01*
X150193429Y-57745333D01*
X150241048Y-57840571D01*
X150241048Y-57935810D01*
X149764857Y-58031048D01*
X150622000Y-58316762D02*
X150717238Y-58364381D01*
X150907714Y-58364381D01*
X151002953Y-58316762D01*
X151050572Y-58221524D01*
X151050572Y-58173905D01*
X151002953Y-58078667D01*
X150907714Y-58031048D01*
X150764857Y-58031048D01*
X150669619Y-57983429D01*
X150622000Y-57888190D01*
X150622000Y-57840571D01*
X150669619Y-57745333D01*
X150764857Y-57697714D01*
X150907714Y-57697714D01*
X151002953Y-57745333D01*
X151860096Y-58316762D02*
X151764858Y-58364381D01*
X151574381Y-58364381D01*
X151479143Y-58316762D01*
X151431524Y-58221524D01*
X151431524Y-57840571D01*
X151479143Y-57745333D01*
X151574381Y-57697714D01*
X151764858Y-57697714D01*
X151860096Y-57745333D01*
X151907715Y-57840571D01*
X151907715Y-57935810D01*
X151431524Y-58031048D01*
X152193429Y-57697714D02*
X152574381Y-57697714D01*
X152336286Y-57364381D02*
X152336286Y-58221524D01*
X152383905Y-58316762D01*
X152479143Y-58364381D01*
X152574381Y-58364381D01*
D10*
X134658162Y-49168005D02*
X134201019Y-49168005D01*
X134429590Y-49168005D02*
X134429590Y-48368005D01*
X134353400Y-48482290D01*
X134277209Y-48558481D01*
X134201019Y-48596576D01*
X134962924Y-48444195D02*
X135001019Y-48406100D01*
X135077210Y-48368005D01*
X135267686Y-48368005D01*
X135343876Y-48406100D01*
X135381972Y-48444195D01*
X135420067Y-48520386D01*
X135420067Y-48596576D01*
X135381972Y-48710862D01*
X134924829Y-49168005D01*
X135420067Y-49168005D01*
X135648638Y-48368005D02*
X135915305Y-49168005D01*
X136181972Y-48368005D01*
X134708920Y-53613105D02*
X134327967Y-53613105D01*
X134289872Y-53994057D01*
X134327967Y-53955962D01*
X134404158Y-53917867D01*
X134594634Y-53917867D01*
X134670824Y-53955962D01*
X134708920Y-53994057D01*
X134747015Y-54070248D01*
X134747015Y-54260724D01*
X134708920Y-54336914D01*
X134670824Y-54375010D01*
X134594634Y-54413105D01*
X134404158Y-54413105D01*
X134327967Y-54375010D01*
X134289872Y-54336914D01*
X134975586Y-53613105D02*
X135242253Y-54413105D01*
X135508920Y-53613105D01*
X127654100Y-51993723D02*
X127616005Y-52069914D01*
X127616005Y-52184199D01*
X127654100Y-52298485D01*
X127730290Y-52374676D01*
X127806481Y-52412771D01*
X127958862Y-52450866D01*
X128073148Y-52450866D01*
X128225529Y-52412771D01*
X128301719Y-52374676D01*
X128377910Y-52298485D01*
X128416005Y-52184199D01*
X128416005Y-52108009D01*
X128377910Y-51993723D01*
X128339814Y-51955628D01*
X128073148Y-51955628D01*
X128073148Y-52108009D01*
X128416005Y-51612771D02*
X127616005Y-51612771D01*
X128416005Y-51155628D01*
X127616005Y-51155628D01*
X128416005Y-50774676D02*
X127616005Y-50774676D01*
X127616005Y-50584200D01*
X127654100Y-50469914D01*
X127730290Y-50393723D01*
X127806481Y-50355628D01*
X127958862Y-50317533D01*
X128073148Y-50317533D01*
X128225529Y-50355628D01*
X128301719Y-50393723D01*
X128377910Y-50469914D01*
X128416005Y-50584200D01*
X128416005Y-50774676D01*
D16*
X127715095Y-74821523D02*
X126415095Y-74821523D01*
X127343667Y-74388190D01*
X126415095Y-73954857D01*
X127715095Y-73954857D01*
X127591286Y-72592952D02*
X127653190Y-72654857D01*
X127715095Y-72840571D01*
X127715095Y-72964381D01*
X127653190Y-73150095D01*
X127529381Y-73273904D01*
X127405571Y-73335809D01*
X127157952Y-73397714D01*
X126972238Y-73397714D01*
X126724619Y-73335809D01*
X126600810Y-73273904D01*
X126477000Y-73150095D01*
X126415095Y-72964381D01*
X126415095Y-72840571D01*
X126477000Y-72654857D01*
X126538905Y-72592952D01*
X127715095Y-72035809D02*
X126415095Y-72035809D01*
X126415095Y-71540571D01*
X126477000Y-71416762D01*
X126538905Y-71354857D01*
X126662714Y-71292952D01*
X126848429Y-71292952D01*
X126972238Y-71354857D01*
X127034143Y-71416762D01*
X127096048Y-71540571D01*
X127096048Y-72035809D01*
X126538905Y-70797714D02*
X126477000Y-70735809D01*
X126415095Y-70612000D01*
X126415095Y-70302476D01*
X126477000Y-70178666D01*
X126538905Y-70116762D01*
X126662714Y-70054857D01*
X126786524Y-70054857D01*
X126972238Y-70116762D01*
X127715095Y-70859619D01*
X127715095Y-70054857D01*
X126415095Y-68878667D02*
X126415095Y-69497714D01*
X127034143Y-69559619D01*
X126972238Y-69497714D01*
X126910333Y-69373905D01*
X126910333Y-69064381D01*
X126972238Y-68940571D01*
X127034143Y-68878667D01*
X127157952Y-68816762D01*
X127467476Y-68816762D01*
X127591286Y-68878667D01*
X127653190Y-68940571D01*
X127715095Y-69064381D01*
X127715095Y-69373905D01*
X127653190Y-69497714D01*
X127591286Y-69559619D01*
X126415095Y-67640572D02*
X126415095Y-68259619D01*
X127034143Y-68321524D01*
X126972238Y-68259619D01*
X126910333Y-68135810D01*
X126910333Y-67826286D01*
X126972238Y-67702476D01*
X127034143Y-67640572D01*
X127157952Y-67578667D01*
X127467476Y-67578667D01*
X127591286Y-67640572D01*
X127653190Y-67702476D01*
X127715095Y-67826286D01*
X127715095Y-68135810D01*
X127653190Y-68259619D01*
X127591286Y-68321524D01*
X127715095Y-66340572D02*
X127715095Y-67083429D01*
X127715095Y-66712000D02*
X126415095Y-66712000D01*
X126600810Y-66835810D01*
X126724619Y-66959619D01*
X126786524Y-67083429D01*
D11*
X127742071Y-95230342D02*
X126242071Y-95230342D01*
X127313500Y-94730342D01*
X126242071Y-94230342D01*
X127742071Y-94230342D01*
X127599214Y-92658913D02*
X127670643Y-92730342D01*
X127742071Y-92944628D01*
X127742071Y-93087485D01*
X127670643Y-93301770D01*
X127527786Y-93444628D01*
X127384929Y-93516056D01*
X127099214Y-93587485D01*
X126884929Y-93587485D01*
X126599214Y-93516056D01*
X126456357Y-93444628D01*
X126313500Y-93301770D01*
X126242071Y-93087485D01*
X126242071Y-92944628D01*
X126313500Y-92730342D01*
X126384929Y-92658913D01*
X127742071Y-92016056D02*
X126242071Y-92016056D01*
X126242071Y-91444628D01*
X126313500Y-91301770D01*
X126384929Y-91230342D01*
X126527786Y-91158913D01*
X126742071Y-91158913D01*
X126884929Y-91230342D01*
X126956357Y-91301770D01*
X127027786Y-91444628D01*
X127027786Y-92016056D01*
X126384929Y-90587485D02*
X126313500Y-90516056D01*
X126242071Y-90373199D01*
X126242071Y-90016056D01*
X126313500Y-89873199D01*
X126384929Y-89801770D01*
X126527786Y-89730342D01*
X126670643Y-89730342D01*
X126884929Y-89801770D01*
X127742071Y-90658913D01*
X127742071Y-89730342D01*
X126242071Y-88373199D02*
X126242071Y-89087485D01*
X126956357Y-89158914D01*
X126884929Y-89087485D01*
X126813500Y-88944628D01*
X126813500Y-88587485D01*
X126884929Y-88444628D01*
X126956357Y-88373199D01*
X127099214Y-88301771D01*
X127456357Y-88301771D01*
X127599214Y-88373199D01*
X127670643Y-88444628D01*
X127742071Y-88587485D01*
X127742071Y-88944628D01*
X127670643Y-89087485D01*
X127599214Y-89158914D01*
X127742071Y-86873200D02*
X127742071Y-87730343D01*
X127742071Y-87301771D02*
X126242071Y-87301771D01*
X126456357Y-87444628D01*
X126599214Y-87587486D01*
X126670643Y-87730343D01*
X126242071Y-85516057D02*
X126242071Y-86230343D01*
X126956357Y-86301772D01*
X126884929Y-86230343D01*
X126813500Y-86087486D01*
X126813500Y-85730343D01*
X126884929Y-85587486D01*
X126956357Y-85516057D01*
X127099214Y-85444629D01*
X127456357Y-85444629D01*
X127599214Y-85516057D01*
X127670643Y-85587486D01*
X127742071Y-85730343D01*
X127742071Y-86087486D01*
X127670643Y-86230343D01*
X127599214Y-86301772D01*
X174740644Y-112343500D02*
X174597787Y-112272071D01*
X174383501Y-112272071D01*
X174169216Y-112343500D01*
X174026358Y-112486357D01*
X173954930Y-112629214D01*
X173883501Y-112914929D01*
X173883501Y-113129214D01*
X173954930Y-113414929D01*
X174026358Y-113557786D01*
X174169216Y-113700643D01*
X174383501Y-113772071D01*
X174526358Y-113772071D01*
X174740644Y-113700643D01*
X174812073Y-113629214D01*
X174812073Y-113129214D01*
X174526358Y-113129214D01*
X175383501Y-113343500D02*
X176097787Y-113343500D01*
X175240644Y-113772071D02*
X175740644Y-112272071D01*
X176240644Y-113772071D01*
X177454930Y-113772071D02*
X176740644Y-113772071D01*
X176740644Y-112272071D01*
X178740644Y-113772071D02*
X177883501Y-113772071D01*
X178312073Y-113772071D02*
X178312073Y-112272071D01*
X178169216Y-112486357D01*
X178026358Y-112629214D01*
X177883501Y-112700643D01*
X180026358Y-112272071D02*
X179740644Y-112272071D01*
X179597787Y-112343500D01*
X179526358Y-112414929D01*
X179383501Y-112629214D01*
X179312072Y-112914929D01*
X179312072Y-113486357D01*
X179383501Y-113629214D01*
X179454929Y-113700643D01*
X179597787Y-113772071D01*
X179883501Y-113772071D01*
X180026358Y-113700643D01*
X180097787Y-113629214D01*
X180169215Y-113486357D01*
X180169215Y-113129214D01*
X180097787Y-112986357D01*
X180026358Y-112914929D01*
X179883501Y-112843500D01*
X179597787Y-112843500D01*
X179454929Y-112914929D01*
X179383501Y-112986357D01*
X179312072Y-113129214D01*
X180597786Y-112272071D02*
X181097786Y-113772071D01*
X181597786Y-112272071D01*
X182312072Y-112914929D02*
X182169214Y-112843500D01*
X182097786Y-112772071D01*
X182026357Y-112629214D01*
X182026357Y-112557786D01*
X182097786Y-112414929D01*
X182169214Y-112343500D01*
X182312072Y-112272071D01*
X182597786Y-112272071D01*
X182740643Y-112343500D01*
X182812072Y-112414929D01*
X182883500Y-112557786D01*
X182883500Y-112629214D01*
X182812072Y-112772071D01*
X182740643Y-112843500D01*
X182597786Y-112914929D01*
X182312072Y-112914929D01*
X182169214Y-112986357D01*
X182097786Y-113057786D01*
X182026357Y-113200643D01*
X182026357Y-113486357D01*
X182097786Y-113629214D01*
X182169214Y-113700643D01*
X182312072Y-113772071D01*
X182597786Y-113772071D01*
X182740643Y-113700643D01*
X182812072Y-113629214D01*
X182883500Y-113486357D01*
X182883500Y-113200643D01*
X182812072Y-113057786D01*
X182740643Y-112986357D01*
X182597786Y-112914929D01*
X183526357Y-113772071D02*
X183526357Y-112272071D01*
X183883500Y-112272071D01*
X184097785Y-112343500D01*
X184240643Y-112486357D01*
X184312071Y-112629214D01*
X184383500Y-112914929D01*
X184383500Y-113129214D01*
X184312071Y-113414929D01*
X184240643Y-113557786D01*
X184097785Y-113700643D01*
X183883500Y-113772071D01*
X183526357Y-113772071D01*
X106363001Y-120312571D02*
X106363001Y-118812571D01*
X106863001Y-119884000D01*
X107363001Y-118812571D01*
X107363001Y-120312571D01*
X108005858Y-119884000D02*
X108720144Y-119884000D01*
X107863001Y-120312571D02*
X108363001Y-118812571D01*
X108863001Y-120312571D01*
X109220144Y-118812571D02*
X110220144Y-120312571D01*
X110220144Y-118812571D02*
X109220144Y-120312571D01*
X110720143Y-118955429D02*
X110791572Y-118884000D01*
X110934429Y-118812571D01*
X111291572Y-118812571D01*
X111434429Y-118884000D01*
X111505858Y-118955429D01*
X111577286Y-119098286D01*
X111577286Y-119241143D01*
X111505858Y-119455429D01*
X110648715Y-120312571D01*
X111577286Y-120312571D01*
X112077286Y-118812571D02*
X113005857Y-118812571D01*
X112505857Y-119384000D01*
X112720143Y-119384000D01*
X112863000Y-119455429D01*
X112934429Y-119526857D01*
X113005857Y-119669714D01*
X113005857Y-120026857D01*
X112934429Y-120169714D01*
X112863000Y-120241143D01*
X112720143Y-120312571D01*
X112291571Y-120312571D01*
X112148714Y-120241143D01*
X112077286Y-120169714D01*
X113505857Y-118812571D02*
X114434428Y-118812571D01*
X113934428Y-119384000D01*
X114148714Y-119384000D01*
X114291571Y-119455429D01*
X114363000Y-119526857D01*
X114434428Y-119669714D01*
X114434428Y-120026857D01*
X114363000Y-120169714D01*
X114291571Y-120241143D01*
X114148714Y-120312571D01*
X113720142Y-120312571D01*
X113577285Y-120241143D01*
X113505857Y-120169714D01*
X187424143Y-95621999D02*
X187495571Y-95407713D01*
X187495571Y-95050570D01*
X187424143Y-94907713D01*
X187352714Y-94836284D01*
X187209857Y-94764856D01*
X187067000Y-94764856D01*
X186924143Y-94836284D01*
X186852714Y-94907713D01*
X186781286Y-95050570D01*
X186709857Y-95336284D01*
X186638429Y-95479142D01*
X186567000Y-95550570D01*
X186424143Y-95621999D01*
X186281286Y-95621999D01*
X186138429Y-95550570D01*
X186067000Y-95479142D01*
X185995571Y-95336284D01*
X185995571Y-94979142D01*
X186067000Y-94764856D01*
X187495571Y-93264856D02*
X186781286Y-93764856D01*
X187495571Y-94121999D02*
X185995571Y-94121999D01*
X185995571Y-93550571D01*
X186067000Y-93407713D01*
X186138429Y-93336285D01*
X186281286Y-93264856D01*
X186495571Y-93264856D01*
X186638429Y-93336285D01*
X186709857Y-93407713D01*
X186781286Y-93550571D01*
X186781286Y-94121999D01*
X187067000Y-92693428D02*
X187067000Y-91979142D01*
X187495571Y-92836285D02*
X185995571Y-92336285D01*
X187495571Y-91836285D01*
X187495571Y-91336285D02*
X185995571Y-91336285D01*
X187067000Y-90836285D01*
X185995571Y-90336285D01*
X187495571Y-90336285D01*
X187495571Y-88479142D02*
X185995571Y-88479142D01*
X187495571Y-87764856D02*
X185995571Y-87764856D01*
X185995571Y-87407713D01*
X186067000Y-87193428D01*
X186209857Y-87050570D01*
X186352714Y-86979142D01*
X186638429Y-86907713D01*
X186852714Y-86907713D01*
X187138429Y-86979142D01*
X187281286Y-87050570D01*
X187424143Y-87193428D01*
X187495571Y-87407713D01*
X187495571Y-87764856D01*
X185995571Y-86479142D02*
X185995571Y-85621999D01*
X187495571Y-86050570D02*
X185995571Y-86050570D01*
X185995571Y-85264856D02*
X185995571Y-84264856D01*
X187495571Y-84907713D01*
X187495571Y-82907714D02*
X187495571Y-83764857D01*
X187495571Y-83336285D02*
X185995571Y-83336285D01*
X186209857Y-83479142D01*
X186352714Y-83622000D01*
X186424143Y-83764857D01*
X185995571Y-81622000D02*
X185995571Y-81907714D01*
X186067000Y-82050571D01*
X186138429Y-82122000D01*
X186352714Y-82264857D01*
X186638429Y-82336286D01*
X187209857Y-82336286D01*
X187352714Y-82264857D01*
X187424143Y-82193429D01*
X187495571Y-82050571D01*
X187495571Y-81764857D01*
X187424143Y-81622000D01*
X187352714Y-81550571D01*
X187209857Y-81479143D01*
X186852714Y-81479143D01*
X186709857Y-81550571D01*
X186638429Y-81622000D01*
X186567000Y-81764857D01*
X186567000Y-82050571D01*
X186638429Y-82193429D01*
X186709857Y-82264857D01*
X186852714Y-82336286D01*
X186495571Y-80193429D02*
X187495571Y-80193429D01*
X185924143Y-80550572D02*
X186995571Y-80907715D01*
X186995571Y-79979143D01*
X187424143Y-79479144D02*
X187495571Y-79264858D01*
X187495571Y-78907715D01*
X187424143Y-78764858D01*
X187352714Y-78693429D01*
X187209857Y-78622001D01*
X187067000Y-78622001D01*
X186924143Y-78693429D01*
X186852714Y-78764858D01*
X186781286Y-78907715D01*
X186709857Y-79193429D01*
X186638429Y-79336287D01*
X186567000Y-79407715D01*
X186424143Y-79479144D01*
X186281286Y-79479144D01*
X186138429Y-79407715D01*
X186067000Y-79336287D01*
X185995571Y-79193429D01*
X185995571Y-78836287D01*
X186067000Y-78622001D01*
X174692571Y-90335927D02*
X174692571Y-89335927D01*
X176192571Y-89978784D01*
X175192571Y-88121642D02*
X176192571Y-88121642D01*
X174621143Y-88478785D02*
X175692571Y-88835928D01*
X175692571Y-87907356D01*
X175764000Y-87407357D02*
X175764000Y-86693071D01*
X176192571Y-87550214D02*
X174692571Y-87050214D01*
X176192571Y-86550214D01*
X176192571Y-85335928D02*
X176192571Y-86050214D01*
X174692571Y-86050214D01*
X176121143Y-84907357D02*
X176192571Y-84693071D01*
X176192571Y-84335928D01*
X176121143Y-84193071D01*
X176049714Y-84121642D01*
X175906857Y-84050214D01*
X175764000Y-84050214D01*
X175621143Y-84121642D01*
X175549714Y-84193071D01*
X175478286Y-84335928D01*
X175406857Y-84621642D01*
X175335429Y-84764500D01*
X175264000Y-84835928D01*
X175121143Y-84907357D01*
X174978286Y-84907357D01*
X174835429Y-84835928D01*
X174764000Y-84764500D01*
X174692571Y-84621642D01*
X174692571Y-84264500D01*
X174764000Y-84050214D01*
X174692571Y-82693071D02*
X174692571Y-83407357D01*
X175406857Y-83478786D01*
X175335429Y-83407357D01*
X175264000Y-83264500D01*
X175264000Y-82907357D01*
X175335429Y-82764500D01*
X175406857Y-82693071D01*
X175549714Y-82621643D01*
X175906857Y-82621643D01*
X176049714Y-82693071D01*
X176121143Y-82764500D01*
X176192571Y-82907357D01*
X176192571Y-83264500D01*
X176121143Y-83407357D01*
X176049714Y-83478786D01*
X174692571Y-82121643D02*
X174692571Y-81121643D01*
X176192571Y-81764500D01*
X174692571Y-80693072D02*
X174692571Y-79764501D01*
X175264000Y-80264501D01*
X175264000Y-80050215D01*
X175335429Y-79907358D01*
X175406857Y-79835929D01*
X175549714Y-79764501D01*
X175906857Y-79764501D01*
X176049714Y-79835929D01*
X176121143Y-79907358D01*
X176192571Y-80050215D01*
X176192571Y-80478787D01*
X176121143Y-80621644D01*
X176049714Y-80693072D01*
X176049714Y-78264501D02*
X176121143Y-78335930D01*
X176192571Y-78550216D01*
X176192571Y-78693073D01*
X176121143Y-78907358D01*
X175978286Y-79050216D01*
X175835429Y-79121644D01*
X175549714Y-79193073D01*
X175335429Y-79193073D01*
X175049714Y-79121644D01*
X174906857Y-79050216D01*
X174764000Y-78907358D01*
X174692571Y-78693073D01*
X174692571Y-78550216D01*
X174764000Y-78335930D01*
X174835429Y-78264501D01*
X164450001Y-63750000D02*
X165164287Y-63750000D01*
X164307144Y-64178571D02*
X164807144Y-62678571D01*
X165307144Y-64178571D01*
X165807144Y-64178571D02*
X165807144Y-62678571D01*
X166164287Y-62678571D01*
X166378572Y-62750000D01*
X166521430Y-62892857D01*
X166592858Y-63035714D01*
X166664287Y-63321429D01*
X166664287Y-63535714D01*
X166592858Y-63821429D01*
X166521430Y-63964286D01*
X166378572Y-64107143D01*
X166164287Y-64178571D01*
X165807144Y-64178571D01*
X168164287Y-64035714D02*
X168092858Y-64107143D01*
X167878572Y-64178571D01*
X167735715Y-64178571D01*
X167521430Y-64107143D01*
X167378572Y-63964286D01*
X167307144Y-63821429D01*
X167235715Y-63535714D01*
X167235715Y-63321429D01*
X167307144Y-63035714D01*
X167378572Y-62892857D01*
X167521430Y-62750000D01*
X167735715Y-62678571D01*
X167878572Y-62678571D01*
X168092858Y-62750000D01*
X168164287Y-62821429D01*
X169092858Y-62678571D02*
X169235715Y-62678571D01*
X169378572Y-62750000D01*
X169450001Y-62821429D01*
X169521430Y-62964286D01*
X169592858Y-63250000D01*
X169592858Y-63607143D01*
X169521430Y-63892857D01*
X169450001Y-64035714D01*
X169378572Y-64107143D01*
X169235715Y-64178571D01*
X169092858Y-64178571D01*
X168950001Y-64107143D01*
X168878572Y-64035714D01*
X168807144Y-63892857D01*
X168735715Y-63607143D01*
X168735715Y-63250000D01*
X168807144Y-62964286D01*
X168878572Y-62821429D01*
X168950001Y-62750000D01*
X169092858Y-62678571D01*
X170450001Y-63321429D02*
X170307143Y-63250000D01*
X170235715Y-63178571D01*
X170164286Y-63035714D01*
X170164286Y-62964286D01*
X170235715Y-62821429D01*
X170307143Y-62750000D01*
X170450001Y-62678571D01*
X170735715Y-62678571D01*
X170878572Y-62750000D01*
X170950001Y-62821429D01*
X171021429Y-62964286D01*
X171021429Y-63035714D01*
X170950001Y-63178571D01*
X170878572Y-63250000D01*
X170735715Y-63321429D01*
X170450001Y-63321429D01*
X170307143Y-63392857D01*
X170235715Y-63464286D01*
X170164286Y-63607143D01*
X170164286Y-63892857D01*
X170235715Y-64035714D01*
X170307143Y-64107143D01*
X170450001Y-64178571D01*
X170735715Y-64178571D01*
X170878572Y-64107143D01*
X170950001Y-64035714D01*
X171021429Y-63892857D01*
X171021429Y-63607143D01*
X170950001Y-63464286D01*
X170878572Y-63392857D01*
X170735715Y-63321429D01*
X172307143Y-63178571D02*
X172307143Y-64178571D01*
X171950000Y-62607143D02*
X171592857Y-63678571D01*
X172521429Y-63678571D01*
X173735714Y-63178571D02*
X173735714Y-64178571D01*
X173378571Y-62607143D02*
X173021428Y-63678571D01*
X173950000Y-63678571D01*
X175378571Y-64035714D02*
X175307142Y-64107143D01*
X175092856Y-64178571D01*
X174949999Y-64178571D01*
X174735714Y-64107143D01*
X174592856Y-63964286D01*
X174521428Y-63821429D01*
X174449999Y-63535714D01*
X174449999Y-63321429D01*
X174521428Y-63035714D01*
X174592856Y-62892857D01*
X174735714Y-62750000D01*
X174949999Y-62678571D01*
X175092856Y-62678571D01*
X175307142Y-62750000D01*
X175378571Y-62821429D01*
X176878571Y-64035714D02*
X176807142Y-64107143D01*
X176592856Y-64178571D01*
X176449999Y-64178571D01*
X176235714Y-64107143D01*
X176092856Y-63964286D01*
X176021428Y-63821429D01*
X175949999Y-63535714D01*
X175949999Y-63321429D01*
X176021428Y-63035714D01*
X176092856Y-62892857D01*
X176235714Y-62750000D01*
X176449999Y-62678571D01*
X176592856Y-62678571D01*
X176807142Y-62750000D01*
X176878571Y-62821429D01*
X177521428Y-64178571D02*
X177521428Y-62678571D01*
X178378571Y-64178571D01*
X178378571Y-62678571D01*
X146427000Y-90145428D02*
X146427000Y-89431142D01*
X146855571Y-90288285D02*
X145355571Y-89788285D01*
X146855571Y-89288285D01*
X145355571Y-89002571D02*
X145355571Y-88145428D01*
X146855571Y-88573999D02*
X145355571Y-88573999D01*
X146855571Y-87645428D02*
X145855571Y-87645428D01*
X145998429Y-87645428D02*
X145927000Y-87574000D01*
X145855571Y-87431142D01*
X145855571Y-87216857D01*
X145927000Y-87074000D01*
X146069857Y-87002571D01*
X146855571Y-87002571D01*
X146069857Y-87002571D02*
X145927000Y-86931142D01*
X145855571Y-86788285D01*
X145855571Y-86574000D01*
X145927000Y-86431142D01*
X146069857Y-86359714D01*
X146855571Y-86359714D01*
X146784143Y-85074000D02*
X146855571Y-85216857D01*
X146855571Y-85502571D01*
X146784143Y-85645428D01*
X146641286Y-85716857D01*
X146069857Y-85716857D01*
X145927000Y-85645428D01*
X145855571Y-85502571D01*
X145855571Y-85216857D01*
X145927000Y-85074000D01*
X146069857Y-85002571D01*
X146212714Y-85002571D01*
X146355571Y-85716857D01*
X145855571Y-83716857D02*
X147069857Y-83716857D01*
X147212714Y-83788286D01*
X147284143Y-83859714D01*
X147355571Y-84002571D01*
X147355571Y-84216857D01*
X147284143Y-84359714D01*
X146784143Y-83716857D02*
X146855571Y-83859714D01*
X146855571Y-84145428D01*
X146784143Y-84288286D01*
X146712714Y-84359714D01*
X146569857Y-84431143D01*
X146141286Y-84431143D01*
X145998429Y-84359714D01*
X145927000Y-84288286D01*
X145855571Y-84145428D01*
X145855571Y-83859714D01*
X145927000Y-83716857D01*
X146855571Y-82359714D02*
X146069857Y-82359714D01*
X145927000Y-82431143D01*
X145855571Y-82574000D01*
X145855571Y-82859714D01*
X145927000Y-83002571D01*
X146784143Y-82359714D02*
X146855571Y-82502571D01*
X146855571Y-82859714D01*
X146784143Y-83002571D01*
X146641286Y-83074000D01*
X146498429Y-83074000D01*
X146355571Y-83002571D01*
X146284143Y-82859714D01*
X146284143Y-82502571D01*
X146212714Y-82359714D01*
X146855571Y-80859714D02*
X146855571Y-81716857D01*
X146855571Y-81288285D02*
X145355571Y-81288285D01*
X145569857Y-81431142D01*
X145712714Y-81574000D01*
X145784143Y-81716857D01*
X145355571Y-79574000D02*
X145355571Y-79859714D01*
X145427000Y-80002571D01*
X145498429Y-80074000D01*
X145712714Y-80216857D01*
X145998429Y-80288286D01*
X146569857Y-80288286D01*
X146712714Y-80216857D01*
X146784143Y-80145429D01*
X146855571Y-80002571D01*
X146855571Y-79716857D01*
X146784143Y-79574000D01*
X146712714Y-79502571D01*
X146569857Y-79431143D01*
X146212714Y-79431143D01*
X146069857Y-79502571D01*
X145998429Y-79574000D01*
X145927000Y-79716857D01*
X145927000Y-80002571D01*
X145998429Y-80145429D01*
X146069857Y-80216857D01*
X146212714Y-80288286D01*
X145498429Y-78859715D02*
X145427000Y-78788286D01*
X145355571Y-78645429D01*
X145355571Y-78288286D01*
X145427000Y-78145429D01*
X145498429Y-78074000D01*
X145641286Y-78002572D01*
X145784143Y-78002572D01*
X145998429Y-78074000D01*
X146855571Y-78931143D01*
X146855571Y-78002572D01*
D13*
X112632005Y-102598481D02*
X112060576Y-102598481D01*
X112346290Y-102598481D02*
X112346290Y-101598481D01*
X112251052Y-101741338D01*
X112155814Y-101836576D01*
X112060576Y-101884195D01*
X113489148Y-101598481D02*
X113298671Y-101598481D01*
X113203433Y-101646100D01*
X113155814Y-101693719D01*
X113060576Y-101836576D01*
X113012957Y-102027052D01*
X113012957Y-102408005D01*
X113060576Y-102503243D01*
X113108195Y-102550862D01*
X113203433Y-102598481D01*
X113393910Y-102598481D01*
X113489148Y-102550862D01*
X113536767Y-102503243D01*
X113584386Y-102408005D01*
X113584386Y-102169910D01*
X113536767Y-102074671D01*
X113489148Y-102027052D01*
X113393910Y-101979433D01*
X113203433Y-101979433D01*
X113108195Y-102027052D01*
X113060576Y-102074671D01*
X113012957Y-102169910D01*
X114012957Y-102503243D02*
X114060576Y-102550862D01*
X114012957Y-102598481D01*
X113965338Y-102550862D01*
X114012957Y-102503243D01*
X114012957Y-102598481D01*
X114679623Y-101598481D02*
X114774862Y-101598481D01*
X114870100Y-101646100D01*
X114917719Y-101693719D01*
X114965338Y-101788957D01*
X115012957Y-101979433D01*
X115012957Y-102217529D01*
X114965338Y-102408005D01*
X114917719Y-102503243D01*
X114870100Y-102550862D01*
X114774862Y-102598481D01*
X114679623Y-102598481D01*
X114584385Y-102550862D01*
X114536766Y-102503243D01*
X114489147Y-102408005D01*
X114441528Y-102217529D01*
X114441528Y-101979433D01*
X114489147Y-101788957D01*
X114536766Y-101693719D01*
X114584385Y-101646100D01*
X114679623Y-101598481D01*
X115632004Y-101598481D02*
X115727243Y-101598481D01*
X115822481Y-101646100D01*
X115870100Y-101693719D01*
X115917719Y-101788957D01*
X115965338Y-101979433D01*
X115965338Y-102217529D01*
X115917719Y-102408005D01*
X115870100Y-102503243D01*
X115822481Y-102550862D01*
X115727243Y-102598481D01*
X115632004Y-102598481D01*
X115536766Y-102550862D01*
X115489147Y-102503243D01*
X115441528Y-102408005D01*
X115393909Y-102217529D01*
X115393909Y-101979433D01*
X115441528Y-101788957D01*
X115489147Y-101693719D01*
X115536766Y-101646100D01*
X115632004Y-101598481D01*
X116584385Y-101598481D02*
X116679624Y-101598481D01*
X116774862Y-101646100D01*
X116822481Y-101693719D01*
X116870100Y-101788957D01*
X116917719Y-101979433D01*
X116917719Y-102217529D01*
X116870100Y-102408005D01*
X116822481Y-102503243D01*
X116774862Y-102550862D01*
X116679624Y-102598481D01*
X116584385Y-102598481D01*
X116489147Y-102550862D01*
X116441528Y-102503243D01*
X116393909Y-102408005D01*
X116346290Y-102217529D01*
X116346290Y-101979433D01*
X116393909Y-101788957D01*
X116441528Y-101693719D01*
X116489147Y-101646100D01*
X116584385Y-101598481D01*
X118108195Y-102598481D02*
X118108195Y-101598481D01*
X118441529Y-102312767D01*
X118774862Y-101598481D01*
X118774862Y-102598481D01*
X119251052Y-102598481D02*
X119251052Y-101598481D01*
X119251052Y-102074671D02*
X119822481Y-102074671D01*
X119822481Y-102598481D02*
X119822481Y-101598481D01*
X120203433Y-101931814D02*
X120727243Y-101931814D01*
X120203433Y-102598481D01*
X120727243Y-102598481D01*
X106103681Y-85300938D02*
X105627490Y-85634272D01*
X106103681Y-85872367D02*
X105103681Y-85872367D01*
X105103681Y-85491414D01*
X105151300Y-85396176D01*
X105198919Y-85348557D01*
X105294157Y-85300938D01*
X105437014Y-85300938D01*
X105532252Y-85348557D01*
X105579871Y-85396176D01*
X105627490Y-85491414D01*
X105627490Y-85872367D01*
X106056062Y-84919986D02*
X106103681Y-84777129D01*
X106103681Y-84539033D01*
X106056062Y-84443795D01*
X106008443Y-84396176D01*
X105913205Y-84348557D01*
X105817967Y-84348557D01*
X105722729Y-84396176D01*
X105675110Y-84443795D01*
X105627490Y-84539033D01*
X105579871Y-84729510D01*
X105532252Y-84824748D01*
X105484633Y-84872367D01*
X105389395Y-84919986D01*
X105294157Y-84919986D01*
X105198919Y-84872367D01*
X105151300Y-84824748D01*
X105103681Y-84729510D01*
X105103681Y-84491414D01*
X105151300Y-84348557D01*
X105198919Y-83967605D02*
X105151300Y-83919986D01*
X105103681Y-83824748D01*
X105103681Y-83586652D01*
X105151300Y-83491414D01*
X105198919Y-83443795D01*
X105294157Y-83396176D01*
X105389395Y-83396176D01*
X105532252Y-83443795D01*
X106103681Y-84015224D01*
X106103681Y-83396176D01*
X105103681Y-83062843D02*
X105103681Y-82443795D01*
X105484633Y-82777129D01*
X105484633Y-82634271D01*
X105532252Y-82539033D01*
X105579871Y-82491414D01*
X105675110Y-82443795D01*
X105913205Y-82443795D01*
X106008443Y-82491414D01*
X106056062Y-82539033D01*
X106103681Y-82634271D01*
X106103681Y-82919986D01*
X106056062Y-83015224D01*
X106008443Y-83062843D01*
X105198919Y-82062843D02*
X105151300Y-82015224D01*
X105103681Y-81919986D01*
X105103681Y-81681890D01*
X105151300Y-81586652D01*
X105198919Y-81539033D01*
X105294157Y-81491414D01*
X105389395Y-81491414D01*
X105532252Y-81539033D01*
X106103681Y-82110462D01*
X106103681Y-81491414D01*
X112647434Y-80983081D02*
X112314100Y-80506890D01*
X112076005Y-80983081D02*
X112076005Y-79983081D01*
X112456958Y-79983081D01*
X112552196Y-80030700D01*
X112599815Y-80078319D01*
X112647434Y-80173557D01*
X112647434Y-80316414D01*
X112599815Y-80411652D01*
X112552196Y-80459271D01*
X112456958Y-80506890D01*
X112076005Y-80506890D01*
X112980767Y-79983081D02*
X113647434Y-80983081D01*
X113647434Y-79983081D02*
X112980767Y-80983081D01*
X112280795Y-87234781D02*
X112852224Y-87234781D01*
X112566509Y-88234781D02*
X112566509Y-87234781D01*
X113090319Y-87234781D02*
X113756986Y-88234781D01*
X113756986Y-87234781D02*
X113090319Y-88234781D01*
X128754667Y-111037714D02*
X128754667Y-111704381D01*
X128516571Y-110656762D02*
X128278476Y-111371048D01*
X128897524Y-111371048D01*
X129278476Y-111609143D02*
X129326095Y-111656762D01*
X129278476Y-111704381D01*
X129230857Y-111656762D01*
X129278476Y-111609143D01*
X129278476Y-111704381D01*
X129802285Y-111704381D02*
X129992761Y-111704381D01*
X130088000Y-111656762D01*
X130135619Y-111609143D01*
X130230857Y-111466286D01*
X130278476Y-111275810D01*
X130278476Y-110894857D01*
X130230857Y-110799619D01*
X130183238Y-110752000D01*
X130088000Y-110704381D01*
X129897523Y-110704381D01*
X129802285Y-110752000D01*
X129754666Y-110799619D01*
X129707047Y-110894857D01*
X129707047Y-111132952D01*
X129754666Y-111228190D01*
X129802285Y-111275810D01*
X129897523Y-111323429D01*
X130088000Y-111323429D01*
X130183238Y-111275810D01*
X130230857Y-111228190D01*
X130278476Y-111132952D01*
X131230857Y-111704381D02*
X130659428Y-111704381D01*
X130945142Y-111704381D02*
X130945142Y-110704381D01*
X130849904Y-110847238D01*
X130754666Y-110942476D01*
X130659428Y-110990095D01*
X132135619Y-110704381D02*
X131659428Y-110704381D01*
X131611809Y-111180571D01*
X131659428Y-111132952D01*
X131754666Y-111085333D01*
X131992762Y-111085333D01*
X132088000Y-111132952D01*
X132135619Y-111180571D01*
X132183238Y-111275810D01*
X132183238Y-111513905D01*
X132135619Y-111609143D01*
X132088000Y-111656762D01*
X131992762Y-111704381D01*
X131754666Y-111704381D01*
X131659428Y-111656762D01*
X131611809Y-111609143D01*
X132564190Y-110799619D02*
X132611809Y-110752000D01*
X132707047Y-110704381D01*
X132945143Y-110704381D01*
X133040381Y-110752000D01*
X133088000Y-110799619D01*
X133135619Y-110894857D01*
X133135619Y-110990095D01*
X133088000Y-111132952D01*
X132516571Y-111704381D01*
X133135619Y-111704381D01*
X134326095Y-111704381D02*
X134326095Y-110704381D01*
X134659429Y-111418667D01*
X134992762Y-110704381D01*
X134992762Y-111704381D01*
X135468952Y-111704381D02*
X135468952Y-110704381D01*
X135468952Y-111180571D02*
X136040381Y-111180571D01*
X136040381Y-111704381D02*
X136040381Y-110704381D01*
X136421333Y-111037714D02*
X136945143Y-111037714D01*
X136421333Y-111704381D01*
X136945143Y-111704381D01*
D10*
X134326381Y-128158667D02*
X134326381Y-127587238D01*
X135326381Y-127872953D02*
X134326381Y-127872953D01*
X135278762Y-126825333D02*
X135326381Y-126920571D01*
X135326381Y-127111048D01*
X135278762Y-127206286D01*
X135231143Y-127253905D01*
X135135905Y-127301524D01*
X134850190Y-127301524D01*
X134754952Y-127253905D01*
X134707333Y-127206286D01*
X134659714Y-127111048D01*
X134659714Y-126920571D01*
X134707333Y-126825333D01*
X135326381Y-126396762D02*
X134326381Y-126396762D01*
X135326381Y-125968190D02*
X134802571Y-125968190D01*
X134707333Y-126015809D01*
X134659714Y-126111047D01*
X134659714Y-126253905D01*
X134707333Y-126349143D01*
X134754952Y-126396762D01*
X135326381Y-124920571D02*
X134850190Y-125253905D01*
X135326381Y-125492000D02*
X134326381Y-125492000D01*
X134326381Y-125111047D01*
X134374000Y-125015809D01*
X134421619Y-124968190D01*
X134516857Y-124920571D01*
X134659714Y-124920571D01*
X134754952Y-124968190D01*
X134802571Y-125015809D01*
X134850190Y-125111047D01*
X134850190Y-125492000D01*
X131786381Y-128063429D02*
X131786381Y-127492000D01*
X132786381Y-127777715D02*
X131786381Y-127777715D01*
X132738762Y-126730095D02*
X132786381Y-126825333D01*
X132786381Y-127015810D01*
X132738762Y-127111048D01*
X132691143Y-127158667D01*
X132595905Y-127206286D01*
X132310190Y-127206286D01*
X132214952Y-127158667D01*
X132167333Y-127111048D01*
X132119714Y-127015810D01*
X132119714Y-126825333D01*
X132167333Y-126730095D01*
X132786381Y-126301524D02*
X131786381Y-126301524D01*
X132786381Y-125872952D02*
X132262571Y-125872952D01*
X132167333Y-125920571D01*
X132119714Y-126015809D01*
X132119714Y-126158667D01*
X132167333Y-126253905D01*
X132214952Y-126301524D01*
X132786381Y-124920571D02*
X132786381Y-125396762D01*
X131786381Y-125396762D01*
X129119381Y-127690476D02*
X129833667Y-127690476D01*
X129976524Y-127738096D01*
X130071762Y-127833334D01*
X130119381Y-127976191D01*
X130119381Y-128071429D01*
X130119381Y-127071429D02*
X130071762Y-127166667D01*
X130024143Y-127214286D01*
X129928905Y-127261905D01*
X129643190Y-127261905D01*
X129547952Y-127214286D01*
X129500333Y-127166667D01*
X129452714Y-127071429D01*
X129452714Y-126928571D01*
X129500333Y-126833333D01*
X129547952Y-126785714D01*
X129643190Y-126738095D01*
X129928905Y-126738095D01*
X130024143Y-126785714D01*
X130071762Y-126833333D01*
X130119381Y-126928571D01*
X130119381Y-127071429D01*
X129452714Y-126404762D02*
X130119381Y-126166667D01*
X129452714Y-125928571D02*
X130119381Y-126166667D01*
X130357476Y-126261905D01*
X130405095Y-126309524D01*
X130452714Y-126404762D01*
X111412400Y-127457104D02*
X111364781Y-127552342D01*
X111364781Y-127695199D01*
X111412400Y-127838057D01*
X111507638Y-127933295D01*
X111602876Y-127980914D01*
X111793352Y-128028533D01*
X111936210Y-128028533D01*
X112126686Y-127980914D01*
X112221924Y-127933295D01*
X112317162Y-127838057D01*
X112364781Y-127695199D01*
X112364781Y-127599961D01*
X112317162Y-127457104D01*
X112269543Y-127409485D01*
X111936210Y-127409485D01*
X111936210Y-127599961D01*
X112364781Y-126980914D02*
X111364781Y-126980914D01*
X112364781Y-126409485D01*
X111364781Y-126409485D01*
X112364781Y-125933295D02*
X111364781Y-125933295D01*
X111364781Y-125695200D01*
X111412400Y-125552342D01*
X111507638Y-125457104D01*
X111602876Y-125409485D01*
X111793352Y-125361866D01*
X111936210Y-125361866D01*
X112126686Y-125409485D01*
X112221924Y-125457104D01*
X112317162Y-125552342D01*
X112364781Y-125695200D01*
X112364781Y-125933295D01*
X113752381Y-127444476D02*
X113752381Y-127920667D01*
X114228571Y-127968286D01*
X114180952Y-127920667D01*
X114133333Y-127825429D01*
X114133333Y-127587333D01*
X114180952Y-127492095D01*
X114228571Y-127444476D01*
X114323810Y-127396857D01*
X114561905Y-127396857D01*
X114657143Y-127444476D01*
X114704762Y-127492095D01*
X114752381Y-127587333D01*
X114752381Y-127825429D01*
X114704762Y-127920667D01*
X114657143Y-127968286D01*
X113752381Y-127111143D02*
X114752381Y-126777810D01*
X113752381Y-126444476D01*
X108799381Y-128122205D02*
X108799381Y-127550776D01*
X109799381Y-127836491D02*
X108799381Y-127836491D01*
X108799381Y-127312681D02*
X109799381Y-126646014D01*
X108799381Y-126646014D02*
X109799381Y-127312681D01*
X109799381Y-126265062D02*
X108799381Y-126265062D01*
X108799381Y-126026967D01*
X108847000Y-125884109D01*
X108942238Y-125788871D01*
X109037476Y-125741252D01*
X109227952Y-125693633D01*
X109370810Y-125693633D01*
X109561286Y-125741252D01*
X109656524Y-125788871D01*
X109751762Y-125884109D01*
X109799381Y-126026967D01*
X109799381Y-126265062D01*
X107106981Y-127514266D02*
X106630790Y-127847600D01*
X107106981Y-128085695D02*
X106106981Y-128085695D01*
X106106981Y-127704742D01*
X106154600Y-127609504D01*
X106202219Y-127561885D01*
X106297457Y-127514266D01*
X106440314Y-127514266D01*
X106535552Y-127561885D01*
X106583171Y-127609504D01*
X106630790Y-127704742D01*
X106630790Y-128085695D01*
X106106981Y-127180933D02*
X107106981Y-126514266D01*
X106106981Y-126514266D02*
X107106981Y-127180933D01*
X107106981Y-126133314D02*
X106106981Y-126133314D01*
X106106981Y-125895219D01*
X106154600Y-125752361D01*
X106249838Y-125657123D01*
X106345076Y-125609504D01*
X106535552Y-125561885D01*
X106678410Y-125561885D01*
X106868886Y-125609504D01*
X106964124Y-125657123D01*
X107059362Y-125752361D01*
X107106981Y-125895219D01*
X107106981Y-126133314D01*
D13*
X181716751Y-131303781D02*
X181907228Y-131303781D01*
X182002466Y-131351400D01*
X182097704Y-131446638D01*
X182145323Y-131637114D01*
X182145323Y-131970448D01*
X182097704Y-132160924D01*
X182002466Y-132256162D01*
X181907228Y-132303781D01*
X181716751Y-132303781D01*
X181621513Y-132256162D01*
X181526275Y-132160924D01*
X181478656Y-131970448D01*
X181478656Y-131637114D01*
X181526275Y-131446638D01*
X181621513Y-131351400D01*
X181716751Y-131303781D01*
X183050085Y-132303781D02*
X182573894Y-132303781D01*
X182573894Y-131303781D01*
X183383418Y-131779971D02*
X183716752Y-131779971D01*
X183859609Y-132303781D02*
X183383418Y-132303781D01*
X183383418Y-131303781D01*
X183859609Y-131303781D01*
X184288180Y-132303781D02*
X184288180Y-131303781D01*
X184526275Y-131303781D01*
X184669133Y-131351400D01*
X184764371Y-131446638D01*
X184811990Y-131541876D01*
X184859609Y-131732352D01*
X184859609Y-131875210D01*
X184811990Y-132065686D01*
X184764371Y-132160924D01*
X184669133Y-132256162D01*
X184526275Y-132303781D01*
X184288180Y-132303781D01*
X186478657Y-132256162D02*
X186383419Y-132303781D01*
X186192942Y-132303781D01*
X186097704Y-132256162D01*
X186050085Y-132208543D01*
X186002466Y-132113305D01*
X186002466Y-131827590D01*
X186050085Y-131732352D01*
X186097704Y-131684733D01*
X186192942Y-131637114D01*
X186383419Y-131637114D01*
X186478657Y-131684733D01*
X186764371Y-131637114D02*
X187145323Y-131637114D01*
X186907228Y-131303781D02*
X186907228Y-132160924D01*
X186954847Y-132256162D01*
X187050085Y-132303781D01*
X187145323Y-132303781D01*
X187478657Y-132303781D02*
X187478657Y-131637114D01*
X187478657Y-131827590D02*
X187526276Y-131732352D01*
X187573895Y-131684733D01*
X187669133Y-131637114D01*
X187764372Y-131637114D01*
X188240562Y-132303781D02*
X188145324Y-132256162D01*
X188097705Y-132160924D01*
X188097705Y-131303781D01*
D10*
X187751981Y-127379314D02*
X187275790Y-127712648D01*
X187751981Y-127950743D02*
X186751981Y-127950743D01*
X186751981Y-127569790D01*
X186799600Y-127474552D01*
X186847219Y-127426933D01*
X186942457Y-127379314D01*
X187085314Y-127379314D01*
X187180552Y-127426933D01*
X187228171Y-127474552D01*
X187275790Y-127569790D01*
X187275790Y-127950743D01*
X186704362Y-126236457D02*
X187990076Y-127093600D01*
X186751981Y-125998362D02*
X187751981Y-125760267D01*
X187037695Y-125569790D01*
X187751981Y-125379314D01*
X186751981Y-125141219D01*
X186579600Y-126141219D02*
X186579600Y-124998362D01*
X185262781Y-127726914D02*
X184262781Y-127726914D01*
X184262781Y-127488819D01*
X184310400Y-127345961D01*
X184405638Y-127250723D01*
X184500876Y-127203104D01*
X184691352Y-127155485D01*
X184834210Y-127155485D01*
X185024686Y-127203104D01*
X185119924Y-127250723D01*
X185215162Y-127345961D01*
X185262781Y-127488819D01*
X185262781Y-127726914D01*
X184090400Y-127965009D02*
X184090400Y-126965009D01*
X184215162Y-126012628D02*
X185500876Y-126869771D01*
X185167543Y-125107866D02*
X185215162Y-125155485D01*
X185262781Y-125298342D01*
X185262781Y-125393580D01*
X185215162Y-125536438D01*
X185119924Y-125631676D01*
X185024686Y-125679295D01*
X184834210Y-125726914D01*
X184691352Y-125726914D01*
X184500876Y-125679295D01*
X184405638Y-125631676D01*
X184310400Y-125536438D01*
X184262781Y-125393580D01*
X184262781Y-125298342D01*
X184310400Y-125155485D01*
X184358019Y-125107866D01*
X182678343Y-126887266D02*
X182725962Y-126934885D01*
X182773581Y-127077742D01*
X182773581Y-127172980D01*
X182725962Y-127315838D01*
X182630724Y-127411076D01*
X182535486Y-127458695D01*
X182345010Y-127506314D01*
X182202152Y-127506314D01*
X182011676Y-127458695D01*
X181916438Y-127411076D01*
X181821200Y-127315838D01*
X181773581Y-127172980D01*
X181773581Y-127077742D01*
X181821200Y-126934885D01*
X181868819Y-126887266D01*
X182725962Y-126506314D02*
X182773581Y-126363457D01*
X182773581Y-126125361D01*
X182725962Y-126030123D01*
X182678343Y-125982504D01*
X182583105Y-125934885D01*
X182487867Y-125934885D01*
X182392629Y-125982504D01*
X182345010Y-126030123D01*
X182297390Y-126125361D01*
X182249771Y-126315838D01*
X182202152Y-126411076D01*
X182154533Y-126458695D01*
X182059295Y-126506314D01*
X181964057Y-126506314D01*
X181868819Y-126458695D01*
X181821200Y-126411076D01*
X181773581Y-126315838D01*
X181773581Y-126077742D01*
X181821200Y-125934885D01*
X181601200Y-127696790D02*
X181601200Y-125744409D01*
X160116781Y-127636495D02*
X159116781Y-127636495D01*
X159116781Y-127398400D01*
X159164400Y-127255542D01*
X159259638Y-127160304D01*
X159354876Y-127112685D01*
X159545352Y-127065066D01*
X159688210Y-127065066D01*
X159878686Y-127112685D01*
X159973924Y-127160304D01*
X160069162Y-127255542D01*
X160116781Y-127398400D01*
X160116781Y-127636495D01*
X159116781Y-126731733D02*
X159116781Y-126065066D01*
X160116781Y-126493638D01*
X177896781Y-127636495D02*
X176896781Y-127636495D01*
X176896781Y-127398400D01*
X176944400Y-127255542D01*
X177039638Y-127160304D01*
X177134876Y-127112685D01*
X177325352Y-127065066D01*
X177468210Y-127065066D01*
X177658686Y-127112685D01*
X177753924Y-127160304D01*
X177849162Y-127255542D01*
X177896781Y-127398400D01*
X177896781Y-127636495D01*
X176896781Y-126446019D02*
X176896781Y-126350780D01*
X176944400Y-126255542D01*
X176992019Y-126207923D01*
X177087257Y-126160304D01*
X177277733Y-126112685D01*
X177515829Y-126112685D01*
X177706305Y-126160304D01*
X177801543Y-126207923D01*
X177849162Y-126255542D01*
X177896781Y-126350780D01*
X177896781Y-126446019D01*
X177849162Y-126541257D01*
X177801543Y-126588876D01*
X177706305Y-126636495D01*
X177515829Y-126684114D01*
X177277733Y-126684114D01*
X177087257Y-126636495D01*
X176992019Y-126588876D01*
X176944400Y-126541257D01*
X176896781Y-126446019D01*
D13*
X157432809Y-131557781D02*
X157623286Y-131557781D01*
X157718524Y-131605400D01*
X157813762Y-131700638D01*
X157861381Y-131891114D01*
X157861381Y-132224448D01*
X157813762Y-132414924D01*
X157718524Y-132510162D01*
X157623286Y-132557781D01*
X157432809Y-132557781D01*
X157337571Y-132510162D01*
X157242333Y-132414924D01*
X157194714Y-132224448D01*
X157194714Y-131891114D01*
X157242333Y-131700638D01*
X157337571Y-131605400D01*
X157432809Y-131557781D01*
X158766143Y-132557781D02*
X158289952Y-132557781D01*
X158289952Y-131557781D01*
X159099476Y-132033971D02*
X159432810Y-132033971D01*
X159575667Y-132557781D02*
X159099476Y-132557781D01*
X159099476Y-131557781D01*
X159575667Y-131557781D01*
X160004238Y-132557781D02*
X160004238Y-131557781D01*
X160242333Y-131557781D01*
X160385191Y-131605400D01*
X160480429Y-131700638D01*
X160528048Y-131795876D01*
X160575667Y-131986352D01*
X160575667Y-132129210D01*
X160528048Y-132319686D01*
X160480429Y-132414924D01*
X160385191Y-132510162D01*
X160242333Y-132557781D01*
X160004238Y-132557781D01*
X162194715Y-132557781D02*
X162194715Y-131557781D01*
X162194715Y-132510162D02*
X162099477Y-132557781D01*
X161909000Y-132557781D01*
X161813762Y-132510162D01*
X161766143Y-132462543D01*
X161718524Y-132367305D01*
X161718524Y-132081590D01*
X161766143Y-131986352D01*
X161813762Y-131938733D01*
X161909000Y-131891114D01*
X162099477Y-131891114D01*
X162194715Y-131938733D01*
X163099477Y-132557781D02*
X163099477Y-132033971D01*
X163051858Y-131938733D01*
X162956620Y-131891114D01*
X162766143Y-131891114D01*
X162670905Y-131938733D01*
X163099477Y-132510162D02*
X163004239Y-132557781D01*
X162766143Y-132557781D01*
X162670905Y-132510162D01*
X162623286Y-132414924D01*
X162623286Y-132319686D01*
X162670905Y-132224448D01*
X162766143Y-132176829D01*
X163004239Y-132176829D01*
X163099477Y-132129210D01*
X163432810Y-131891114D02*
X163813762Y-131891114D01*
X163575667Y-131557781D02*
X163575667Y-132414924D01*
X163623286Y-132510162D01*
X163718524Y-132557781D01*
X163813762Y-132557781D01*
X164575668Y-132557781D02*
X164575668Y-132033971D01*
X164528049Y-131938733D01*
X164432811Y-131891114D01*
X164242334Y-131891114D01*
X164147096Y-131938733D01*
X164575668Y-132510162D02*
X164480430Y-132557781D01*
X164242334Y-132557781D01*
X164147096Y-132510162D01*
X164099477Y-132414924D01*
X164099477Y-132319686D01*
X164147096Y-132224448D01*
X164242334Y-132176829D01*
X164480430Y-132176829D01*
X164575668Y-132129210D01*
X105465762Y-131659381D02*
X105465762Y-132468905D01*
X105513381Y-132564143D01*
X105561000Y-132611762D01*
X105656238Y-132659381D01*
X105846715Y-132659381D01*
X105941953Y-132611762D01*
X105989572Y-132564143D01*
X106037191Y-132468905D01*
X106037191Y-131659381D01*
X106465762Y-132373667D02*
X106941953Y-132373667D01*
X106370524Y-132659381D02*
X106703857Y-131659381D01*
X107037191Y-132659381D01*
X107941953Y-132659381D02*
X107608619Y-132183190D01*
X107370524Y-132659381D02*
X107370524Y-131659381D01*
X107751477Y-131659381D01*
X107846715Y-131707000D01*
X107894334Y-131754619D01*
X107941953Y-131849857D01*
X107941953Y-131992714D01*
X107894334Y-132087952D01*
X107846715Y-132135571D01*
X107751477Y-132183190D01*
X107370524Y-132183190D01*
X108227667Y-131659381D02*
X108799096Y-131659381D01*
X108513381Y-132659381D02*
X108513381Y-131659381D01*
X123039429Y-132135571D02*
X123182286Y-132183190D01*
X123229905Y-132230810D01*
X123277524Y-132326048D01*
X123277524Y-132468905D01*
X123229905Y-132564143D01*
X123182286Y-132611762D01*
X123087048Y-132659381D01*
X122706095Y-132659381D01*
X122706095Y-131659381D01*
X123039429Y-131659381D01*
X123134667Y-131707000D01*
X123182286Y-131754619D01*
X123229905Y-131849857D01*
X123229905Y-131945095D01*
X123182286Y-132040333D01*
X123134667Y-132087952D01*
X123039429Y-132135571D01*
X122706095Y-132135571D01*
X124134667Y-131992714D02*
X124134667Y-132659381D01*
X123706095Y-131992714D02*
X123706095Y-132516524D01*
X123753714Y-132611762D01*
X123848952Y-132659381D01*
X123991810Y-132659381D01*
X124087048Y-132611762D01*
X124134667Y-132564143D01*
X124515619Y-131992714D02*
X125039429Y-131992714D01*
X124515619Y-132659381D01*
X125039429Y-132659381D01*
X125325143Y-131992714D02*
X125848953Y-131992714D01*
X125325143Y-132659381D01*
X125848953Y-132659381D01*
X126610858Y-132611762D02*
X126515620Y-132659381D01*
X126325143Y-132659381D01*
X126229905Y-132611762D01*
X126182286Y-132516524D01*
X126182286Y-132135571D01*
X126229905Y-132040333D01*
X126325143Y-131992714D01*
X126515620Y-131992714D01*
X126610858Y-132040333D01*
X126658477Y-132135571D01*
X126658477Y-132230810D01*
X126182286Y-132326048D01*
X127087048Y-132659381D02*
X127087048Y-131992714D01*
X127087048Y-132183190D02*
X127134667Y-132087952D01*
X127182286Y-132040333D01*
X127277524Y-131992714D01*
X127372763Y-131992714D01*
X144710614Y-131816861D02*
X144710614Y-132531147D01*
X144662994Y-132674004D01*
X144567756Y-132769242D01*
X144424899Y-132816861D01*
X144329661Y-132816861D01*
X145043947Y-131816861D02*
X145615376Y-131816861D01*
X145329661Y-132816861D02*
X145329661Y-131816861D01*
X145901090Y-132531147D02*
X146377281Y-132531147D01*
X145805852Y-132816861D02*
X146139185Y-131816861D01*
X146472519Y-132816861D01*
X147329662Y-131864480D02*
X147234424Y-131816861D01*
X147091567Y-131816861D01*
X146948709Y-131864480D01*
X146853471Y-131959718D01*
X146805852Y-132054956D01*
X146758233Y-132245432D01*
X146758233Y-132388290D01*
X146805852Y-132578766D01*
X146853471Y-132674004D01*
X146948709Y-132769242D01*
X147091567Y-132816861D01*
X147186805Y-132816861D01*
X147329662Y-132769242D01*
X147377281Y-132721623D01*
X147377281Y-132388290D01*
X147186805Y-132388290D01*
X128802095Y-132262571D02*
X128944952Y-132310190D01*
X128992571Y-132357810D01*
X129040190Y-132453048D01*
X129040190Y-132595905D01*
X128992571Y-132691143D01*
X128944952Y-132738762D01*
X128849714Y-132786381D01*
X128468761Y-132786381D01*
X128468761Y-131786381D01*
X128802095Y-131786381D01*
X128897333Y-131834000D01*
X128944952Y-131881619D01*
X128992571Y-131976857D01*
X128992571Y-132072095D01*
X128944952Y-132167333D01*
X128897333Y-132214952D01*
X128802095Y-132262571D01*
X128468761Y-132262571D01*
X129897333Y-132119714D02*
X129897333Y-132786381D01*
X129468761Y-132119714D02*
X129468761Y-132643524D01*
X129516380Y-132738762D01*
X129611618Y-132786381D01*
X129754476Y-132786381D01*
X129849714Y-132738762D01*
X129897333Y-132691143D01*
X130230666Y-132119714D02*
X130611618Y-132119714D01*
X130373523Y-131786381D02*
X130373523Y-132643524D01*
X130421142Y-132738762D01*
X130516380Y-132786381D01*
X130611618Y-132786381D01*
X130802095Y-132119714D02*
X131183047Y-132119714D01*
X130944952Y-131786381D02*
X130944952Y-132643524D01*
X130992571Y-132738762D01*
X131087809Y-132786381D01*
X131183047Y-132786381D01*
X131659238Y-132786381D02*
X131564000Y-132738762D01*
X131516381Y-132691143D01*
X131468762Y-132595905D01*
X131468762Y-132310190D01*
X131516381Y-132214952D01*
X131564000Y-132167333D01*
X131659238Y-132119714D01*
X131802096Y-132119714D01*
X131897334Y-132167333D01*
X131944953Y-132214952D01*
X131992572Y-132310190D01*
X131992572Y-132595905D01*
X131944953Y-132691143D01*
X131897334Y-132738762D01*
X131802096Y-132786381D01*
X131659238Y-132786381D01*
X132421143Y-132119714D02*
X132421143Y-132786381D01*
X132421143Y-132214952D02*
X132468762Y-132167333D01*
X132564000Y-132119714D01*
X132706858Y-132119714D01*
X132802096Y-132167333D01*
X132849715Y-132262571D01*
X132849715Y-132786381D01*
X133278286Y-132738762D02*
X133373524Y-132786381D01*
X133564000Y-132786381D01*
X133659239Y-132738762D01*
X133706858Y-132643524D01*
X133706858Y-132595905D01*
X133659239Y-132500667D01*
X133564000Y-132453048D01*
X133421143Y-132453048D01*
X133325905Y-132405429D01*
X133278286Y-132310190D01*
X133278286Y-132262571D01*
X133325905Y-132167333D01*
X133421143Y-132119714D01*
X133564000Y-132119714D01*
X133659239Y-132167333D01*
D10*
X176452585Y-51575853D02*
X177024013Y-51575853D01*
X177138299Y-51613949D01*
X177214490Y-51690139D01*
X177252585Y-51804425D01*
X177252585Y-51880615D01*
X177252585Y-51080615D02*
X177214490Y-51156806D01*
X177176394Y-51194901D01*
X177100204Y-51232996D01*
X176871632Y-51232996D01*
X176795442Y-51194901D01*
X176757347Y-51156806D01*
X176719251Y-51080615D01*
X176719251Y-50966329D01*
X176757347Y-50890139D01*
X176795442Y-50852044D01*
X176871632Y-50813948D01*
X177100204Y-50813948D01*
X177176394Y-50852044D01*
X177214490Y-50890139D01*
X177252585Y-50966329D01*
X177252585Y-51080615D01*
X176719251Y-50547281D02*
X177252585Y-50356805D01*
X176719251Y-50166329D02*
X177252585Y-50356805D01*
X177443061Y-50432996D01*
X177481156Y-50471091D01*
X177519251Y-50547281D01*
X176452585Y-49937757D02*
X177252585Y-49404424D01*
X176452585Y-49404424D02*
X177252585Y-49937757D01*
X174014185Y-51552998D02*
X174585613Y-51552998D01*
X174699899Y-51591094D01*
X174776090Y-51667284D01*
X174814185Y-51781570D01*
X174814185Y-51857760D01*
X174814185Y-51057760D02*
X174776090Y-51133951D01*
X174737994Y-51172046D01*
X174661804Y-51210141D01*
X174433232Y-51210141D01*
X174357042Y-51172046D01*
X174318947Y-51133951D01*
X174280851Y-51057760D01*
X174280851Y-50943474D01*
X174318947Y-50867284D01*
X174357042Y-50829189D01*
X174433232Y-50791093D01*
X174661804Y-50791093D01*
X174737994Y-50829189D01*
X174776090Y-50867284D01*
X174814185Y-50943474D01*
X174814185Y-51057760D01*
X174280851Y-50524426D02*
X174814185Y-50333950D01*
X174280851Y-50143474D02*
X174814185Y-50333950D01*
X175004661Y-50410141D01*
X175042756Y-50448236D01*
X175080851Y-50524426D01*
X174433232Y-49686331D02*
X174814185Y-49686331D01*
X174014185Y-49952998D02*
X174433232Y-49686331D01*
X174014185Y-49419664D01*
X172124330Y-52802573D02*
X172162425Y-52688287D01*
X172162425Y-52497811D01*
X172124330Y-52421621D01*
X172086234Y-52383525D01*
X172010044Y-52345430D01*
X171933853Y-52345430D01*
X171857663Y-52383525D01*
X171819568Y-52421621D01*
X171781472Y-52497811D01*
X171743377Y-52650192D01*
X171705282Y-52726383D01*
X171667187Y-52764478D01*
X171590996Y-52802573D01*
X171514806Y-52802573D01*
X171438615Y-52764478D01*
X171400520Y-52726383D01*
X171362425Y-52650192D01*
X171362425Y-52459716D01*
X171400520Y-52345430D01*
X172162425Y-51888287D02*
X172124330Y-51964478D01*
X172048139Y-52002573D01*
X171362425Y-52002573D01*
X172162425Y-51583525D02*
X171629091Y-51583525D01*
X171362425Y-51583525D02*
X171400520Y-51621620D01*
X171438615Y-51583525D01*
X171400520Y-51545430D01*
X171362425Y-51583525D01*
X171438615Y-51583525D01*
X172162425Y-50859716D02*
X171362425Y-50859716D01*
X172124330Y-50859716D02*
X172162425Y-50935906D01*
X172162425Y-51088287D01*
X172124330Y-51164478D01*
X172086234Y-51202573D01*
X172010044Y-51240668D01*
X171781472Y-51240668D01*
X171705282Y-51202573D01*
X171667187Y-51164478D01*
X171629091Y-51088287D01*
X171629091Y-50935906D01*
X171667187Y-50859716D01*
X172124330Y-50174001D02*
X172162425Y-50250191D01*
X172162425Y-50402572D01*
X172124330Y-50478763D01*
X172048139Y-50516858D01*
X171743377Y-50516858D01*
X171667187Y-50478763D01*
X171629091Y-50402572D01*
X171629091Y-50250191D01*
X171667187Y-50174001D01*
X171743377Y-50135906D01*
X171819568Y-50135906D01*
X171895758Y-50516858D01*
X172162425Y-49335906D02*
X171781472Y-49602573D01*
X172162425Y-49793049D02*
X171362425Y-49793049D01*
X171362425Y-49488287D01*
X171400520Y-49412096D01*
X171438615Y-49374001D01*
X171514806Y-49335906D01*
X171629091Y-49335906D01*
X171705282Y-49374001D01*
X171743377Y-49412096D01*
X171781472Y-49488287D01*
X171781472Y-49793049D01*
X169487810Y-52726383D02*
X169525905Y-52612097D01*
X169525905Y-52421621D01*
X169487810Y-52345431D01*
X169449714Y-52307335D01*
X169373524Y-52269240D01*
X169297333Y-52269240D01*
X169221143Y-52307335D01*
X169183048Y-52345431D01*
X169144952Y-52421621D01*
X169106857Y-52574002D01*
X169068762Y-52650193D01*
X169030667Y-52688288D01*
X168954476Y-52726383D01*
X168878286Y-52726383D01*
X168802095Y-52688288D01*
X168764000Y-52650193D01*
X168725905Y-52574002D01*
X168725905Y-52383526D01*
X168764000Y-52269240D01*
X169525905Y-51812097D02*
X169487810Y-51888288D01*
X169411619Y-51926383D01*
X168725905Y-51926383D01*
X169525905Y-51507335D02*
X168992571Y-51507335D01*
X168725905Y-51507335D02*
X168764000Y-51545430D01*
X168802095Y-51507335D01*
X168764000Y-51469240D01*
X168725905Y-51507335D01*
X168802095Y-51507335D01*
X169525905Y-50783526D02*
X168725905Y-50783526D01*
X169487810Y-50783526D02*
X169525905Y-50859716D01*
X169525905Y-51012097D01*
X169487810Y-51088288D01*
X169449714Y-51126383D01*
X169373524Y-51164478D01*
X169144952Y-51164478D01*
X169068762Y-51126383D01*
X169030667Y-51088288D01*
X168992571Y-51012097D01*
X168992571Y-50859716D01*
X169030667Y-50783526D01*
X169487810Y-50097811D02*
X169525905Y-50174001D01*
X169525905Y-50326382D01*
X169487810Y-50402573D01*
X169411619Y-50440668D01*
X169106857Y-50440668D01*
X169030667Y-50402573D01*
X168992571Y-50326382D01*
X168992571Y-50174001D01*
X169030667Y-50097811D01*
X169106857Y-50059716D01*
X169183048Y-50059716D01*
X169259238Y-50440668D01*
X169525905Y-49335906D02*
X169525905Y-49716859D01*
X168725905Y-49716859D01*
D13*
X168373278Y-45348187D02*
X168849469Y-45348187D01*
X168278040Y-45633901D02*
X168611373Y-44633901D01*
X168944707Y-45633901D01*
X169278040Y-45633901D02*
X169278040Y-44633901D01*
X169516135Y-44633901D01*
X169658993Y-44681520D01*
X169754231Y-44776758D01*
X169801850Y-44871996D01*
X169849469Y-45062472D01*
X169849469Y-45205330D01*
X169801850Y-45395806D01*
X169754231Y-45491044D01*
X169658993Y-45586282D01*
X169516135Y-45633901D01*
X169278040Y-45633901D01*
X170849469Y-45538663D02*
X170801850Y-45586282D01*
X170658993Y-45633901D01*
X170563755Y-45633901D01*
X170420897Y-45586282D01*
X170325659Y-45491044D01*
X170278040Y-45395806D01*
X170230421Y-45205330D01*
X170230421Y-45062472D01*
X170278040Y-44871996D01*
X170325659Y-44776758D01*
X170420897Y-44681520D01*
X170563755Y-44633901D01*
X170658993Y-44633901D01*
X170801850Y-44681520D01*
X170849469Y-44729139D01*
X172039945Y-45633901D02*
X172039945Y-44967234D01*
X172039945Y-44633901D02*
X171992326Y-44681520D01*
X172039945Y-44729139D01*
X172087564Y-44681520D01*
X172039945Y-44633901D01*
X172039945Y-44729139D01*
X172516135Y-44967234D02*
X172516135Y-45633901D01*
X172516135Y-45062472D02*
X172563754Y-45014853D01*
X172658992Y-44967234D01*
X172801850Y-44967234D01*
X172897088Y-45014853D01*
X172944707Y-45110091D01*
X172944707Y-45633901D01*
X173420897Y-44967234D02*
X173420897Y-45967234D01*
X173420897Y-45014853D02*
X173516135Y-44967234D01*
X173706612Y-44967234D01*
X173801850Y-45014853D01*
X173849469Y-45062472D01*
X173897088Y-45157710D01*
X173897088Y-45443425D01*
X173849469Y-45538663D01*
X173801850Y-45586282D01*
X173706612Y-45633901D01*
X173516135Y-45633901D01*
X173420897Y-45586282D01*
X174754231Y-44967234D02*
X174754231Y-45633901D01*
X174325659Y-44967234D02*
X174325659Y-45491044D01*
X174373278Y-45586282D01*
X174468516Y-45633901D01*
X174611374Y-45633901D01*
X174706612Y-45586282D01*
X174754231Y-45538663D01*
X175087564Y-44967234D02*
X175468516Y-44967234D01*
X175230421Y-44633901D02*
X175230421Y-45491044D01*
X175278040Y-45586282D01*
X175373278Y-45633901D01*
X175468516Y-45633901D01*
X175754231Y-45586282D02*
X175849469Y-45633901D01*
X176039945Y-45633901D01*
X176135184Y-45586282D01*
X176182803Y-45491044D01*
X176182803Y-45443425D01*
X176135184Y-45348187D01*
X176039945Y-45300568D01*
X175897088Y-45300568D01*
X175801850Y-45252949D01*
X175754231Y-45157710D01*
X175754231Y-45110091D01*
X175801850Y-45014853D01*
X175897088Y-44967234D01*
X176039945Y-44967234D01*
X176135184Y-45014853D01*
X143794409Y-45512881D02*
X143794409Y-44512881D01*
X144175362Y-44512881D01*
X144270600Y-44560500D01*
X144318219Y-44608119D01*
X144365838Y-44703357D01*
X144365838Y-44846214D01*
X144318219Y-44941452D01*
X144270600Y-44989071D01*
X144175362Y-45036690D01*
X143794409Y-45036690D01*
X144937266Y-45512881D02*
X144842028Y-45465262D01*
X144794409Y-45417643D01*
X144746790Y-45322405D01*
X144746790Y-45036690D01*
X144794409Y-44941452D01*
X144842028Y-44893833D01*
X144937266Y-44846214D01*
X145080124Y-44846214D01*
X145175362Y-44893833D01*
X145222981Y-44941452D01*
X145270600Y-45036690D01*
X145270600Y-45322405D01*
X145222981Y-45417643D01*
X145175362Y-45465262D01*
X145080124Y-45512881D01*
X144937266Y-45512881D01*
X145603933Y-44846214D02*
X145794409Y-45512881D01*
X145984886Y-45036690D01*
X146175362Y-45512881D01*
X146365838Y-44846214D01*
X147127743Y-45465262D02*
X147032505Y-45512881D01*
X146842028Y-45512881D01*
X146746790Y-45465262D01*
X146699171Y-45370024D01*
X146699171Y-44989071D01*
X146746790Y-44893833D01*
X146842028Y-44846214D01*
X147032505Y-44846214D01*
X147127743Y-44893833D01*
X147175362Y-44989071D01*
X147175362Y-45084310D01*
X146699171Y-45179548D01*
X147603933Y-45512881D02*
X147603933Y-44846214D01*
X147603933Y-45036690D02*
X147651552Y-44941452D01*
X147699171Y-44893833D01*
X147794409Y-44846214D01*
X147889648Y-44846214D01*
X143556314Y-47165262D02*
X143651552Y-47212881D01*
X143842028Y-47212881D01*
X143937267Y-47165262D01*
X143984886Y-47070024D01*
X143984886Y-47022405D01*
X143937267Y-46927167D01*
X143842028Y-46879548D01*
X143699171Y-46879548D01*
X143603933Y-46831929D01*
X143556314Y-46736690D01*
X143556314Y-46689071D01*
X143603933Y-46593833D01*
X143699171Y-46546214D01*
X143842028Y-46546214D01*
X143937267Y-46593833D01*
X144842029Y-46546214D02*
X144842029Y-47212881D01*
X144413457Y-46546214D02*
X144413457Y-47070024D01*
X144461076Y-47165262D01*
X144556314Y-47212881D01*
X144699172Y-47212881D01*
X144794410Y-47165262D01*
X144842029Y-47117643D01*
X145318219Y-46546214D02*
X145318219Y-47546214D01*
X145318219Y-46593833D02*
X145413457Y-46546214D01*
X145603934Y-46546214D01*
X145699172Y-46593833D01*
X145746791Y-46641452D01*
X145794410Y-46736690D01*
X145794410Y-47022405D01*
X145746791Y-47117643D01*
X145699172Y-47165262D01*
X145603934Y-47212881D01*
X145413457Y-47212881D01*
X145318219Y-47165262D01*
X146222981Y-46546214D02*
X146222981Y-47546214D01*
X146222981Y-46593833D02*
X146318219Y-46546214D01*
X146508696Y-46546214D01*
X146603934Y-46593833D01*
X146651553Y-46641452D01*
X146699172Y-46736690D01*
X146699172Y-47022405D01*
X146651553Y-47117643D01*
X146603934Y-47165262D01*
X146508696Y-47212881D01*
X146318219Y-47212881D01*
X146222981Y-47165262D01*
X147270600Y-47212881D02*
X147175362Y-47165262D01*
X147127743Y-47070024D01*
X147127743Y-46212881D01*
X147556315Y-46546214D02*
X147794410Y-47212881D01*
X148032506Y-46546214D02*
X147794410Y-47212881D01*
X147699172Y-47450976D01*
X147651553Y-47498595D01*
X147556315Y-47546214D01*
X95350081Y-52872781D02*
X96159605Y-52872781D01*
X96254843Y-52825162D01*
X96302462Y-52777543D01*
X96350081Y-52682305D01*
X96350081Y-52491828D01*
X96302462Y-52396590D01*
X96254843Y-52348971D01*
X96159605Y-52301352D01*
X95350081Y-52301352D01*
X96302462Y-51872781D02*
X96350081Y-51729924D01*
X96350081Y-51491828D01*
X96302462Y-51396590D01*
X96254843Y-51348971D01*
X96159605Y-51301352D01*
X96064367Y-51301352D01*
X95969129Y-51348971D01*
X95921510Y-51396590D01*
X95873890Y-51491828D01*
X95826271Y-51682305D01*
X95778652Y-51777543D01*
X95731033Y-51825162D01*
X95635795Y-51872781D01*
X95540557Y-51872781D01*
X95445319Y-51825162D01*
X95397700Y-51777543D01*
X95350081Y-51682305D01*
X95350081Y-51444209D01*
X95397700Y-51301352D01*
X95826271Y-50539447D02*
X95873890Y-50396590D01*
X95921510Y-50348971D01*
X96016748Y-50301352D01*
X96159605Y-50301352D01*
X96254843Y-50348971D01*
X96302462Y-50396590D01*
X96350081Y-50491828D01*
X96350081Y-50872781D01*
X95350081Y-50872781D01*
X95350081Y-50539447D01*
X95397700Y-50444209D01*
X95445319Y-50396590D01*
X95540557Y-50348971D01*
X95635795Y-50348971D01*
X95731033Y-50396590D01*
X95778652Y-50444209D01*
X95826271Y-50539447D01*
X95826271Y-50872781D01*
X95969129Y-49872781D02*
X95969129Y-49110876D01*
X95826271Y-48301352D02*
X95873890Y-48158495D01*
X95921510Y-48110876D01*
X96016748Y-48063257D01*
X96159605Y-48063257D01*
X96254843Y-48110876D01*
X96302462Y-48158495D01*
X96350081Y-48253733D01*
X96350081Y-48634686D01*
X95350081Y-48634686D01*
X95350081Y-48301352D01*
X95397700Y-48206114D01*
X95445319Y-48158495D01*
X95540557Y-48110876D01*
X95635795Y-48110876D01*
X95731033Y-48158495D01*
X95778652Y-48206114D01*
X95826271Y-48301352D01*
X95826271Y-48634686D01*
X95445319Y-46920400D02*
X95397700Y-46872781D01*
X95350081Y-46777543D01*
X95350081Y-46539447D01*
X95397700Y-46444209D01*
X95445319Y-46396590D01*
X95540557Y-46348971D01*
X95635795Y-46348971D01*
X95778652Y-46396590D01*
X96350081Y-46968019D01*
X96350081Y-46348971D01*
X96254843Y-45920400D02*
X96302462Y-45872781D01*
X96350081Y-45920400D01*
X96302462Y-45968019D01*
X96254843Y-45920400D01*
X96350081Y-45920400D01*
X95350081Y-45253734D02*
X95350081Y-45158495D01*
X95397700Y-45063257D01*
X95445319Y-45015638D01*
X95540557Y-44968019D01*
X95731033Y-44920400D01*
X95969129Y-44920400D01*
X96159605Y-44968019D01*
X96254843Y-45015638D01*
X96302462Y-45063257D01*
X96350081Y-45158495D01*
X96350081Y-45253734D01*
X96302462Y-45348972D01*
X96254843Y-45396591D01*
X96159605Y-45444210D01*
X95969129Y-45491829D01*
X95731033Y-45491829D01*
X95540557Y-45444210D01*
X95445319Y-45396591D01*
X95397700Y-45348972D01*
X95350081Y-45253734D01*
X114911143Y-46616857D02*
X114958762Y-46664476D01*
X115006381Y-46807333D01*
X115006381Y-46902571D01*
X114958762Y-47045429D01*
X114863524Y-47140667D01*
X114768286Y-47188286D01*
X114577810Y-47235905D01*
X114434952Y-47235905D01*
X114244476Y-47188286D01*
X114149238Y-47140667D01*
X114054000Y-47045429D01*
X114006381Y-46902571D01*
X114006381Y-46807333D01*
X114054000Y-46664476D01*
X114101619Y-46616857D01*
X114720667Y-46235905D02*
X114720667Y-45759714D01*
X115006381Y-46331143D02*
X114006381Y-45997810D01*
X115006381Y-45664476D01*
X115006381Y-45331143D02*
X114006381Y-45331143D01*
X115006381Y-44759714D01*
X114006381Y-44759714D01*
D10*
X116823300Y-65879198D02*
X116856633Y-65912532D01*
X116889967Y-66012532D01*
X116889967Y-66079198D01*
X116856633Y-66179198D01*
X116789967Y-66245865D01*
X116723300Y-66279198D01*
X116589967Y-66312532D01*
X116489967Y-66312532D01*
X116356633Y-66279198D01*
X116289967Y-66245865D01*
X116223300Y-66179198D01*
X116189967Y-66079198D01*
X116189967Y-66012532D01*
X116223300Y-65912532D01*
X116256633Y-65879198D01*
X116689967Y-65612532D02*
X116689967Y-65279198D01*
X116889967Y-65679198D02*
X116189967Y-65445865D01*
X116889967Y-65212532D01*
X116889967Y-64979198D02*
X116189967Y-64979198D01*
X116889967Y-64579198D01*
X116189967Y-64579198D01*
X116423300Y-63812532D02*
X116423300Y-63545866D01*
X116189967Y-63712532D02*
X116789967Y-63712532D01*
X116856633Y-63679199D01*
X116889967Y-63612532D01*
X116889967Y-63545866D01*
X116856633Y-63045866D02*
X116889967Y-63112532D01*
X116889967Y-63245866D01*
X116856633Y-63312532D01*
X116789967Y-63345866D01*
X116523300Y-63345866D01*
X116456633Y-63312532D01*
X116423300Y-63245866D01*
X116423300Y-63112532D01*
X116456633Y-63045866D01*
X116523300Y-63012532D01*
X116589967Y-63012532D01*
X116656633Y-63345866D01*
X116889967Y-62712532D02*
X116423300Y-62712532D01*
X116556633Y-62712532D02*
X116489967Y-62679199D01*
X116456633Y-62645866D01*
X116423300Y-62579199D01*
X116423300Y-62512532D01*
X116889967Y-62279199D02*
X116423300Y-62279199D01*
X116489967Y-62279199D02*
X116456633Y-62245866D01*
X116423300Y-62179199D01*
X116423300Y-62079199D01*
X116456633Y-62012533D01*
X116523300Y-61979199D01*
X116889967Y-61979199D01*
X116523300Y-61979199D02*
X116456633Y-61945866D01*
X116423300Y-61879199D01*
X116423300Y-61779199D01*
X116456633Y-61712533D01*
X116523300Y-61679199D01*
X116889967Y-61679199D01*
X116889967Y-61345866D02*
X116423300Y-61345866D01*
X116189967Y-61345866D02*
X116223300Y-61379200D01*
X116256633Y-61345866D01*
X116223300Y-61312533D01*
X116189967Y-61345866D01*
X116256633Y-61345866D01*
X116423300Y-61012533D02*
X116889967Y-61012533D01*
X116489967Y-61012533D02*
X116456633Y-60979200D01*
X116423300Y-60912533D01*
X116423300Y-60812533D01*
X116456633Y-60745867D01*
X116523300Y-60712533D01*
X116889967Y-60712533D01*
X116889967Y-60079200D02*
X116523300Y-60079200D01*
X116456633Y-60112534D01*
X116423300Y-60179200D01*
X116423300Y-60312534D01*
X116456633Y-60379200D01*
X116856633Y-60079200D02*
X116889967Y-60145867D01*
X116889967Y-60312534D01*
X116856633Y-60379200D01*
X116789967Y-60412534D01*
X116723300Y-60412534D01*
X116656633Y-60379200D01*
X116623300Y-60312534D01*
X116623300Y-60145867D01*
X116589967Y-60079200D01*
X116423300Y-59845867D02*
X116423300Y-59579201D01*
X116189967Y-59745867D02*
X116789967Y-59745867D01*
X116856633Y-59712534D01*
X116889967Y-59645867D01*
X116889967Y-59579201D01*
X116889967Y-59345867D02*
X116423300Y-59345867D01*
X116189967Y-59345867D02*
X116223300Y-59379201D01*
X116256633Y-59345867D01*
X116223300Y-59312534D01*
X116189967Y-59345867D01*
X116256633Y-59345867D01*
X116889967Y-58912534D02*
X116856633Y-58979201D01*
X116823300Y-59012534D01*
X116756633Y-59045868D01*
X116556633Y-59045868D01*
X116489967Y-59012534D01*
X116456633Y-58979201D01*
X116423300Y-58912534D01*
X116423300Y-58812534D01*
X116456633Y-58745868D01*
X116489967Y-58712534D01*
X116556633Y-58679201D01*
X116756633Y-58679201D01*
X116823300Y-58712534D01*
X116856633Y-58745868D01*
X116889967Y-58812534D01*
X116889967Y-58912534D01*
X116423300Y-58379201D02*
X116889967Y-58379201D01*
X116489967Y-58379201D02*
X116456633Y-58345868D01*
X116423300Y-58279201D01*
X116423300Y-58179201D01*
X116456633Y-58112535D01*
X116523300Y-58079201D01*
X116889967Y-58079201D01*
D17*
X113875400Y-85775338D02*
G75*
G03X119425400Y-87320630I2990000J-462D01*
G01*
X113875400Y-85776262D02*
G75*
G02X119425400Y-84230970I2990000J462D01*
G01*
X119365400Y-85775800D02*
G75*
G03X119365400Y-85775800I-2500000J0D01*
G01*
X119425400Y-87320800D02*
X119425400Y-84230800D01*
X115841800Y-97980500D02*
X115841800Y-92980500D01*
X121241800Y-97980500D02*
X121241800Y-92980500D01*
X121241800Y-97980500D02*
G75*
G02X115841800Y-97980500I-2700000J0D01*
G01*
X121241800Y-92980500D02*
G75*
G03X115841800Y-92980500I-2700000J0D01*
G01*
X145630000Y-56888000D02*
X145630000Y-55888000D01*
X143930000Y-55888000D02*
X143930000Y-56888000D01*
X129501000Y-115054000D02*
X129501000Y-114054000D01*
X127801000Y-114054000D02*
X127801000Y-115054000D01*
X127801000Y-120785000D02*
X127801000Y-121785000D01*
X129501000Y-121785000D02*
X129501000Y-120785000D01*
X143980800Y-63000000D02*
X143980800Y-64000000D01*
X145680800Y-64000000D02*
X145680800Y-63000000D01*
X154567000Y-71652500D02*
X155567000Y-71652500D01*
X155567000Y-69952500D02*
X154567000Y-69952500D01*
X108099480Y-112281600D02*
X107099480Y-112281600D01*
X107099480Y-113981600D02*
X108099480Y-113981600D01*
X184316000Y-65641600D02*
X184316000Y-66641600D01*
X186016000Y-66641600D02*
X186016000Y-65641600D01*
X178379500Y-71081000D02*
X179379500Y-71081000D01*
X179379500Y-69381000D02*
X178379500Y-69381000D01*
X189548400Y-66505200D02*
X189548400Y-67505200D01*
X191248400Y-67505200D02*
X191248400Y-66505200D01*
X166108000Y-55284000D02*
X165108000Y-55284000D01*
X165108000Y-56984000D02*
X166108000Y-56984000D01*
X114819800Y-92930600D02*
X114819800Y-91930600D01*
X113119800Y-91930600D02*
X113119800Y-92930600D01*
X113145200Y-97886900D02*
X113145200Y-98886900D01*
X114845200Y-98886900D02*
X114845200Y-97886900D01*
X165412800Y-107568100D02*
X166412800Y-107568100D01*
X166412800Y-105868100D02*
X165412800Y-105868100D01*
X133262000Y-72398000D02*
X133262000Y-73398000D01*
X134962000Y-73398000D02*
X134962000Y-72398000D01*
X113880000Y-61968000D02*
X113880000Y-60968000D01*
X112180000Y-60968000D02*
X112180000Y-61968000D01*
X97417000Y-61429000D02*
X98417000Y-61429000D01*
X98417000Y-59729000D02*
X97417000Y-59729000D01*
X110990000Y-69254000D02*
X109990000Y-69254000D01*
X109990000Y-70954000D02*
X110990000Y-70954000D01*
X108990500Y-62285500D02*
X108990500Y-61285500D01*
X107290500Y-61285500D02*
X107290500Y-62285500D01*
X96990800Y-65819400D02*
X96990800Y-66819400D01*
X98690800Y-66819400D02*
X98690800Y-65819400D01*
X139192462Y-64574000D02*
G75*
G03X137647170Y-70124000I-462J-2990000D01*
G01*
X139191538Y-64574000D02*
G75*
G02X140736830Y-70124000I462J-2990000D01*
G01*
X141692000Y-67564000D02*
G75*
G03X141692000Y-67564000I-2500000J0D01*
G01*
X137647000Y-70124000D02*
X140737000Y-70124000D01*
X113811900Y-78561738D02*
G75*
G03X119361900Y-80107030I2990000J-462D01*
G01*
X113811900Y-78562662D02*
G75*
G02X119361900Y-77017370I2990000J462D01*
G01*
X119301900Y-78562200D02*
G75*
G03X119301900Y-78562200I-2500000J0D01*
G01*
X119361900Y-80107200D02*
X119361900Y-77017200D01*
X139843200Y-125974800D02*
X139843200Y-131174800D01*
X150063200Y-125974800D02*
X139843200Y-125974800D01*
X152663200Y-131174800D02*
X139843200Y-131174800D01*
X150063200Y-125974800D02*
X150063200Y-128574800D01*
X150063200Y-128574800D02*
X152663200Y-128574800D01*
X152663200Y-128574800D02*
X152663200Y-131174800D01*
X151333200Y-125974800D02*
X152663200Y-125974800D01*
X152663200Y-125974800D02*
X152663200Y-127304800D01*
X94070500Y-81121100D02*
X104550500Y-81121100D01*
X104550500Y-81121100D02*
X104550500Y-112091100D01*
X104550500Y-112091100D02*
X94070500Y-112091100D01*
X105444838Y-101896100D02*
X105444838Y-102396100D01*
X105444838Y-102396100D02*
X105011825Y-102146100D01*
X105011825Y-102146100D02*
X105444838Y-101896100D01*
X126256560Y-57039040D02*
X126256560Y-44439040D01*
X126256560Y-44439040D02*
X115906560Y-44439040D01*
X115906560Y-44439040D02*
X115906560Y-45389040D01*
X115906560Y-45389040D02*
X115406560Y-45139040D01*
X115406560Y-45139040D02*
X115406560Y-47039040D01*
X115406560Y-47039040D02*
X115406560Y-47089040D01*
X115406560Y-47089040D02*
X115906560Y-46839040D01*
X115906560Y-46839040D02*
X115906560Y-52239040D01*
X115906560Y-52239040D02*
X115406560Y-51939040D01*
X115406560Y-51939040D02*
X115406560Y-57039040D01*
X115406560Y-57039040D02*
X126256560Y-57039040D01*
X119998800Y-59452200D02*
X117338800Y-59452200D01*
X119998800Y-62052200D02*
X119998800Y-59452200D01*
X117338800Y-62052200D02*
X117338800Y-59452200D01*
X119998800Y-62052200D02*
X117338800Y-62052200D01*
X119998800Y-63322200D02*
X119998800Y-64652200D01*
X119998800Y-64652200D02*
X118668800Y-64652200D01*
X105350000Y-128464000D02*
X105350000Y-131124000D01*
X113030000Y-128464000D02*
X105350000Y-128464000D01*
X113030000Y-131124000D02*
X105350000Y-131124000D01*
X113030000Y-128464000D02*
X113030000Y-131124000D01*
X114300000Y-128464000D02*
X115630000Y-128464000D01*
X115630000Y-128464000D02*
X115630000Y-129794000D01*
X146904000Y-68444000D02*
X145704000Y-68444000D01*
X145704000Y-66684000D02*
X146904000Y-66684000D01*
X151800000Y-66684000D02*
X153000000Y-66684000D01*
X153000000Y-68444000D02*
X151800000Y-68444000D01*
X138268000Y-63364000D02*
X137068000Y-63364000D01*
X137068000Y-61604000D02*
X138268000Y-61604000D01*
X131944000Y-61376000D02*
X131944000Y-62576000D01*
X130184000Y-62576000D02*
X130184000Y-61376000D01*
X118932400Y-67954000D02*
X120132400Y-67954000D01*
X120132400Y-69714000D02*
X118932400Y-69714000D01*
X148574000Y-65393200D02*
X153074000Y-65393200D01*
X147324000Y-61393200D02*
X147324000Y-62893200D01*
X153074000Y-58893200D02*
X148574000Y-58893200D01*
X154324000Y-62893200D02*
X154324000Y-61393200D01*
X176107600Y-72279200D02*
G75*
G02X174107600Y-72279200I-1000000J0D01*
G01*
X174107600Y-72279200D02*
X172457600Y-72279200D01*
X172457600Y-72279200D02*
X172457600Y-97799200D01*
X172457600Y-97799200D02*
X177757600Y-97799200D01*
X177757600Y-97799200D02*
X177757600Y-72279200D01*
X177757600Y-72279200D02*
X176107600Y-72279200D01*
X122742000Y-120380000D02*
G75*
G02X122742000Y-118380000I0J1000000D01*
G01*
X122742000Y-118380000D02*
X122742000Y-116730000D01*
X122742000Y-116730000D02*
X97222000Y-116730000D01*
X97222000Y-116730000D02*
X97222000Y-122030000D01*
X97222000Y-122030000D02*
X122742000Y-122030000D01*
X122742000Y-122030000D02*
X122742000Y-120380000D01*
X142320000Y-48474000D02*
X142320000Y-58714000D01*
X137679000Y-48474000D02*
X137679000Y-58714000D01*
X142320000Y-48474000D02*
X137679000Y-48474000D01*
X142320000Y-58714000D02*
X137679000Y-58714000D01*
X140810000Y-48474000D02*
X140810000Y-58714000D01*
X142320000Y-51744000D02*
X140810000Y-51744000D01*
X142320000Y-55445000D02*
X140810000Y-55445000D01*
X147304000Y-72330000D02*
G75*
G02X145304000Y-72330000I-1000000J0D01*
G01*
X145304000Y-72330000D02*
X139844000Y-72330000D01*
X139844000Y-72330000D02*
X139844000Y-123250000D01*
X139844000Y-123250000D02*
X152764000Y-123250000D01*
X152764000Y-123250000D02*
X152764000Y-72330000D01*
X152764000Y-72330000D02*
X147304000Y-72330000D01*
X183448000Y-64500000D02*
G75*
G02X183448000Y-62500000I0J1000000D01*
G01*
X183448000Y-62500000D02*
X183448000Y-60850000D01*
X183448000Y-60850000D02*
X157928000Y-60850000D01*
X157928000Y-60850000D02*
X157928000Y-66150000D01*
X157928000Y-66150000D02*
X183448000Y-66150000D01*
X183448000Y-66150000D02*
X183448000Y-64500000D01*
X187690000Y-69790000D02*
G75*
G02X185690000Y-69790000I-1000000J0D01*
G01*
X185690000Y-69790000D02*
X184040000Y-69790000D01*
X184040000Y-69790000D02*
X184040000Y-105470000D01*
X184040000Y-105470000D02*
X189340000Y-105470000D01*
X189340000Y-105470000D02*
X189340000Y-69790000D01*
X189340000Y-69790000D02*
X187690000Y-69790000D01*
X165802000Y-112030000D02*
G75*
G02X165802000Y-114030000I0J-1000000D01*
G01*
X165802000Y-114030000D02*
X165802000Y-115680000D01*
X165802000Y-115680000D02*
X191322000Y-115680000D01*
X191322000Y-115680000D02*
X191322000Y-110380000D01*
X191322000Y-110380000D02*
X165802000Y-110380000D01*
X165802000Y-110380000D02*
X165802000Y-112030000D01*
X128152400Y-65116400D02*
G75*
G02X126152400Y-65116400I-1000000J0D01*
G01*
X126152400Y-65116400D02*
X124502400Y-65116400D01*
X124502400Y-65116400D02*
X124502400Y-75396400D01*
X124502400Y-75396400D02*
X129802400Y-75396400D01*
X129802400Y-75396400D02*
X129802400Y-65116400D01*
X129802400Y-65116400D02*
X128152400Y-65116400D01*
D14*
X101886000Y-71509000D02*
X105886000Y-71509000D01*
X100611000Y-66109000D02*
X105886000Y-66109000D01*
D17*
X130396000Y-120396000D02*
X130396000Y-115396000D01*
X135796000Y-120396000D02*
X135796000Y-115396000D01*
X135796000Y-120396000D02*
G75*
G02X130396000Y-120396000I-2700000J0D01*
G01*
X135796000Y-115396000D02*
G75*
G03X130396000Y-115396000I-2700000J0D01*
G01*
X122622000Y-131124000D02*
X125282000Y-131124000D01*
X122622000Y-131064000D02*
X122622000Y-131124000D01*
X125282000Y-131064000D02*
X125282000Y-131124000D01*
X122622000Y-131064000D02*
X125282000Y-131064000D01*
X122622000Y-129794000D02*
X122622000Y-128464000D01*
X122622000Y-128464000D02*
X123952000Y-128464000D01*
X180915000Y-128362400D02*
X180915000Y-131022400D01*
X186055000Y-128362400D02*
X180915000Y-128362400D01*
X186055000Y-131022400D02*
X180915000Y-131022400D01*
X186055000Y-128362400D02*
X186055000Y-131022400D01*
X187325000Y-128362400D02*
X188655000Y-128362400D01*
X188655000Y-128362400D02*
X188655000Y-129692400D01*
X128464000Y-128464000D02*
X128464000Y-131124000D01*
X133604000Y-128464000D02*
X128464000Y-128464000D01*
X133604000Y-131124000D02*
X128464000Y-131124000D01*
X133604000Y-128464000D02*
X133604000Y-131124000D01*
X134874000Y-128464000D02*
X136204000Y-128464000D01*
X136204000Y-128464000D02*
X136204000Y-129794000D01*
X168047360Y-46325480D02*
X168047360Y-48985480D01*
X175727360Y-46325480D02*
X168047360Y-46325480D01*
X175727360Y-48985480D02*
X168047360Y-48985480D01*
X175727360Y-46325480D02*
X175727360Y-48985480D01*
X176997360Y-46325480D02*
X178327360Y-46325480D01*
X178327360Y-46325480D02*
X178327360Y-47655480D01*
X103369000Y-61279480D02*
X103369000Y-62479480D01*
X101609000Y-62479480D02*
X101609000Y-61279480D01*
X105858200Y-61228680D02*
X105858200Y-62428680D01*
X104098200Y-62428680D02*
X104098200Y-61228680D01*
X113402000Y-76616000D02*
X113402000Y-77816000D01*
X111642000Y-77816000D02*
X111642000Y-76616000D01*
X113402000Y-83728000D02*
X113402000Y-84928000D01*
X111642000Y-84928000D02*
X111642000Y-83728000D01*
X148689000Y-48848000D02*
X148689000Y-40048000D01*
X148689000Y-40048000D02*
X157889000Y-40048000D01*
X151389000Y-54748000D02*
X148689000Y-54748000D01*
X148689000Y-54748000D02*
X148689000Y-52848000D01*
X157889000Y-40048000D02*
X157889000Y-54748000D01*
X157889000Y-54748000D02*
X155289000Y-54748000D01*
D18*
G36*
X158306968Y-48931854D02*
X158365810Y-48746413D01*
X158450063Y-48560356D01*
X158554628Y-48384924D01*
X158674404Y-48231362D01*
X158675807Y-48229814D01*
X158742121Y-48157767D01*
X158789398Y-48113250D01*
X158825648Y-48094385D01*
X158858882Y-48099292D01*
X158897112Y-48126090D01*
X158942317Y-48167286D01*
X159041246Y-48259470D01*
X158992269Y-48307814D01*
X158901054Y-48410175D01*
X158811752Y-48531815D01*
X158735554Y-48656467D01*
X158694141Y-48741184D01*
X158668418Y-48806979D01*
X158651271Y-48866268D01*
X158641041Y-48929568D01*
X158636070Y-49007398D01*
X158634699Y-49110277D01*
X158634695Y-49118158D01*
X158635887Y-49223048D01*
X158640571Y-49302199D01*
X158650405Y-49366130D01*
X158667048Y-49425360D01*
X158692157Y-49490405D01*
X158694141Y-49495131D01*
X158801159Y-49692950D01*
X158945930Y-49871887D01*
X159124732Y-50029016D01*
X159333842Y-50161413D01*
X159569536Y-50266152D01*
X159744570Y-50320468D01*
X159828310Y-50340679D01*
X159903768Y-50354152D01*
X159984331Y-50362190D01*
X160083388Y-50366095D01*
X160214324Y-50367173D01*
X160224354Y-50367176D01*
X160357851Y-50366239D01*
X160458589Y-50362558D01*
X160539956Y-50354832D01*
X160615339Y-50341756D01*
X160698124Y-50322026D01*
X160704138Y-50320468D01*
X160956638Y-50236250D01*
X161184582Y-50122559D01*
X161384417Y-49982189D01*
X161552589Y-49817933D01*
X161685543Y-49632584D01*
X161754355Y-49495131D01*
X161780948Y-49426132D01*
X161798509Y-49362849D01*
X161808895Y-49294081D01*
X161813966Y-49208629D01*
X161815394Y-49127229D01*
X161814671Y-49020518D01*
X161809486Y-48938934D01*
X161798257Y-48871391D01*
X161779399Y-48806801D01*
X161763576Y-48764372D01*
X161689956Y-48612586D01*
X161593416Y-48465717D01*
X161484248Y-48339418D01*
X161484135Y-48339307D01*
X161412022Y-48268029D01*
X161505143Y-48193478D01*
X161555885Y-48149278D01*
X161589707Y-48112967D01*
X161598263Y-48096935D01*
X161606669Y-48076815D01*
X161633239Y-48084229D01*
X161680005Y-48120348D01*
X161742834Y-48180154D01*
X161908153Y-48373498D01*
X162031963Y-48578960D01*
X162114322Y-48793014D01*
X162155290Y-49012133D01*
X162154923Y-49232793D01*
X162113282Y-49451466D01*
X162030426Y-49664628D01*
X161906412Y-49868753D01*
X161741300Y-50060314D01*
X161711017Y-50089614D01*
X161517183Y-50246726D01*
X161294932Y-50381458D01*
X161051801Y-50490559D01*
X160795328Y-50570776D01*
X160533051Y-50618859D01*
X160469256Y-50625326D01*
X160395305Y-50634861D01*
X160341056Y-50647867D01*
X160322946Y-50657367D01*
X160318164Y-50680757D01*
X160313869Y-50735166D01*
X160310262Y-50815326D01*
X160307543Y-50915973D01*
X160305912Y-51031839D01*
X160305526Y-51116317D01*
X160305173Y-51554191D01*
X160437945Y-51566643D01*
X160731076Y-51611994D01*
X161008336Y-51691176D01*
X161267678Y-51803399D01*
X161507058Y-51947874D01*
X161595875Y-52013820D01*
X161751358Y-52147237D01*
X161874167Y-52280450D01*
X161973264Y-52424949D01*
X162057613Y-52592222D01*
X162070504Y-52622260D01*
X162125188Y-52787740D01*
X162152320Y-52962828D01*
X162153154Y-53156875D01*
X162149408Y-53209372D01*
X162108784Y-53422755D01*
X162025864Y-53629475D01*
X161904395Y-53825678D01*
X161748125Y-54007511D01*
X161560801Y-54171122D01*
X161346170Y-54312657D01*
X161107980Y-54428265D01*
X160891389Y-54502817D01*
X160591645Y-54570298D01*
X160296777Y-54602058D01*
X160224354Y-54601151D01*
X160224354Y-54322871D01*
X160356977Y-54321977D01*
X160456923Y-54318402D01*
X160537665Y-54310805D01*
X160612678Y-54297843D01*
X160695434Y-54278175D01*
X160709263Y-54274585D01*
X160933716Y-54202901D01*
X161133041Y-54109750D01*
X161320344Y-53988701D01*
X161371526Y-53949636D01*
X161542548Y-53790046D01*
X161674554Y-53613017D01*
X161766204Y-53422089D01*
X161816159Y-53220805D01*
X161823082Y-53012708D01*
X161793887Y-52832143D01*
X161721748Y-52637287D01*
X161608963Y-52455442D01*
X161459405Y-52289971D01*
X161276947Y-52144240D01*
X161065464Y-52021613D01*
X160828829Y-51925452D01*
X160709263Y-51890158D01*
X160624199Y-51869375D01*
X160548886Y-51855498D01*
X160469853Y-51847186D01*
X160373625Y-51843097D01*
X160246729Y-51841889D01*
X160224354Y-51841873D01*
X160091547Y-51842776D01*
X159991395Y-51846376D01*
X159910404Y-51854012D01*
X159835081Y-51867023D01*
X159751932Y-51886748D01*
X159739445Y-51889979D01*
X159495997Y-51970668D01*
X159266531Y-52080375D01*
X159177760Y-52133732D01*
X159017574Y-52258349D01*
X158878396Y-52409278D01*
X158764676Y-52578956D01*
X158680863Y-52759823D01*
X158631407Y-52944316D01*
X158619536Y-53082372D01*
X158639890Y-53264561D01*
X158697983Y-53448874D01*
X158789368Y-53627749D01*
X158909594Y-53793623D01*
X159054211Y-53938936D01*
X159177760Y-54031012D01*
X159396320Y-54150819D01*
X159635884Y-54244655D01*
X159739445Y-54274764D01*
X159824672Y-54295492D01*
X159900262Y-54309327D01*
X159979707Y-54317607D01*
X160076504Y-54321671D01*
X160204145Y-54322858D01*
X160224354Y-54322871D01*
X160224354Y-54601151D01*
X160008776Y-54598448D01*
X159729636Y-54559813D01*
X159461349Y-54486503D01*
X159205908Y-54378867D01*
X158965304Y-54237252D01*
X158838778Y-54144021D01*
X158652438Y-53971418D01*
X158500861Y-53779436D01*
X158386522Y-53573063D01*
X158311899Y-53357288D01*
X158279467Y-53137100D01*
X158280320Y-53018872D01*
X158317105Y-52785498D01*
X158395496Y-52564206D01*
X158512541Y-52357537D01*
X158665291Y-52168031D01*
X158850794Y-51998230D01*
X159066099Y-51850674D01*
X159308257Y-51727904D01*
X159574315Y-51632460D01*
X159861323Y-51566882D01*
X159987673Y-51548826D01*
X160074263Y-51538585D01*
X160074263Y-50659950D01*
X159871123Y-50630551D01*
X159597566Y-50572972D01*
X159335340Y-50482707D01*
X159090656Y-50363129D01*
X158869725Y-50217615D01*
X158678757Y-50049540D01*
X158567759Y-49922246D01*
X158463534Y-49765767D01*
X158379053Y-49594920D01*
X158317846Y-49419678D01*
X158283443Y-49250016D01*
X158278636Y-49105433D01*
X158306968Y-48931854D01*
X158306968Y-48931854D01*
G37*
X158306968Y-48931854D02*
X158365810Y-48746413D01*
X158450063Y-48560356D01*
X158554628Y-48384924D01*
X158674404Y-48231362D01*
X158675807Y-48229814D01*
X158742121Y-48157767D01*
X158789398Y-48113250D01*
X158825648Y-48094385D01*
X158858882Y-48099292D01*
X158897112Y-48126090D01*
X158942317Y-48167286D01*
X159041246Y-48259470D01*
X158992269Y-48307814D01*
X158901054Y-48410175D01*
X158811752Y-48531815D01*
X158735554Y-48656467D01*
X158694141Y-48741184D01*
X158668418Y-48806979D01*
X158651271Y-48866268D01*
X158641041Y-48929568D01*
X158636070Y-49007398D01*
X158634699Y-49110277D01*
X158634695Y-49118158D01*
X158635887Y-49223048D01*
X158640571Y-49302199D01*
X158650405Y-49366130D01*
X158667048Y-49425360D01*
X158692157Y-49490405D01*
X158694141Y-49495131D01*
X158801159Y-49692950D01*
X158945930Y-49871887D01*
X159124732Y-50029016D01*
X159333842Y-50161413D01*
X159569536Y-50266152D01*
X159744570Y-50320468D01*
X159828310Y-50340679D01*
X159903768Y-50354152D01*
X159984331Y-50362190D01*
X160083388Y-50366095D01*
X160214324Y-50367173D01*
X160224354Y-50367176D01*
X160357851Y-50366239D01*
X160458589Y-50362558D01*
X160539956Y-50354832D01*
X160615339Y-50341756D01*
X160698124Y-50322026D01*
X160704138Y-50320468D01*
X160956638Y-50236250D01*
X161184582Y-50122559D01*
X161384417Y-49982189D01*
X161552589Y-49817933D01*
X161685543Y-49632584D01*
X161754355Y-49495131D01*
X161780948Y-49426132D01*
X161798509Y-49362849D01*
X161808895Y-49294081D01*
X161813966Y-49208629D01*
X161815394Y-49127229D01*
X161814671Y-49020518D01*
X161809486Y-48938934D01*
X161798257Y-48871391D01*
X161779399Y-48806801D01*
X161763576Y-48764372D01*
X161689956Y-48612586D01*
X161593416Y-48465717D01*
X161484248Y-48339418D01*
X161484135Y-48339307D01*
X161412022Y-48268029D01*
X161505143Y-48193478D01*
X161555885Y-48149278D01*
X161589707Y-48112967D01*
X161598263Y-48096935D01*
X161606669Y-48076815D01*
X161633239Y-48084229D01*
X161680005Y-48120348D01*
X161742834Y-48180154D01*
X161908153Y-48373498D01*
X162031963Y-48578960D01*
X162114322Y-48793014D01*
X162155290Y-49012133D01*
X162154923Y-49232793D01*
X162113282Y-49451466D01*
X162030426Y-49664628D01*
X161906412Y-49868753D01*
X161741300Y-50060314D01*
X161711017Y-50089614D01*
X161517183Y-50246726D01*
X161294932Y-50381458D01*
X161051801Y-50490559D01*
X160795328Y-50570776D01*
X160533051Y-50618859D01*
X160469256Y-50625326D01*
X160395305Y-50634861D01*
X160341056Y-50647867D01*
X160322946Y-50657367D01*
X160318164Y-50680757D01*
X160313869Y-50735166D01*
X160310262Y-50815326D01*
X160307543Y-50915973D01*
X160305912Y-51031839D01*
X160305526Y-51116317D01*
X160305173Y-51554191D01*
X160437945Y-51566643D01*
X160731076Y-51611994D01*
X161008336Y-51691176D01*
X161267678Y-51803399D01*
X161507058Y-51947874D01*
X161595875Y-52013820D01*
X161751358Y-52147237D01*
X161874167Y-52280450D01*
X161973264Y-52424949D01*
X162057613Y-52592222D01*
X162070504Y-52622260D01*
X162125188Y-52787740D01*
X162152320Y-52962828D01*
X162153154Y-53156875D01*
X162149408Y-53209372D01*
X162108784Y-53422755D01*
X162025864Y-53629475D01*
X161904395Y-53825678D01*
X161748125Y-54007511D01*
X161560801Y-54171122D01*
X161346170Y-54312657D01*
X161107980Y-54428265D01*
X160891389Y-54502817D01*
X160591645Y-54570298D01*
X160296777Y-54602058D01*
X160224354Y-54601151D01*
X160224354Y-54322871D01*
X160356977Y-54321977D01*
X160456923Y-54318402D01*
X160537665Y-54310805D01*
X160612678Y-54297843D01*
X160695434Y-54278175D01*
X160709263Y-54274585D01*
X160933716Y-54202901D01*
X161133041Y-54109750D01*
X161320344Y-53988701D01*
X161371526Y-53949636D01*
X161542548Y-53790046D01*
X161674554Y-53613017D01*
X161766204Y-53422089D01*
X161816159Y-53220805D01*
X161823082Y-53012708D01*
X161793887Y-52832143D01*
X161721748Y-52637287D01*
X161608963Y-52455442D01*
X161459405Y-52289971D01*
X161276947Y-52144240D01*
X161065464Y-52021613D01*
X160828829Y-51925452D01*
X160709263Y-51890158D01*
X160624199Y-51869375D01*
X160548886Y-51855498D01*
X160469853Y-51847186D01*
X160373625Y-51843097D01*
X160246729Y-51841889D01*
X160224354Y-51841873D01*
X160091547Y-51842776D01*
X159991395Y-51846376D01*
X159910404Y-51854012D01*
X159835081Y-51867023D01*
X159751932Y-51886748D01*
X159739445Y-51889979D01*
X159495997Y-51970668D01*
X159266531Y-52080375D01*
X159177760Y-52133732D01*
X159017574Y-52258349D01*
X158878396Y-52409278D01*
X158764676Y-52578956D01*
X158680863Y-52759823D01*
X158631407Y-52944316D01*
X158619536Y-53082372D01*
X158639890Y-53264561D01*
X158697983Y-53448874D01*
X158789368Y-53627749D01*
X158909594Y-53793623D01*
X159054211Y-53938936D01*
X159177760Y-54031012D01*
X159396320Y-54150819D01*
X159635884Y-54244655D01*
X159739445Y-54274764D01*
X159824672Y-54295492D01*
X159900262Y-54309327D01*
X159979707Y-54317607D01*
X160076504Y-54321671D01*
X160204145Y-54322858D01*
X160224354Y-54322871D01*
X160224354Y-54601151D01*
X160008776Y-54598448D01*
X159729636Y-54559813D01*
X159461349Y-54486503D01*
X159205908Y-54378867D01*
X158965304Y-54237252D01*
X158838778Y-54144021D01*
X158652438Y-53971418D01*
X158500861Y-53779436D01*
X158386522Y-53573063D01*
X158311899Y-53357288D01*
X158279467Y-53137100D01*
X158280320Y-53018872D01*
X158317105Y-52785498D01*
X158395496Y-52564206D01*
X158512541Y-52357537D01*
X158665291Y-52168031D01*
X158850794Y-51998230D01*
X159066099Y-51850674D01*
X159308257Y-51727904D01*
X159574315Y-51632460D01*
X159861323Y-51566882D01*
X159987673Y-51548826D01*
X160074263Y-51538585D01*
X160074263Y-50659950D01*
X159871123Y-50630551D01*
X159597566Y-50572972D01*
X159335340Y-50482707D01*
X159090656Y-50363129D01*
X158869725Y-50217615D01*
X158678757Y-50049540D01*
X158567759Y-49922246D01*
X158463534Y-49765767D01*
X158379053Y-49594920D01*
X158317846Y-49419678D01*
X158283443Y-49250016D01*
X158278636Y-49105433D01*
X158306968Y-48931854D01*
G36*
X158280101Y-45798091D02*
X158299198Y-45673630D01*
X158332990Y-45539607D01*
X158379623Y-45403703D01*
X158437239Y-45273599D01*
X158488094Y-45181922D01*
X158638117Y-44978327D01*
X158820823Y-44798892D01*
X159032814Y-44645429D01*
X159270695Y-44519755D01*
X159531066Y-44423683D01*
X159810531Y-44359028D01*
X160085809Y-44328617D01*
X160381885Y-44330126D01*
X160670109Y-44366670D01*
X160946563Y-44437127D01*
X161207328Y-44540379D01*
X161448485Y-44675306D01*
X161551427Y-44747455D01*
X161757852Y-44925877D01*
X161922401Y-45119231D01*
X162044468Y-45326210D01*
X162123444Y-45545508D01*
X162158720Y-45775818D01*
X162149688Y-46015835D01*
X162147990Y-46028593D01*
X162095432Y-46244082D01*
X161999596Y-46451774D01*
X161863027Y-46648374D01*
X161688274Y-46830591D01*
X161477881Y-46995129D01*
X161329170Y-47087666D01*
X161185955Y-47159381D01*
X161023797Y-47224481D01*
X160854513Y-47279398D01*
X160689925Y-47320561D01*
X160541852Y-47344402D01*
X160463923Y-47348918D01*
X160406857Y-47352751D01*
X160379258Y-47370043D01*
X160365786Y-47405925D01*
X160362152Y-47438008D01*
X160358854Y-47501344D01*
X160356011Y-47590900D01*
X160353742Y-47701646D01*
X160352168Y-47828548D01*
X160351407Y-47966575D01*
X160351354Y-48013711D01*
X160351508Y-48169876D01*
X160352153Y-48293523D01*
X160353566Y-48388418D01*
X160356023Y-48458329D01*
X160359800Y-48507022D01*
X160365173Y-48538264D01*
X160372418Y-48555823D01*
X160381811Y-48563465D01*
X160391763Y-48564978D01*
X160467383Y-48578226D01*
X160560672Y-48613608D01*
X160659698Y-48665407D01*
X160752529Y-48727905D01*
X160782435Y-48752180D01*
X160891978Y-48870144D01*
X160960168Y-48997745D01*
X160985971Y-49130513D01*
X160968359Y-49263979D01*
X160923894Y-49365564D01*
X160827985Y-49492941D01*
X160708716Y-49592708D01*
X160571765Y-49665244D01*
X160422809Y-49710929D01*
X160303676Y-49725669D01*
X160303676Y-47054796D01*
X160551168Y-47031178D01*
X160789690Y-46977406D01*
X161014510Y-46894772D01*
X161220894Y-46784568D01*
X161404108Y-46648087D01*
X161559419Y-46486622D01*
X161648662Y-46359976D01*
X161744810Y-46162320D01*
X161795876Y-45959192D01*
X161801483Y-45752991D01*
X161771093Y-45580300D01*
X161696172Y-45387649D01*
X161580596Y-45207339D01*
X161428733Y-45043644D01*
X161244955Y-44900836D01*
X161033631Y-44783188D01*
X160899266Y-44727838D01*
X160646383Y-44655444D01*
X160386726Y-44618074D01*
X160124884Y-44615699D01*
X159865444Y-44648288D01*
X159612996Y-44715809D01*
X159554718Y-44736919D01*
X159325945Y-44840902D01*
X159132218Y-44966217D01*
X158969243Y-45116275D01*
X158832727Y-45294489D01*
X158812457Y-45326821D01*
X158721821Y-45515376D01*
X158674496Y-45708307D01*
X158668771Y-45901911D01*
X158702933Y-46092487D01*
X158775271Y-46276334D01*
X158884073Y-46449749D01*
X159027627Y-46609031D01*
X159204220Y-46750478D01*
X159412142Y-46870390D01*
X159554718Y-46931795D01*
X159800717Y-47006397D01*
X160051948Y-47046967D01*
X160303676Y-47054796D01*
X160303676Y-49725669D01*
X160267524Y-49730143D01*
X160111588Y-49723267D01*
X159960678Y-49690679D01*
X159820470Y-49632760D01*
X159696642Y-49549890D01*
X159594870Y-49442448D01*
X159520832Y-49310814D01*
X159506176Y-49270694D01*
X159483908Y-49134306D01*
X159504972Y-49002726D01*
X159566548Y-48879453D01*
X159665817Y-48767986D01*
X159799958Y-48671826D01*
X159966152Y-48594470D01*
X160080036Y-48558551D01*
X160091172Y-48553373D01*
X160100061Y-48541931D01*
X160106956Y-48520512D01*
X160112105Y-48485402D01*
X160115760Y-48432888D01*
X160118170Y-48359256D01*
X160119588Y-48260792D01*
X160120262Y-48133782D01*
X160120444Y-47974513D01*
X160120445Y-47959525D01*
X160120517Y-47794556D01*
X160120190Y-47662273D01*
X160118652Y-47559080D01*
X160115090Y-47481378D01*
X160108692Y-47425571D01*
X160098646Y-47388060D01*
X160084137Y-47365248D01*
X160064355Y-47353537D01*
X160038486Y-47349331D01*
X160005718Y-47349030D01*
X159982594Y-47349229D01*
X159916449Y-47342824D01*
X159820559Y-47325657D01*
X159707870Y-47300800D01*
X159591332Y-47271325D01*
X159483891Y-47240303D01*
X159398497Y-47210808D01*
X159397527Y-47210423D01*
X159138952Y-47088233D01*
X158910041Y-46940061D01*
X158713663Y-46768707D01*
X158552682Y-46576966D01*
X158429966Y-46367637D01*
X158365543Y-46203265D01*
X158340256Y-46124439D01*
X158315818Y-46051024D01*
X158296692Y-45996366D01*
X158293418Y-45987601D01*
X158277556Y-45905309D01*
X158280101Y-45798091D01*
X158280101Y-45798091D01*
G37*
X158280101Y-45798091D02*
X158299198Y-45673630D01*
X158332990Y-45539607D01*
X158379623Y-45403703D01*
X158437239Y-45273599D01*
X158488094Y-45181922D01*
X158638117Y-44978327D01*
X158820823Y-44798892D01*
X159032814Y-44645429D01*
X159270695Y-44519755D01*
X159531066Y-44423683D01*
X159810531Y-44359028D01*
X160085809Y-44328617D01*
X160381885Y-44330126D01*
X160670109Y-44366670D01*
X160946563Y-44437127D01*
X161207328Y-44540379D01*
X161448485Y-44675306D01*
X161551427Y-44747455D01*
X161757852Y-44925877D01*
X161922401Y-45119231D01*
X162044468Y-45326210D01*
X162123444Y-45545508D01*
X162158720Y-45775818D01*
X162149688Y-46015835D01*
X162147990Y-46028593D01*
X162095432Y-46244082D01*
X161999596Y-46451774D01*
X161863027Y-46648374D01*
X161688274Y-46830591D01*
X161477881Y-46995129D01*
X161329170Y-47087666D01*
X161185955Y-47159381D01*
X161023797Y-47224481D01*
X160854513Y-47279398D01*
X160689925Y-47320561D01*
X160541852Y-47344402D01*
X160463923Y-47348918D01*
X160406857Y-47352751D01*
X160379258Y-47370043D01*
X160365786Y-47405925D01*
X160362152Y-47438008D01*
X160358854Y-47501344D01*
X160356011Y-47590900D01*
X160353742Y-47701646D01*
X160352168Y-47828548D01*
X160351407Y-47966575D01*
X160351354Y-48013711D01*
X160351508Y-48169876D01*
X160352153Y-48293523D01*
X160353566Y-48388418D01*
X160356023Y-48458329D01*
X160359800Y-48507022D01*
X160365173Y-48538264D01*
X160372418Y-48555823D01*
X160381811Y-48563465D01*
X160391763Y-48564978D01*
X160467383Y-48578226D01*
X160560672Y-48613608D01*
X160659698Y-48665407D01*
X160752529Y-48727905D01*
X160782435Y-48752180D01*
X160891978Y-48870144D01*
X160960168Y-48997745D01*
X160985971Y-49130513D01*
X160968359Y-49263979D01*
X160923894Y-49365564D01*
X160827985Y-49492941D01*
X160708716Y-49592708D01*
X160571765Y-49665244D01*
X160422809Y-49710929D01*
X160303676Y-49725669D01*
X160303676Y-47054796D01*
X160551168Y-47031178D01*
X160789690Y-46977406D01*
X161014510Y-46894772D01*
X161220894Y-46784568D01*
X161404108Y-46648087D01*
X161559419Y-46486622D01*
X161648662Y-46359976D01*
X161744810Y-46162320D01*
X161795876Y-45959192D01*
X161801483Y-45752991D01*
X161771093Y-45580300D01*
X161696172Y-45387649D01*
X161580596Y-45207339D01*
X161428733Y-45043644D01*
X161244955Y-44900836D01*
X161033631Y-44783188D01*
X160899266Y-44727838D01*
X160646383Y-44655444D01*
X160386726Y-44618074D01*
X160124884Y-44615699D01*
X159865444Y-44648288D01*
X159612996Y-44715809D01*
X159554718Y-44736919D01*
X159325945Y-44840902D01*
X159132218Y-44966217D01*
X158969243Y-45116275D01*
X158832727Y-45294489D01*
X158812457Y-45326821D01*
X158721821Y-45515376D01*
X158674496Y-45708307D01*
X158668771Y-45901911D01*
X158702933Y-46092487D01*
X158775271Y-46276334D01*
X158884073Y-46449749D01*
X159027627Y-46609031D01*
X159204220Y-46750478D01*
X159412142Y-46870390D01*
X159554718Y-46931795D01*
X159800717Y-47006397D01*
X160051948Y-47046967D01*
X160303676Y-47054796D01*
X160303676Y-49725669D01*
X160267524Y-49730143D01*
X160111588Y-49723267D01*
X159960678Y-49690679D01*
X159820470Y-49632760D01*
X159696642Y-49549890D01*
X159594870Y-49442448D01*
X159520832Y-49310814D01*
X159506176Y-49270694D01*
X159483908Y-49134306D01*
X159504972Y-49002726D01*
X159566548Y-48879453D01*
X159665817Y-48767986D01*
X159799958Y-48671826D01*
X159966152Y-48594470D01*
X160080036Y-48558551D01*
X160091172Y-48553373D01*
X160100061Y-48541931D01*
X160106956Y-48520512D01*
X160112105Y-48485402D01*
X160115760Y-48432888D01*
X160118170Y-48359256D01*
X160119588Y-48260792D01*
X160120262Y-48133782D01*
X160120444Y-47974513D01*
X160120445Y-47959525D01*
X160120517Y-47794556D01*
X160120190Y-47662273D01*
X160118652Y-47559080D01*
X160115090Y-47481378D01*
X160108692Y-47425571D01*
X160098646Y-47388060D01*
X160084137Y-47365248D01*
X160064355Y-47353537D01*
X160038486Y-47349331D01*
X160005718Y-47349030D01*
X159982594Y-47349229D01*
X159916449Y-47342824D01*
X159820559Y-47325657D01*
X159707870Y-47300800D01*
X159591332Y-47271325D01*
X159483891Y-47240303D01*
X159398497Y-47210808D01*
X159397527Y-47210423D01*
X159138952Y-47088233D01*
X158910041Y-46940061D01*
X158713663Y-46768707D01*
X158552682Y-46576966D01*
X158429966Y-46367637D01*
X158365543Y-46203265D01*
X158340256Y-46124439D01*
X158315818Y-46051024D01*
X158296692Y-45996366D01*
X158293418Y-45987601D01*
X158277556Y-45905309D01*
X158280101Y-45798091D01*
G36*
X160420627Y-52556229D02*
X160420627Y-53662943D01*
X160051173Y-53662943D01*
X160051173Y-52556229D01*
X160420627Y-52556229D01*
X160420627Y-52556229D01*
G37*
X160420627Y-52556229D02*
X160420627Y-53662943D01*
X160051173Y-53662943D01*
X160051173Y-52556229D01*
X160420627Y-52556229D01*
G36*
X159802945Y-45748571D02*
X160178173Y-45743586D01*
X160184478Y-45421550D01*
X160190784Y-45099515D01*
X160397536Y-45099515D01*
X160397536Y-45751780D01*
X160784309Y-45756755D01*
X161171082Y-45761729D01*
X161178129Y-45848093D01*
X161177085Y-45910600D01*
X161160683Y-45940717D01*
X161155038Y-45943170D01*
X161122434Y-45946475D01*
X161052408Y-45949841D01*
X160953717Y-45952966D01*
X160835120Y-45955547D01*
X160766991Y-45956593D01*
X160409082Y-45961300D01*
X160402776Y-46283336D01*
X160396471Y-46605372D01*
X160190784Y-46605372D01*
X160184478Y-46283336D01*
X160178173Y-45961300D01*
X159802945Y-45956315D01*
X159427718Y-45951330D01*
X159427718Y-45753556D01*
X159802945Y-45748571D01*
X159802945Y-45748571D01*
G37*
X159802945Y-45748571D02*
X160178173Y-45743586D01*
X160184478Y-45421550D01*
X160190784Y-45099515D01*
X160397536Y-45099515D01*
X160397536Y-45751780D01*
X160784309Y-45756755D01*
X161171082Y-45761729D01*
X161178129Y-45848093D01*
X161177085Y-45910600D01*
X161160683Y-45940717D01*
X161155038Y-45943170D01*
X161122434Y-45946475D01*
X161052408Y-45949841D01*
X160953717Y-45952966D01*
X160835120Y-45955547D01*
X160766991Y-45956593D01*
X160409082Y-45961300D01*
X160402776Y-46283336D01*
X160396471Y-46605372D01*
X160190784Y-46605372D01*
X160184478Y-46283336D01*
X160178173Y-45961300D01*
X159802945Y-45956315D01*
X159427718Y-45951330D01*
X159427718Y-45753556D01*
X159802945Y-45748571D01*
D10*
X102242600Y-75381400D02*
X101917600Y-75681400D01*
X101917600Y-75681400D02*
X101517600Y-75681400D01*
X103517600Y-75681400D02*
X103517600Y-75381400D01*
X103517600Y-75381400D02*
X103217600Y-75381400D01*
X101917600Y-77556400D02*
X101917600Y-77831400D01*
X101917600Y-77831400D02*
X102167600Y-77831400D01*
X103517600Y-77531400D02*
X103517600Y-77831400D01*
X103517600Y-77831400D02*
X103292600Y-77831400D01*
X97188000Y-75470300D02*
X96863000Y-75770300D01*
X96863000Y-75770300D02*
X96463000Y-75770300D01*
X98463000Y-75770300D02*
X98463000Y-75470300D01*
X98463000Y-75470300D02*
X98163000Y-75470300D01*
X96863000Y-77645300D02*
X96863000Y-77920300D01*
X96863000Y-77920300D02*
X97113000Y-77920300D01*
X98463000Y-77620300D02*
X98463000Y-77920300D01*
X98463000Y-77920300D02*
X98238000Y-77920300D01*
D17*
X128819600Y-56600400D02*
X134019600Y-56600400D01*
X128819600Y-48920400D02*
X128819600Y-56600400D01*
X134019600Y-46320400D02*
X134019600Y-56600400D01*
X128819600Y-48920400D02*
X131419600Y-48920400D01*
X131419600Y-48920400D02*
X131419600Y-46320400D01*
X131419600Y-46320400D02*
X134019600Y-46320400D01*
X128819600Y-47650400D02*
X128819600Y-46320400D01*
X128819600Y-46320400D02*
X130149600Y-46320400D01*
X133385000Y-102625000D02*
X134585000Y-102625000D01*
X134585000Y-104385000D02*
X133385000Y-104385000D01*
X134483400Y-107255200D02*
X133283400Y-107255200D01*
X133283400Y-105495200D02*
X134483400Y-105495200D01*
X128254000Y-77537000D02*
G75*
G02X126254000Y-77537000I-1000000J0D01*
G01*
X126254000Y-77537000D02*
X124604000Y-77537000D01*
X124604000Y-77537000D02*
X124604000Y-100517000D01*
X124604000Y-100517000D02*
X129904000Y-100517000D01*
X129904000Y-100517000D02*
X129904000Y-77537000D01*
X129904000Y-77537000D02*
X128254000Y-77537000D01*
X155718200Y-128311600D02*
X155718200Y-130971600D01*
X176098200Y-128311600D02*
X155718200Y-128311600D01*
X176098200Y-130971600D02*
X155718200Y-130971600D01*
X176098200Y-128311600D02*
X176098200Y-130971600D01*
X177368200Y-128311600D02*
X178698200Y-128311600D01*
X178698200Y-128311600D02*
X178698200Y-129641600D01*
X99077600Y-53880400D02*
X99077600Y-58140400D01*
X99077600Y-58140400D02*
X111397600Y-58140400D01*
X111397600Y-58140400D02*
X111397600Y-53880400D01*
X99077600Y-49780400D02*
X99077600Y-41420400D01*
X99077600Y-41420400D02*
X111397600Y-41420400D01*
X111397600Y-41420400D02*
X111397600Y-49780400D01*
X103987600Y-58360400D02*
X103487600Y-58860400D01*
X103487600Y-58860400D02*
X104487600Y-58860400D01*
X104487600Y-58860400D02*
X103987600Y-58360400D01*
D14*
X119962705Y-86101181D02*
X119962705Y-85101181D01*
X120200800Y-85101181D01*
X120343658Y-85148800D01*
X120438896Y-85244038D01*
X120486515Y-85339276D01*
X120534134Y-85529752D01*
X120534134Y-85672610D01*
X120486515Y-85863086D01*
X120438896Y-85958324D01*
X120343658Y-86053562D01*
X120200800Y-86101181D01*
X119962705Y-86101181D01*
X120867467Y-85101181D02*
X121486515Y-85101181D01*
X121153181Y-85482133D01*
X121296039Y-85482133D01*
X121391277Y-85529752D01*
X121438896Y-85577371D01*
X121486515Y-85672610D01*
X121486515Y-85910705D01*
X121438896Y-86005943D01*
X121391277Y-86053562D01*
X121296039Y-86101181D01*
X121010324Y-86101181D01*
X120915086Y-86053562D01*
X120867467Y-86005943D01*
X114365609Y-95456690D02*
X114365609Y-95932881D01*
X114032276Y-94932881D02*
X114365609Y-95456690D01*
X114698943Y-94932881D01*
X114984657Y-95028119D02*
X115032276Y-94980500D01*
X115127514Y-94932881D01*
X115365610Y-94932881D01*
X115460848Y-94980500D01*
X115508467Y-95028119D01*
X115556086Y-95123357D01*
X115556086Y-95218595D01*
X115508467Y-95361452D01*
X114937038Y-95932881D01*
X115556086Y-95932881D01*
X143575043Y-56580066D02*
X143622662Y-56627685D01*
X143670281Y-56770542D01*
X143670281Y-56865780D01*
X143622662Y-57008638D01*
X143527424Y-57103876D01*
X143432186Y-57151495D01*
X143241710Y-57199114D01*
X143098852Y-57199114D01*
X142908376Y-57151495D01*
X142813138Y-57103876D01*
X142717900Y-57008638D01*
X142670281Y-56865780D01*
X142670281Y-56770542D01*
X142717900Y-56627685D01*
X142765519Y-56580066D01*
X143670281Y-55627685D02*
X143670281Y-56199114D01*
X143670281Y-55913400D02*
X142670281Y-55913400D01*
X142813138Y-56008638D01*
X142908376Y-56103876D01*
X142955995Y-56199114D01*
X127336823Y-114730826D02*
X127384442Y-114778445D01*
X127432061Y-114921302D01*
X127432061Y-115016540D01*
X127384442Y-115159398D01*
X127289204Y-115254636D01*
X127193966Y-115302255D01*
X127003490Y-115349874D01*
X126860632Y-115349874D01*
X126670156Y-115302255D01*
X126574918Y-115254636D01*
X126479680Y-115159398D01*
X126432061Y-115016540D01*
X126432061Y-114921302D01*
X126479680Y-114778445D01*
X126527299Y-114730826D01*
X126527299Y-114349874D02*
X126479680Y-114302255D01*
X126432061Y-114207017D01*
X126432061Y-113968921D01*
X126479680Y-113873683D01*
X126527299Y-113826064D01*
X126622537Y-113778445D01*
X126717775Y-113778445D01*
X126860632Y-113826064D01*
X127432061Y-114397493D01*
X127432061Y-113778445D01*
X127258143Y-121451666D02*
X127305762Y-121499285D01*
X127353381Y-121642142D01*
X127353381Y-121737380D01*
X127305762Y-121880238D01*
X127210524Y-121975476D01*
X127115286Y-122023095D01*
X126924810Y-122070714D01*
X126781952Y-122070714D01*
X126591476Y-122023095D01*
X126496238Y-121975476D01*
X126401000Y-121880238D01*
X126353381Y-121737380D01*
X126353381Y-121642142D01*
X126401000Y-121499285D01*
X126448619Y-121451666D01*
X126353381Y-121118333D02*
X126353381Y-120499285D01*
X126734333Y-120832619D01*
X126734333Y-120689761D01*
X126781952Y-120594523D01*
X126829571Y-120546904D01*
X126924810Y-120499285D01*
X127162905Y-120499285D01*
X127258143Y-120546904D01*
X127305762Y-120594523D01*
X127353381Y-120689761D01*
X127353381Y-120975476D01*
X127305762Y-121070714D01*
X127258143Y-121118333D01*
X143633463Y-63686986D02*
X143681082Y-63734605D01*
X143728701Y-63877462D01*
X143728701Y-63972700D01*
X143681082Y-64115558D01*
X143585844Y-64210796D01*
X143490606Y-64258415D01*
X143300130Y-64306034D01*
X143157272Y-64306034D01*
X142966796Y-64258415D01*
X142871558Y-64210796D01*
X142776320Y-64115558D01*
X142728701Y-63972700D01*
X142728701Y-63877462D01*
X142776320Y-63734605D01*
X142823939Y-63686986D01*
X143062034Y-62829843D02*
X143728701Y-62829843D01*
X142681082Y-63067939D02*
X143395368Y-63306034D01*
X143395368Y-62686986D01*
X156195734Y-72818263D02*
X156148115Y-72865882D01*
X156005258Y-72913501D01*
X155910020Y-72913501D01*
X155767162Y-72865882D01*
X155671924Y-72770644D01*
X155624305Y-72675406D01*
X155576686Y-72484930D01*
X155576686Y-72342072D01*
X155624305Y-72151596D01*
X155671924Y-72056358D01*
X155767162Y-71961120D01*
X155910020Y-71913501D01*
X156005258Y-71913501D01*
X156148115Y-71961120D01*
X156195734Y-72008739D01*
X157100496Y-71913501D02*
X156624305Y-71913501D01*
X156576686Y-72389691D01*
X156624305Y-72342072D01*
X156719543Y-72294453D01*
X156957639Y-72294453D01*
X157052877Y-72342072D01*
X157100496Y-72389691D01*
X157148115Y-72484930D01*
X157148115Y-72723025D01*
X157100496Y-72818263D01*
X157052877Y-72865882D01*
X156957639Y-72913501D01*
X156719543Y-72913501D01*
X156624305Y-72865882D01*
X156576686Y-72818263D01*
X107432814Y-111738743D02*
X107385195Y-111786362D01*
X107242338Y-111833981D01*
X107147100Y-111833981D01*
X107004242Y-111786362D01*
X106909004Y-111691124D01*
X106861385Y-111595886D01*
X106813766Y-111405410D01*
X106813766Y-111262552D01*
X106861385Y-111072076D01*
X106909004Y-110976838D01*
X107004242Y-110881600D01*
X107147100Y-110833981D01*
X107242338Y-110833981D01*
X107385195Y-110881600D01*
X107432814Y-110929219D01*
X108289957Y-110833981D02*
X108099480Y-110833981D01*
X108004242Y-110881600D01*
X107956623Y-110929219D01*
X107861385Y-111072076D01*
X107813766Y-111262552D01*
X107813766Y-111643505D01*
X107861385Y-111738743D01*
X107909004Y-111786362D01*
X108004242Y-111833981D01*
X108194719Y-111833981D01*
X108289957Y-111786362D01*
X108337576Y-111738743D01*
X108385195Y-111643505D01*
X108385195Y-111405410D01*
X108337576Y-111310171D01*
X108289957Y-111262552D01*
X108194719Y-111214933D01*
X108004242Y-111214933D01*
X107909004Y-111262552D01*
X107861385Y-111310171D01*
X107813766Y-111405410D01*
X186975454Y-66605423D02*
X186927835Y-66653042D01*
X186784978Y-66700661D01*
X186689740Y-66700661D01*
X186546882Y-66653042D01*
X186451644Y-66557804D01*
X186404025Y-66462566D01*
X186356406Y-66272090D01*
X186356406Y-66129232D01*
X186404025Y-65938756D01*
X186451644Y-65843518D01*
X186546882Y-65748280D01*
X186689740Y-65700661D01*
X186784978Y-65700661D01*
X186927835Y-65748280D01*
X186975454Y-65795899D01*
X187308787Y-65700661D02*
X187975454Y-65700661D01*
X187546882Y-66700661D01*
X175296534Y-70664343D02*
X175248915Y-70711962D01*
X175106058Y-70759581D01*
X175010820Y-70759581D01*
X174867962Y-70711962D01*
X174772724Y-70616724D01*
X174725105Y-70521486D01*
X174677486Y-70331010D01*
X174677486Y-70188152D01*
X174725105Y-69997676D01*
X174772724Y-69902438D01*
X174867962Y-69807200D01*
X175010820Y-69759581D01*
X175106058Y-69759581D01*
X175248915Y-69807200D01*
X175296534Y-69854819D01*
X175867962Y-70188152D02*
X175772724Y-70140533D01*
X175725105Y-70092914D01*
X175677486Y-69997676D01*
X175677486Y-69950057D01*
X175725105Y-69854819D01*
X175772724Y-69807200D01*
X175867962Y-69759581D01*
X176058439Y-69759581D01*
X176153677Y-69807200D01*
X176201296Y-69854819D01*
X176248915Y-69950057D01*
X176248915Y-69997676D01*
X176201296Y-70092914D01*
X176153677Y-70140533D01*
X176058439Y-70188152D01*
X175867962Y-70188152D01*
X175772724Y-70235771D01*
X175725105Y-70283390D01*
X175677486Y-70378629D01*
X175677486Y-70569105D01*
X175725105Y-70664343D01*
X175772724Y-70711962D01*
X175867962Y-70759581D01*
X176058439Y-70759581D01*
X176153677Y-70711962D01*
X176201296Y-70664343D01*
X176248915Y-70569105D01*
X176248915Y-70378629D01*
X176201296Y-70283390D01*
X176153677Y-70235771D01*
X176058439Y-70188152D01*
X190191094Y-64283863D02*
X190143475Y-64331482D01*
X190000618Y-64379101D01*
X189905380Y-64379101D01*
X189762522Y-64331482D01*
X189667284Y-64236244D01*
X189619665Y-64141006D01*
X189572046Y-63950530D01*
X189572046Y-63807672D01*
X189619665Y-63617196D01*
X189667284Y-63521958D01*
X189762522Y-63426720D01*
X189905380Y-63379101D01*
X190000618Y-63379101D01*
X190143475Y-63426720D01*
X190191094Y-63474339D01*
X190667284Y-64379101D02*
X190857760Y-64379101D01*
X190952999Y-64331482D01*
X191000618Y-64283863D01*
X191095856Y-64141006D01*
X191143475Y-63950530D01*
X191143475Y-63569577D01*
X191095856Y-63474339D01*
X191048237Y-63426720D01*
X190952999Y-63379101D01*
X190762522Y-63379101D01*
X190667284Y-63426720D01*
X190619665Y-63474339D01*
X190572046Y-63569577D01*
X190572046Y-63807672D01*
X190619665Y-63902910D01*
X190667284Y-63950530D01*
X190762522Y-63998149D01*
X190952999Y-63998149D01*
X191048237Y-63950530D01*
X191095856Y-63902910D01*
X191143475Y-63807672D01*
X164965143Y-54741143D02*
X164917524Y-54788762D01*
X164774667Y-54836381D01*
X164679429Y-54836381D01*
X164536571Y-54788762D01*
X164441333Y-54693524D01*
X164393714Y-54598286D01*
X164346095Y-54407810D01*
X164346095Y-54264952D01*
X164393714Y-54074476D01*
X164441333Y-53979238D01*
X164536571Y-53884000D01*
X164679429Y-53836381D01*
X164774667Y-53836381D01*
X164917524Y-53884000D01*
X164965143Y-53931619D01*
X165917524Y-54836381D02*
X165346095Y-54836381D01*
X165631809Y-54836381D02*
X165631809Y-53836381D01*
X165536571Y-53979238D01*
X165441333Y-54074476D01*
X165346095Y-54122095D01*
X166536571Y-53836381D02*
X166631810Y-53836381D01*
X166727048Y-53884000D01*
X166774667Y-53931619D01*
X166822286Y-54026857D01*
X166869905Y-54217333D01*
X166869905Y-54455429D01*
X166822286Y-54645905D01*
X166774667Y-54741143D01*
X166727048Y-54788762D01*
X166631810Y-54836381D01*
X166536571Y-54836381D01*
X166441333Y-54788762D01*
X166393714Y-54741143D01*
X166346095Y-54645905D01*
X166298476Y-54455429D01*
X166298476Y-54217333D01*
X166346095Y-54026857D01*
X166393714Y-53931619D01*
X166441333Y-53884000D01*
X166536571Y-53836381D01*
X112574343Y-93022657D02*
X112621962Y-93070276D01*
X112669581Y-93213133D01*
X112669581Y-93308371D01*
X112621962Y-93451229D01*
X112526724Y-93546467D01*
X112431486Y-93594086D01*
X112241010Y-93641705D01*
X112098152Y-93641705D01*
X111907676Y-93594086D01*
X111812438Y-93546467D01*
X111717200Y-93451229D01*
X111669581Y-93308371D01*
X111669581Y-93213133D01*
X111717200Y-93070276D01*
X111764819Y-93022657D01*
X112669581Y-92070276D02*
X112669581Y-92641705D01*
X112669581Y-92355991D02*
X111669581Y-92355991D01*
X111812438Y-92451229D01*
X111907676Y-92546467D01*
X111955295Y-92641705D01*
X112669581Y-91117895D02*
X112669581Y-91689324D01*
X112669581Y-91403610D02*
X111669581Y-91403610D01*
X111812438Y-91498848D01*
X111907676Y-91594086D01*
X111955295Y-91689324D01*
X112602343Y-99029757D02*
X112649962Y-99077376D01*
X112697581Y-99220233D01*
X112697581Y-99315471D01*
X112649962Y-99458329D01*
X112554724Y-99553567D01*
X112459486Y-99601186D01*
X112269010Y-99648805D01*
X112126152Y-99648805D01*
X111935676Y-99601186D01*
X111840438Y-99553567D01*
X111745200Y-99458329D01*
X111697581Y-99315471D01*
X111697581Y-99220233D01*
X111745200Y-99077376D01*
X111792819Y-99029757D01*
X112697581Y-98077376D02*
X112697581Y-98648805D01*
X112697581Y-98363091D02*
X111697581Y-98363091D01*
X111840438Y-98458329D01*
X111935676Y-98553567D01*
X111983295Y-98648805D01*
X111792819Y-97696424D02*
X111745200Y-97648805D01*
X111697581Y-97553567D01*
X111697581Y-97315471D01*
X111745200Y-97220233D01*
X111792819Y-97172614D01*
X111888057Y-97124995D01*
X111983295Y-97124995D01*
X112126152Y-97172614D01*
X112697581Y-97744043D01*
X112697581Y-97124995D01*
X165269943Y-108825243D02*
X165222324Y-108872862D01*
X165079467Y-108920481D01*
X164984229Y-108920481D01*
X164841371Y-108872862D01*
X164746133Y-108777624D01*
X164698514Y-108682386D01*
X164650895Y-108491910D01*
X164650895Y-108349052D01*
X164698514Y-108158576D01*
X164746133Y-108063338D01*
X164841371Y-107968100D01*
X164984229Y-107920481D01*
X165079467Y-107920481D01*
X165222324Y-107968100D01*
X165269943Y-108015719D01*
X166222324Y-108920481D02*
X165650895Y-108920481D01*
X165936609Y-108920481D02*
X165936609Y-107920481D01*
X165841371Y-108063338D01*
X165746133Y-108158576D01*
X165650895Y-108206195D01*
X166555657Y-107920481D02*
X167174705Y-107920481D01*
X166841371Y-108301433D01*
X166984229Y-108301433D01*
X167079467Y-108349052D01*
X167127086Y-108396671D01*
X167174705Y-108491910D01*
X167174705Y-108730005D01*
X167127086Y-108825243D01*
X167079467Y-108872862D01*
X166984229Y-108920481D01*
X166698514Y-108920481D01*
X166603276Y-108872862D01*
X166555657Y-108825243D01*
X132719143Y-73540857D02*
X132766762Y-73588476D01*
X132814381Y-73731333D01*
X132814381Y-73826571D01*
X132766762Y-73969429D01*
X132671524Y-74064667D01*
X132576286Y-74112286D01*
X132385810Y-74159905D01*
X132242952Y-74159905D01*
X132052476Y-74112286D01*
X131957238Y-74064667D01*
X131862000Y-73969429D01*
X131814381Y-73826571D01*
X131814381Y-73731333D01*
X131862000Y-73588476D01*
X131909619Y-73540857D01*
X132814381Y-72588476D02*
X132814381Y-73159905D01*
X132814381Y-72874191D02*
X131814381Y-72874191D01*
X131957238Y-72969429D01*
X132052476Y-73064667D01*
X132100095Y-73159905D01*
X132147714Y-71731333D02*
X132814381Y-71731333D01*
X131766762Y-71969429D02*
X132481048Y-72207524D01*
X132481048Y-71588476D01*
X113437943Y-65946257D02*
X113485562Y-65993876D01*
X113533181Y-66136733D01*
X113533181Y-66231971D01*
X113485562Y-66374829D01*
X113390324Y-66470067D01*
X113295086Y-66517686D01*
X113104610Y-66565305D01*
X112961752Y-66565305D01*
X112771276Y-66517686D01*
X112676038Y-66470067D01*
X112580800Y-66374829D01*
X112533181Y-66231971D01*
X112533181Y-66136733D01*
X112580800Y-65993876D01*
X112628419Y-65946257D01*
X113533181Y-64993876D02*
X113533181Y-65565305D01*
X113533181Y-65279591D02*
X112533181Y-65279591D01*
X112676038Y-65374829D01*
X112771276Y-65470067D01*
X112818895Y-65565305D01*
X112533181Y-64089114D02*
X112533181Y-64565305D01*
X113009371Y-64612924D01*
X112961752Y-64565305D01*
X112914133Y-64470067D01*
X112914133Y-64231971D01*
X112961752Y-64136733D01*
X113009371Y-64089114D01*
X113104610Y-64041495D01*
X113342705Y-64041495D01*
X113437943Y-64089114D01*
X113485562Y-64136733D01*
X113533181Y-64231971D01*
X113533181Y-64470067D01*
X113485562Y-64565305D01*
X113437943Y-64612924D01*
X97109043Y-62663343D02*
X97061424Y-62710962D01*
X96918567Y-62758581D01*
X96823329Y-62758581D01*
X96680471Y-62710962D01*
X96585233Y-62615724D01*
X96537614Y-62520486D01*
X96489995Y-62330010D01*
X96489995Y-62187152D01*
X96537614Y-61996676D01*
X96585233Y-61901438D01*
X96680471Y-61806200D01*
X96823329Y-61758581D01*
X96918567Y-61758581D01*
X97061424Y-61806200D01*
X97109043Y-61853819D01*
X98061424Y-62758581D02*
X97489995Y-62758581D01*
X97775709Y-62758581D02*
X97775709Y-61758581D01*
X97680471Y-61901438D01*
X97585233Y-61996676D01*
X97489995Y-62044295D01*
X98918567Y-61758581D02*
X98728090Y-61758581D01*
X98632852Y-61806200D01*
X98585233Y-61853819D01*
X98489995Y-61996676D01*
X98442376Y-62187152D01*
X98442376Y-62568105D01*
X98489995Y-62663343D01*
X98537614Y-62710962D01*
X98632852Y-62758581D01*
X98823329Y-62758581D01*
X98918567Y-62710962D01*
X98966186Y-62663343D01*
X99013805Y-62568105D01*
X99013805Y-62330010D01*
X98966186Y-62234771D01*
X98918567Y-62187152D01*
X98823329Y-62139533D01*
X98632852Y-62139533D01*
X98537614Y-62187152D01*
X98489995Y-62234771D01*
X98442376Y-62330010D01*
X109847143Y-72239143D02*
X109799524Y-72286762D01*
X109656667Y-72334381D01*
X109561429Y-72334381D01*
X109418571Y-72286762D01*
X109323333Y-72191524D01*
X109275714Y-72096286D01*
X109228095Y-71905810D01*
X109228095Y-71762952D01*
X109275714Y-71572476D01*
X109323333Y-71477238D01*
X109418571Y-71382000D01*
X109561429Y-71334381D01*
X109656667Y-71334381D01*
X109799524Y-71382000D01*
X109847143Y-71429619D01*
X110799524Y-72334381D02*
X110228095Y-72334381D01*
X110513809Y-72334381D02*
X110513809Y-71334381D01*
X110418571Y-71477238D01*
X110323333Y-71572476D01*
X110228095Y-71620095D01*
X111132857Y-71334381D02*
X111799524Y-71334381D01*
X111370952Y-72334381D01*
X108637343Y-66149457D02*
X108684962Y-66197076D01*
X108732581Y-66339933D01*
X108732581Y-66435171D01*
X108684962Y-66578029D01*
X108589724Y-66673267D01*
X108494486Y-66720886D01*
X108304010Y-66768505D01*
X108161152Y-66768505D01*
X107970676Y-66720886D01*
X107875438Y-66673267D01*
X107780200Y-66578029D01*
X107732581Y-66435171D01*
X107732581Y-66339933D01*
X107780200Y-66197076D01*
X107827819Y-66149457D01*
X108732581Y-65197076D02*
X108732581Y-65768505D01*
X108732581Y-65482791D02*
X107732581Y-65482791D01*
X107875438Y-65578029D01*
X107970676Y-65673267D01*
X108018295Y-65768505D01*
X108161152Y-64625648D02*
X108113533Y-64720886D01*
X108065914Y-64768505D01*
X107970676Y-64816124D01*
X107923057Y-64816124D01*
X107827819Y-64768505D01*
X107780200Y-64720886D01*
X107732581Y-64625648D01*
X107732581Y-64435171D01*
X107780200Y-64339933D01*
X107827819Y-64292314D01*
X107923057Y-64244695D01*
X107970676Y-64244695D01*
X108065914Y-64292314D01*
X108113533Y-64339933D01*
X108161152Y-64435171D01*
X108161152Y-64625648D01*
X108208771Y-64720886D01*
X108256390Y-64768505D01*
X108351629Y-64816124D01*
X108542105Y-64816124D01*
X108637343Y-64768505D01*
X108684962Y-64720886D01*
X108732581Y-64625648D01*
X108732581Y-64435171D01*
X108684962Y-64339933D01*
X108637343Y-64292314D01*
X108542105Y-64244695D01*
X108351629Y-64244695D01*
X108256390Y-64292314D01*
X108208771Y-64339933D01*
X108161152Y-64435171D01*
X96597743Y-67178157D02*
X96645362Y-67225776D01*
X96692981Y-67368633D01*
X96692981Y-67463871D01*
X96645362Y-67606729D01*
X96550124Y-67701967D01*
X96454886Y-67749586D01*
X96264410Y-67797205D01*
X96121552Y-67797205D01*
X95931076Y-67749586D01*
X95835838Y-67701967D01*
X95740600Y-67606729D01*
X95692981Y-67463871D01*
X95692981Y-67368633D01*
X95740600Y-67225776D01*
X95788219Y-67178157D01*
X96692981Y-66225776D02*
X96692981Y-66797205D01*
X96692981Y-66511491D02*
X95692981Y-66511491D01*
X95835838Y-66606729D01*
X95931076Y-66701967D01*
X95978695Y-66797205D01*
X96692981Y-65749586D02*
X96692981Y-65559110D01*
X96645362Y-65463871D01*
X96597743Y-65416252D01*
X96454886Y-65321014D01*
X96264410Y-65273395D01*
X95883457Y-65273395D01*
X95788219Y-65321014D01*
X95740600Y-65368633D01*
X95692981Y-65463871D01*
X95692981Y-65654348D01*
X95740600Y-65749586D01*
X95788219Y-65797205D01*
X95883457Y-65844824D01*
X96121552Y-65844824D01*
X96216790Y-65797205D01*
X96264410Y-65749586D01*
X96312029Y-65654348D01*
X96312029Y-65463871D01*
X96264410Y-65368633D01*
X96216790Y-65321014D01*
X96121552Y-65273395D01*
X135684381Y-68302095D02*
X134684381Y-68302095D01*
X134684381Y-68064000D01*
X134732000Y-67921142D01*
X134827238Y-67825904D01*
X134922476Y-67778285D01*
X135112952Y-67730666D01*
X135255810Y-67730666D01*
X135446286Y-67778285D01*
X135541524Y-67825904D01*
X135636762Y-67921142D01*
X135684381Y-68064000D01*
X135684381Y-68302095D01*
X135684381Y-66778285D02*
X135684381Y-67349714D01*
X135684381Y-67064000D02*
X134684381Y-67064000D01*
X134827238Y-67159238D01*
X134922476Y-67254476D01*
X134970095Y-67349714D01*
X119835705Y-78951081D02*
X119835705Y-77951081D01*
X120073800Y-77951081D01*
X120216658Y-77998700D01*
X120311896Y-78093938D01*
X120359515Y-78189176D01*
X120407134Y-78379652D01*
X120407134Y-78522510D01*
X120359515Y-78712986D01*
X120311896Y-78808224D01*
X120216658Y-78903462D01*
X120073800Y-78951081D01*
X119835705Y-78951081D01*
X120788086Y-78046319D02*
X120835705Y-77998700D01*
X120930943Y-77951081D01*
X121169039Y-77951081D01*
X121264277Y-77998700D01*
X121311896Y-78046319D01*
X121359515Y-78141557D01*
X121359515Y-78236795D01*
X121311896Y-78379652D01*
X120740467Y-78951081D01*
X121359515Y-78951081D01*
X151355467Y-131506981D02*
X151355467Y-132221267D01*
X151307847Y-132364124D01*
X151212609Y-132459362D01*
X151069752Y-132506981D01*
X150974514Y-132506981D01*
X151784038Y-131602219D02*
X151831657Y-131554600D01*
X151926895Y-131506981D01*
X152164991Y-131506981D01*
X152260229Y-131554600D01*
X152307848Y-131602219D01*
X152355467Y-131697457D01*
X152355467Y-131792695D01*
X152307848Y-131935552D01*
X151736419Y-132506981D01*
X152355467Y-132506981D01*
X103499327Y-79703681D02*
X103499327Y-80417967D01*
X103451707Y-80560824D01*
X103356469Y-80656062D01*
X103213612Y-80703681D01*
X103118374Y-80703681D01*
X104404089Y-80037014D02*
X104404089Y-80703681D01*
X104165993Y-79656062D02*
X103927898Y-80370348D01*
X104546946Y-80370348D01*
X114093667Y-55776881D02*
X114093667Y-56491167D01*
X114046047Y-56634024D01*
X113950809Y-56729262D01*
X113807952Y-56776881D01*
X113712714Y-56776881D01*
X115046048Y-55776881D02*
X114569857Y-55776881D01*
X114522238Y-56253071D01*
X114569857Y-56205452D01*
X114665095Y-56157833D01*
X114903191Y-56157833D01*
X114998429Y-56205452D01*
X115046048Y-56253071D01*
X115093667Y-56348310D01*
X115093667Y-56586405D01*
X115046048Y-56681643D01*
X114998429Y-56729262D01*
X114903191Y-56776881D01*
X114665095Y-56776881D01*
X114569857Y-56729262D01*
X114522238Y-56681643D01*
X120684967Y-63015881D02*
X120684967Y-63730167D01*
X120637347Y-63873024D01*
X120542109Y-63968262D01*
X120399252Y-64015881D01*
X120304014Y-64015881D01*
X121065919Y-63015881D02*
X121732586Y-63015881D01*
X121304014Y-64015881D01*
X116038381Y-129873333D02*
X116752667Y-129873333D01*
X116895524Y-129920953D01*
X116990762Y-130016191D01*
X117038381Y-130159048D01*
X117038381Y-130254286D01*
X116466952Y-129254286D02*
X116419333Y-129349524D01*
X116371714Y-129397143D01*
X116276476Y-129444762D01*
X116228857Y-129444762D01*
X116133619Y-129397143D01*
X116086000Y-129349524D01*
X116038381Y-129254286D01*
X116038381Y-129063809D01*
X116086000Y-128968571D01*
X116133619Y-128920952D01*
X116228857Y-128873333D01*
X116276476Y-128873333D01*
X116371714Y-128920952D01*
X116419333Y-128968571D01*
X116466952Y-129063809D01*
X116466952Y-129254286D01*
X116514571Y-129349524D01*
X116562190Y-129397143D01*
X116657429Y-129444762D01*
X116847905Y-129444762D01*
X116943143Y-129397143D01*
X116990762Y-129349524D01*
X117038381Y-129254286D01*
X117038381Y-129063809D01*
X116990762Y-128968571D01*
X116943143Y-128920952D01*
X116847905Y-128873333D01*
X116657429Y-128873333D01*
X116562190Y-128920952D01*
X116514571Y-128968571D01*
X116466952Y-129063809D01*
X146198294Y-69723261D02*
X145864960Y-69247070D01*
X145626865Y-69723261D02*
X145626865Y-68723261D01*
X146007818Y-68723261D01*
X146103056Y-68770880D01*
X146150675Y-68818499D01*
X146198294Y-68913737D01*
X146198294Y-69056594D01*
X146150675Y-69151832D01*
X146103056Y-69199451D01*
X146007818Y-69247070D01*
X145626865Y-69247070D01*
X147150675Y-69723261D02*
X146579246Y-69723261D01*
X146864960Y-69723261D02*
X146864960Y-68723261D01*
X146769722Y-68866118D01*
X146674484Y-68961356D01*
X146579246Y-69008975D01*
X152233334Y-69716381D02*
X151900000Y-69240190D01*
X151661905Y-69716381D02*
X151661905Y-68716381D01*
X152042858Y-68716381D01*
X152138096Y-68764000D01*
X152185715Y-68811619D01*
X152233334Y-68906857D01*
X152233334Y-69049714D01*
X152185715Y-69144952D01*
X152138096Y-69192571D01*
X152042858Y-69240190D01*
X151661905Y-69240190D01*
X152614286Y-68811619D02*
X152661905Y-68764000D01*
X152757143Y-68716381D01*
X152995239Y-68716381D01*
X153090477Y-68764000D01*
X153138096Y-68811619D01*
X153185715Y-68906857D01*
X153185715Y-69002095D01*
X153138096Y-69144952D01*
X152566667Y-69716381D01*
X153185715Y-69716381D01*
X137501334Y-61236381D02*
X137168000Y-60760190D01*
X136929905Y-61236381D02*
X136929905Y-60236381D01*
X137310858Y-60236381D01*
X137406096Y-60284000D01*
X137453715Y-60331619D01*
X137501334Y-60426857D01*
X137501334Y-60569714D01*
X137453715Y-60664952D01*
X137406096Y-60712571D01*
X137310858Y-60760190D01*
X136929905Y-60760190D01*
X137834667Y-60236381D02*
X138453715Y-60236381D01*
X138120381Y-60617333D01*
X138263239Y-60617333D01*
X138358477Y-60664952D01*
X138406096Y-60712571D01*
X138453715Y-60807810D01*
X138453715Y-61045905D01*
X138406096Y-61141143D01*
X138358477Y-61188762D01*
X138263239Y-61236381D01*
X137977524Y-61236381D01*
X137882286Y-61188762D01*
X137834667Y-61141143D01*
X129816381Y-62142666D02*
X129340190Y-62476000D01*
X129816381Y-62714095D02*
X128816381Y-62714095D01*
X128816381Y-62333142D01*
X128864000Y-62237904D01*
X128911619Y-62190285D01*
X129006857Y-62142666D01*
X129149714Y-62142666D01*
X129244952Y-62190285D01*
X129292571Y-62237904D01*
X129340190Y-62333142D01*
X129340190Y-62714095D01*
X129149714Y-61285523D02*
X129816381Y-61285523D01*
X128768762Y-61523619D02*
X129483048Y-61761714D01*
X129483048Y-61142666D01*
X116038334Y-69375281D02*
X115705000Y-68899090D01*
X115466905Y-69375281D02*
X115466905Y-68375281D01*
X115847858Y-68375281D01*
X115943096Y-68422900D01*
X115990715Y-68470519D01*
X116038334Y-68565757D01*
X116038334Y-68708614D01*
X115990715Y-68803852D01*
X115943096Y-68851471D01*
X115847858Y-68899090D01*
X115466905Y-68899090D01*
X116943096Y-68375281D02*
X116466905Y-68375281D01*
X116419286Y-68851471D01*
X116466905Y-68803852D01*
X116562143Y-68756233D01*
X116800239Y-68756233D01*
X116895477Y-68803852D01*
X116943096Y-68851471D01*
X116990715Y-68946710D01*
X116990715Y-69184805D01*
X116943096Y-69280043D01*
X116895477Y-69327662D01*
X116800239Y-69375281D01*
X116562143Y-69375281D01*
X116466905Y-69327662D01*
X116419286Y-69280043D01*
X143319667Y-60285262D02*
X143462524Y-60332881D01*
X143700620Y-60332881D01*
X143795858Y-60285262D01*
X143843477Y-60237643D01*
X143891096Y-60142405D01*
X143891096Y-60047167D01*
X143843477Y-59951929D01*
X143795858Y-59904310D01*
X143700620Y-59856690D01*
X143510143Y-59809071D01*
X143414905Y-59761452D01*
X143367286Y-59713833D01*
X143319667Y-59618595D01*
X143319667Y-59523357D01*
X143367286Y-59428119D01*
X143414905Y-59380500D01*
X143510143Y-59332881D01*
X143748239Y-59332881D01*
X143891096Y-59380500D01*
X144224429Y-59332881D02*
X144462524Y-60332881D01*
X144653001Y-59618595D01*
X144843477Y-60332881D01*
X145081572Y-59332881D01*
X145986334Y-60332881D02*
X145414905Y-60332881D01*
X145700619Y-60332881D02*
X145700619Y-59332881D01*
X145605381Y-59475738D01*
X145510143Y-59570976D01*
X145414905Y-59618595D01*
X176062735Y-98248221D02*
X176062735Y-99057745D01*
X176110354Y-99152983D01*
X176157973Y-99200602D01*
X176253211Y-99248221D01*
X176443688Y-99248221D01*
X176538926Y-99200602D01*
X176586545Y-99152983D01*
X176634164Y-99057745D01*
X176634164Y-98248221D01*
X177634164Y-99248221D02*
X177062735Y-99248221D01*
X177348449Y-99248221D02*
X177348449Y-98248221D01*
X177253211Y-98391078D01*
X177157973Y-98486316D01*
X177062735Y-98533935D01*
X123190095Y-117054381D02*
X123190095Y-117863905D01*
X123237714Y-117959143D01*
X123285333Y-118006762D01*
X123380571Y-118054381D01*
X123571048Y-118054381D01*
X123666286Y-118006762D01*
X123713905Y-117959143D01*
X123761524Y-117863905D01*
X123761524Y-117054381D01*
X124190095Y-117149619D02*
X124237714Y-117102000D01*
X124332952Y-117054381D01*
X124571048Y-117054381D01*
X124666286Y-117102000D01*
X124713905Y-117149619D01*
X124761524Y-117244857D01*
X124761524Y-117340095D01*
X124713905Y-117482952D01*
X124142476Y-118054381D01*
X124761524Y-118054381D01*
X140462095Y-47077381D02*
X140462095Y-47886905D01*
X140509714Y-47982143D01*
X140557333Y-48029762D01*
X140652571Y-48077381D01*
X140843048Y-48077381D01*
X140938286Y-48029762D01*
X140985905Y-47982143D01*
X141033524Y-47886905D01*
X141033524Y-47077381D01*
X141414476Y-47077381D02*
X142033524Y-47077381D01*
X141700190Y-47458333D01*
X141843048Y-47458333D01*
X141938286Y-47505952D01*
X141985905Y-47553571D01*
X142033524Y-47648810D01*
X142033524Y-47886905D01*
X141985905Y-47982143D01*
X141938286Y-48029762D01*
X141843048Y-48077381D01*
X141557333Y-48077381D01*
X141462095Y-48029762D01*
X141414476Y-47982143D01*
X151003095Y-123531381D02*
X151003095Y-124340905D01*
X151050714Y-124436143D01*
X151098333Y-124483762D01*
X151193571Y-124531381D01*
X151384048Y-124531381D01*
X151479286Y-124483762D01*
X151526905Y-124436143D01*
X151574524Y-124340905D01*
X151574524Y-123531381D01*
X152479286Y-123864714D02*
X152479286Y-124531381D01*
X152241190Y-123483762D02*
X152003095Y-124198048D01*
X152622143Y-124198048D01*
X183906255Y-61143901D02*
X183906255Y-61953425D01*
X183953874Y-62048663D01*
X184001493Y-62096282D01*
X184096731Y-62143901D01*
X184287208Y-62143901D01*
X184382446Y-62096282D01*
X184430065Y-62048663D01*
X184477684Y-61953425D01*
X184477684Y-61143901D01*
X185430065Y-61143901D02*
X184953874Y-61143901D01*
X184906255Y-61620091D01*
X184953874Y-61572472D01*
X185049112Y-61524853D01*
X185287208Y-61524853D01*
X185382446Y-61572472D01*
X185430065Y-61620091D01*
X185477684Y-61715330D01*
X185477684Y-61953425D01*
X185430065Y-62048663D01*
X185382446Y-62096282D01*
X185287208Y-62143901D01*
X185049112Y-62143901D01*
X184953874Y-62096282D01*
X184906255Y-62048663D01*
X187797535Y-106020621D02*
X187797535Y-106830145D01*
X187845154Y-106925383D01*
X187892773Y-106973002D01*
X187988011Y-107020621D01*
X188178488Y-107020621D01*
X188273726Y-106973002D01*
X188321345Y-106925383D01*
X188368964Y-106830145D01*
X188368964Y-106020621D01*
X189273726Y-106020621D02*
X189083249Y-106020621D01*
X188988011Y-106068240D01*
X188940392Y-106115859D01*
X188845154Y-106258716D01*
X188797535Y-106449192D01*
X188797535Y-106830145D01*
X188845154Y-106925383D01*
X188892773Y-106973002D01*
X188988011Y-107020621D01*
X189178488Y-107020621D01*
X189273726Y-106973002D01*
X189321345Y-106925383D01*
X189368964Y-106830145D01*
X189368964Y-106592050D01*
X189321345Y-106496811D01*
X189273726Y-106449192D01*
X189178488Y-106401573D01*
X188988011Y-106401573D01*
X188892773Y-106449192D01*
X188845154Y-106496811D01*
X188797535Y-106592050D01*
X163789455Y-110663741D02*
X163789455Y-111473265D01*
X163837074Y-111568503D01*
X163884693Y-111616122D01*
X163979931Y-111663741D01*
X164170408Y-111663741D01*
X164265646Y-111616122D01*
X164313265Y-111568503D01*
X164360884Y-111473265D01*
X164360884Y-110663741D01*
X164741836Y-110663741D02*
X165408503Y-110663741D01*
X164979931Y-111663741D01*
X124714095Y-63523881D02*
X124714095Y-64333405D01*
X124761714Y-64428643D01*
X124809333Y-64476262D01*
X124904571Y-64523881D01*
X125095048Y-64523881D01*
X125190286Y-64476262D01*
X125237905Y-64428643D01*
X125285524Y-64333405D01*
X125285524Y-63523881D01*
X125809333Y-64523881D02*
X125999809Y-64523881D01*
X126095048Y-64476262D01*
X126142667Y-64428643D01*
X126237905Y-64285786D01*
X126285524Y-64095310D01*
X126285524Y-63714357D01*
X126237905Y-63619119D01*
X126190286Y-63571500D01*
X126095048Y-63523881D01*
X125904571Y-63523881D01*
X125809333Y-63571500D01*
X125761714Y-63619119D01*
X125714095Y-63714357D01*
X125714095Y-63952452D01*
X125761714Y-64047690D01*
X125809333Y-64095310D01*
X125904571Y-64142929D01*
X126095048Y-64142929D01*
X126190286Y-64095310D01*
X126237905Y-64047690D01*
X126285524Y-63952452D01*
X102647905Y-71842381D02*
X102647905Y-72651905D01*
X102695524Y-72747143D01*
X102743143Y-72794762D01*
X102838381Y-72842381D01*
X103028858Y-72842381D01*
X103124096Y-72794762D01*
X103171715Y-72747143D01*
X103219334Y-72651905D01*
X103219334Y-71842381D01*
X104219334Y-72842381D02*
X103647905Y-72842381D01*
X103933619Y-72842381D02*
X103933619Y-71842381D01*
X103838381Y-71985238D01*
X103743143Y-72080476D01*
X103647905Y-72128095D01*
X104838381Y-71842381D02*
X104933620Y-71842381D01*
X105028858Y-71890000D01*
X105076477Y-71937619D01*
X105124096Y-72032857D01*
X105171715Y-72223333D01*
X105171715Y-72461429D01*
X105124096Y-72651905D01*
X105076477Y-72747143D01*
X105028858Y-72794762D01*
X104933620Y-72842381D01*
X104838381Y-72842381D01*
X104743143Y-72794762D01*
X104695524Y-72747143D01*
X104647905Y-72651905D01*
X104600286Y-72461429D01*
X104600286Y-72223333D01*
X104647905Y-72032857D01*
X104695524Y-71937619D01*
X104743143Y-71890000D01*
X104838381Y-71842381D01*
X128809809Y-117959190D02*
X128809809Y-118435381D01*
X128476476Y-117435381D02*
X128809809Y-117959190D01*
X129143143Y-117435381D01*
X130000286Y-118435381D02*
X129428857Y-118435381D01*
X129714571Y-118435381D02*
X129714571Y-117435381D01*
X129619333Y-117578238D01*
X129524095Y-117673476D01*
X129428857Y-117721095D01*
X125776741Y-130730523D02*
X126491027Y-130730523D01*
X126633884Y-130778143D01*
X126729122Y-130873381D01*
X126776741Y-131016238D01*
X126776741Y-131111476D01*
X126776741Y-129730523D02*
X126776741Y-130301952D01*
X126776741Y-130016238D02*
X125776741Y-130016238D01*
X125919598Y-130111476D01*
X126014836Y-130206714D01*
X126062455Y-130301952D01*
X126776741Y-128778142D02*
X126776741Y-129349571D01*
X126776741Y-129063857D02*
X125776741Y-129063857D01*
X125919598Y-129159095D01*
X126014836Y-129254333D01*
X126062455Y-129349571D01*
X189190381Y-130501923D02*
X189904667Y-130501923D01*
X190047524Y-130549543D01*
X190142762Y-130644781D01*
X190190381Y-130787638D01*
X190190381Y-130882876D01*
X190190381Y-129501923D02*
X190190381Y-130073352D01*
X190190381Y-129787638D02*
X189190381Y-129787638D01*
X189333238Y-129882876D01*
X189428476Y-129978114D01*
X189476095Y-130073352D01*
X189285619Y-129120971D02*
X189238000Y-129073352D01*
X189190381Y-128978114D01*
X189190381Y-128740018D01*
X189238000Y-128644780D01*
X189285619Y-128597161D01*
X189380857Y-128549542D01*
X189476095Y-128549542D01*
X189618952Y-128597161D01*
X190190381Y-129168590D01*
X190190381Y-128549542D01*
X136734301Y-130486683D02*
X137448587Y-130486683D01*
X137591444Y-130534303D01*
X137686682Y-130629541D01*
X137734301Y-130772398D01*
X137734301Y-130867636D01*
X137734301Y-129486683D02*
X137734301Y-130058112D01*
X137734301Y-129772398D02*
X136734301Y-129772398D01*
X136877158Y-129867636D01*
X136972396Y-129962874D01*
X137020015Y-130058112D01*
X137067634Y-128629540D02*
X137734301Y-128629540D01*
X136686682Y-128867636D02*
X137400968Y-129105731D01*
X137400968Y-128486683D01*
X178745901Y-48419283D02*
X179460187Y-48419283D01*
X179603044Y-48466903D01*
X179698282Y-48562141D01*
X179745901Y-48704998D01*
X179745901Y-48800236D01*
X179745901Y-47419283D02*
X179745901Y-47990712D01*
X179745901Y-47704998D02*
X178745901Y-47704998D01*
X178888758Y-47800236D01*
X178983996Y-47895474D01*
X179031615Y-47990712D01*
X178745901Y-46514521D02*
X178745901Y-46990712D01*
X179222091Y-47038331D01*
X179174472Y-46990712D01*
X179126853Y-46895474D01*
X179126853Y-46657378D01*
X179174472Y-46562140D01*
X179222091Y-46514521D01*
X179317330Y-46466902D01*
X179555425Y-46466902D01*
X179650663Y-46514521D01*
X179698282Y-46562140D01*
X179745901Y-46657378D01*
X179745901Y-46895474D01*
X179698282Y-46990712D01*
X179650663Y-47038331D01*
X102449334Y-65476381D02*
X102116000Y-65000190D01*
X101877905Y-65476381D02*
X101877905Y-64476381D01*
X102258858Y-64476381D01*
X102354096Y-64524000D01*
X102401715Y-64571619D01*
X102449334Y-64666857D01*
X102449334Y-64809714D01*
X102401715Y-64904952D01*
X102354096Y-64952571D01*
X102258858Y-65000190D01*
X101877905Y-65000190D01*
X103306477Y-64476381D02*
X103116000Y-64476381D01*
X103020762Y-64524000D01*
X102973143Y-64571619D01*
X102877905Y-64714476D01*
X102830286Y-64904952D01*
X102830286Y-65285905D01*
X102877905Y-65381143D01*
X102925524Y-65428762D01*
X103020762Y-65476381D01*
X103211239Y-65476381D01*
X103306477Y-65428762D01*
X103354096Y-65381143D01*
X103401715Y-65285905D01*
X103401715Y-65047810D01*
X103354096Y-64952571D01*
X103306477Y-64904952D01*
X103211239Y-64857333D01*
X103020762Y-64857333D01*
X102925524Y-64904952D01*
X102877905Y-64952571D01*
X102830286Y-65047810D01*
X105243334Y-65476381D02*
X104910000Y-65000190D01*
X104671905Y-65476381D02*
X104671905Y-64476381D01*
X105052858Y-64476381D01*
X105148096Y-64524000D01*
X105195715Y-64571619D01*
X105243334Y-64666857D01*
X105243334Y-64809714D01*
X105195715Y-64904952D01*
X105148096Y-64952571D01*
X105052858Y-65000190D01*
X104671905Y-65000190D01*
X105576667Y-64476381D02*
X106243334Y-64476381D01*
X105814762Y-65476381D01*
X111274381Y-77382666D02*
X110798190Y-77716000D01*
X111274381Y-77954095D02*
X110274381Y-77954095D01*
X110274381Y-77573142D01*
X110322000Y-77477904D01*
X110369619Y-77430285D01*
X110464857Y-77382666D01*
X110607714Y-77382666D01*
X110702952Y-77430285D01*
X110750571Y-77477904D01*
X110798190Y-77573142D01*
X110798190Y-77954095D01*
X110702952Y-76811238D02*
X110655333Y-76906476D01*
X110607714Y-76954095D01*
X110512476Y-77001714D01*
X110464857Y-77001714D01*
X110369619Y-76954095D01*
X110322000Y-76906476D01*
X110274381Y-76811238D01*
X110274381Y-76620761D01*
X110322000Y-76525523D01*
X110369619Y-76477904D01*
X110464857Y-76430285D01*
X110512476Y-76430285D01*
X110607714Y-76477904D01*
X110655333Y-76525523D01*
X110702952Y-76620761D01*
X110702952Y-76811238D01*
X110750571Y-76906476D01*
X110798190Y-76954095D01*
X110893429Y-77001714D01*
X111083905Y-77001714D01*
X111179143Y-76954095D01*
X111226762Y-76906476D01*
X111274381Y-76811238D01*
X111274381Y-76620761D01*
X111226762Y-76525523D01*
X111179143Y-76477904D01*
X111083905Y-76430285D01*
X110893429Y-76430285D01*
X110798190Y-76477904D01*
X110750571Y-76525523D01*
X110702952Y-76620761D01*
X111274381Y-84494666D02*
X110798190Y-84828000D01*
X111274381Y-85066095D02*
X110274381Y-85066095D01*
X110274381Y-84685142D01*
X110322000Y-84589904D01*
X110369619Y-84542285D01*
X110464857Y-84494666D01*
X110607714Y-84494666D01*
X110702952Y-84542285D01*
X110750571Y-84589904D01*
X110798190Y-84685142D01*
X110798190Y-85066095D01*
X111274381Y-84018476D02*
X111274381Y-83828000D01*
X111226762Y-83732761D01*
X111179143Y-83685142D01*
X111036286Y-83589904D01*
X110845810Y-83542285D01*
X110464857Y-83542285D01*
X110369619Y-83589904D01*
X110322000Y-83637523D01*
X110274381Y-83732761D01*
X110274381Y-83923238D01*
X110322000Y-84018476D01*
X110369619Y-84066095D01*
X110464857Y-84113714D01*
X110702952Y-84113714D01*
X110798190Y-84066095D01*
X110845810Y-84018476D01*
X110893429Y-83923238D01*
X110893429Y-83732761D01*
X110845810Y-83637523D01*
X110798190Y-83589904D01*
X110702952Y-83542285D01*
X147304167Y-53554381D02*
X147304167Y-54268667D01*
X147256547Y-54411524D01*
X147161309Y-54506762D01*
X147018452Y-54554381D01*
X146923214Y-54554381D01*
X147685119Y-53554381D02*
X148304167Y-53554381D01*
X147970833Y-53935333D01*
X148113691Y-53935333D01*
X148208929Y-53982952D01*
X148256548Y-54030571D01*
X148304167Y-54125810D01*
X148304167Y-54363905D01*
X148256548Y-54459143D01*
X148208929Y-54506762D01*
X148113691Y-54554381D01*
X147827976Y-54554381D01*
X147732738Y-54506762D01*
X147685119Y-54459143D01*
X101479505Y-78116181D02*
X101479505Y-78925705D01*
X101527124Y-79020943D01*
X101574743Y-79068562D01*
X101669981Y-79116181D01*
X101860458Y-79116181D01*
X101955696Y-79068562D01*
X102003315Y-79020943D01*
X102050934Y-78925705D01*
X102050934Y-78116181D01*
X103050934Y-79116181D02*
X102479505Y-79116181D01*
X102765219Y-79116181D02*
X102765219Y-78116181D01*
X102669981Y-78259038D01*
X102574743Y-78354276D01*
X102479505Y-78401895D01*
X104003315Y-79116181D02*
X103431886Y-79116181D01*
X103717600Y-79116181D02*
X103717600Y-78116181D01*
X103622362Y-78259038D01*
X103527124Y-78354276D01*
X103431886Y-78401895D01*
X96386805Y-78179681D02*
X96386805Y-78989205D01*
X96434424Y-79084443D01*
X96482043Y-79132062D01*
X96577281Y-79179681D01*
X96767758Y-79179681D01*
X96862996Y-79132062D01*
X96910615Y-79084443D01*
X96958234Y-78989205D01*
X96958234Y-78179681D01*
X97958234Y-79179681D02*
X97386805Y-79179681D01*
X97672519Y-79179681D02*
X97672519Y-78179681D01*
X97577281Y-78322538D01*
X97482043Y-78417776D01*
X97386805Y-78465395D01*
X98339186Y-78274919D02*
X98386805Y-78227300D01*
X98482043Y-78179681D01*
X98720139Y-78179681D01*
X98815377Y-78227300D01*
X98862996Y-78274919D01*
X98910615Y-78370157D01*
X98910615Y-78465395D01*
X98862996Y-78608252D01*
X98291567Y-79179681D01*
X98910615Y-79179681D01*
X131086267Y-44772781D02*
X131086267Y-45487067D01*
X131038647Y-45629924D01*
X130943409Y-45725162D01*
X130800552Y-45772781D01*
X130705314Y-45772781D01*
X132086267Y-45772781D02*
X131514838Y-45772781D01*
X131800552Y-45772781D02*
X131800552Y-44772781D01*
X131705314Y-44915638D01*
X131610076Y-45010876D01*
X131514838Y-45058495D01*
X129481343Y-103970081D02*
X129148009Y-103493890D01*
X128909914Y-103970081D02*
X128909914Y-102970081D01*
X129290867Y-102970081D01*
X129386105Y-103017700D01*
X129433724Y-103065319D01*
X129481343Y-103160557D01*
X129481343Y-103303414D01*
X129433724Y-103398652D01*
X129386105Y-103446271D01*
X129290867Y-103493890D01*
X128909914Y-103493890D01*
X130433724Y-103970081D02*
X129862295Y-103970081D01*
X130148009Y-103970081D02*
X130148009Y-102970081D01*
X130052771Y-103112938D01*
X129957533Y-103208176D01*
X129862295Y-103255795D01*
X131052771Y-102970081D02*
X131148010Y-102970081D01*
X131243248Y-103017700D01*
X131290867Y-103065319D01*
X131338486Y-103160557D01*
X131386105Y-103351033D01*
X131386105Y-103589129D01*
X131338486Y-103779605D01*
X131290867Y-103874843D01*
X131243248Y-103922462D01*
X131148010Y-103970081D01*
X131052771Y-103970081D01*
X130957533Y-103922462D01*
X130909914Y-103874843D01*
X130862295Y-103779605D01*
X130814676Y-103589129D01*
X130814676Y-103351033D01*
X130862295Y-103160557D01*
X130909914Y-103065319D01*
X130957533Y-103017700D01*
X131052771Y-102970081D01*
X129354343Y-106789481D02*
X129021009Y-106313290D01*
X128782914Y-106789481D02*
X128782914Y-105789481D01*
X129163867Y-105789481D01*
X129259105Y-105837100D01*
X129306724Y-105884719D01*
X129354343Y-105979957D01*
X129354343Y-106122814D01*
X129306724Y-106218052D01*
X129259105Y-106265671D01*
X129163867Y-106313290D01*
X128782914Y-106313290D01*
X130306724Y-106789481D02*
X129735295Y-106789481D01*
X130021009Y-106789481D02*
X130021009Y-105789481D01*
X129925771Y-105932338D01*
X129830533Y-106027576D01*
X129735295Y-106075195D01*
X131259105Y-106789481D02*
X130687676Y-106789481D01*
X130973390Y-106789481D02*
X130973390Y-105789481D01*
X130878152Y-105932338D01*
X130782914Y-106027576D01*
X130687676Y-106075195D01*
X126492095Y-75989381D02*
X126492095Y-76798905D01*
X126539714Y-76894143D01*
X126587333Y-76941762D01*
X126682571Y-76989381D01*
X126873048Y-76989381D01*
X126968286Y-76941762D01*
X127015905Y-76894143D01*
X127063524Y-76798905D01*
X127063524Y-75989381D01*
X127682571Y-76417952D02*
X127587333Y-76370333D01*
X127539714Y-76322714D01*
X127492095Y-76227476D01*
X127492095Y-76179857D01*
X127539714Y-76084619D01*
X127587333Y-76037000D01*
X127682571Y-75989381D01*
X127873048Y-75989381D01*
X127968286Y-76037000D01*
X128015905Y-76084619D01*
X128063524Y-76179857D01*
X128063524Y-76227476D01*
X128015905Y-76322714D01*
X127968286Y-76370333D01*
X127873048Y-76417952D01*
X127682571Y-76417952D01*
X127587333Y-76465571D01*
X127539714Y-76513190D01*
X127492095Y-76608429D01*
X127492095Y-76798905D01*
X127539714Y-76894143D01*
X127587333Y-76941762D01*
X127682571Y-76989381D01*
X127873048Y-76989381D01*
X127968286Y-76941762D01*
X128015905Y-76894143D01*
X128063524Y-76798905D01*
X128063524Y-76608429D01*
X128015905Y-76513190D01*
X127968286Y-76465571D01*
X127873048Y-76417952D01*
X176152277Y-131494281D02*
X176152277Y-132208567D01*
X176104657Y-132351424D01*
X176009419Y-132446662D01*
X175866562Y-132494281D01*
X175771324Y-132494281D01*
X177152277Y-132494281D02*
X176580848Y-132494281D01*
X176866562Y-132494281D02*
X176866562Y-131494281D01*
X176771324Y-131637138D01*
X176676086Y-131732376D01*
X176580848Y-131779995D01*
X177485610Y-131494281D02*
X178104658Y-131494281D01*
X177771324Y-131875233D01*
X177914182Y-131875233D01*
X178009420Y-131922852D01*
X178057039Y-131970471D01*
X178104658Y-132065710D01*
X178104658Y-132303805D01*
X178057039Y-132399043D01*
X178009420Y-132446662D01*
X177914182Y-132494281D01*
X177628467Y-132494281D01*
X177533229Y-132446662D01*
X177485610Y-132399043D01*
X97024867Y-56322981D02*
X97024867Y-57037267D01*
X96977247Y-57180124D01*
X96882009Y-57275362D01*
X96739152Y-57322981D01*
X96643914Y-57322981D01*
X97548676Y-57322981D02*
X97739152Y-57322981D01*
X97834391Y-57275362D01*
X97882010Y-57227743D01*
X97977248Y-57084886D01*
X98024867Y-56894410D01*
X98024867Y-56513457D01*
X97977248Y-56418219D01*
X97929629Y-56370600D01*
X97834391Y-56322981D01*
X97643914Y-56322981D01*
X97548676Y-56370600D01*
X97501057Y-56418219D01*
X97453438Y-56513457D01*
X97453438Y-56751552D01*
X97501057Y-56846790D01*
X97548676Y-56894410D01*
X97643914Y-56942029D01*
X97834391Y-56942029D01*
X97929629Y-56894410D01*
X97977248Y-56846790D01*
X98024867Y-56751552D01*
M02*
